<?xml version="1.0" encoding="UTF-8" standalone="no"?>
<!-- Created with Inkscape (http://www.inkscape.org/) -->

<svg
   version="1.1"
   id="svg1"
   width="2880"
   height="1472"
   viewBox="0 0 2880 1472"
   sodipodi:docname="silueta_huillin.svg"
   inkscape:version="1.4.2 (ebf0e940d0, 2025-05-08)"
   xmlns:inkscape="http://www.inkscape.org/namespaces/inkscape"
   xmlns:sodipodi="http://sodipodi.sourceforge.net/DTD/sodipodi-0.dtd"
   xmlns="http://www.w3.org/2000/svg"
   xmlns:svg="http://www.w3.org/2000/svg">
  <defs
     id="defs1" />
  <sodipodi:namedview
     id="namedview1"
     pagecolor="#ffffff"
     bordercolor="#000000"
     borderopacity="0.25"
     inkscape:showpageshadow="2"
     inkscape:pageopacity="0.0"
     inkscape:pagecheckerboard="0"
     inkscape:deskcolor="#d1d1d1"
     inkscape:zoom="0.28020833"
     inkscape:cx="1440"
     inkscape:cy="735.16729"
     inkscape:window-width="1829"
     inkscape:window-height="961"
     inkscape:window-x="0"
     inkscape:window-y="0"
     inkscape:window-maximized="1"
     inkscape:current-layer="g1" />
  <g
     inkscape:groupmode="layer"
     inkscape:label="Image"
     id="g1">
    <path
       style="fill:#000000"
       d="m 2194.0766,1422.197 c -1.925,-0.4385 -5.75,-1.2676 -8.5,-1.8425 -2.75,-0.5748 -7.7,-2.286 -11,-3.8027 l -6,-2.7575 -31.5,0.2552 c -40.6133,0.3292 -58.9966,-0.8576 -75.192,-4.854 -6.7694,-1.6704 -19.058,-3.9414 -27.308,-5.0467 -27.9866,-3.7493 -31.8594,-4.5749 -41.2088,-8.7847 -4.923,-2.2167 -10.5494,-4.3302 -12.5031,-4.6967 -4.9369,-0.9262 -7.8381,-2.8972 -19.1134,-12.9851 l -9.8253,-8.7906 -8.8055,-18.1766 c -9.9726,-20.5854 -11.8224,-22.7345 -26.8182,-31.1573 -8.3297,-4.6786 -10.163,-6.3613 -15.8043,-14.5059 -2.2089,-3.1891 -5.0358,-5.4732 -10.0069,-8.0854 -10.8021,-5.6764 -11.3044,-6.4853 -14.9532,-24.0781 -1.5751,-7.5941 -1.7971,-7.9731 -8.7886,-15.0021 -4.9392,-4.9657 -8.5048,-9.7549 -11.4505,-15.3799 -4.4442,-8.4865 -9.3978,-13.8311 -13.8564,-14.9501 -1.9094,-0.4793 -3.2018,-2.0185 -4.8789,-5.8106 -1.2547,-2.8373 -3.3923,-6.2279 -4.7502,-7.5348 -3.5863,-3.4517 -16.5595,-7.0316 -25.4817,-7.0316 h -7.3571 l -1.6109,-3.75 c -0.9473,-2.205 -1.9267,-8.5535 -2.3773,-15.4089 -0.7703,-11.7219 -3.8571,-23.4047 -9.8286,-37.1998 -2.8774,-6.6471 -13.3664,-17.2651 -26.3849,-26.7093 -15.9953,-11.6036 -20.0073,-13.319 -32.2086,-13.7706 l -10.0375,-0.3716 -5.122,4.6051 c -2.8171,2.5328 -5.613,4.6051 -6.2132,4.6051 -0.6002,0 -1.3782,-1.7947 -1.729,-3.9882 -0.3707,-2.3185 -2.2596,-6.1619 -4.5118,-9.1806 -2.1308,-2.8558 -3.8741,-5.7395 -3.8741,-6.4082 0,-2.022 -6.6966,-7.2448 -10.7227,-8.3629 -2.0775,-0.5769 -5.3537,-1.0515 -7.2805,-1.0545 -1.9267,0 -6.5919,-0.8889 -10.3669,-1.9685 -6.0296,-1.7243 -7.8354,-1.8321 -14.8582,-0.8869 -5.8781,0.791 -9.4871,0.7706 -13.633,-0.077 -6.0785,-1.2428 -8.0522,-1.3034 -39.3113,-1.2066 -14.2411,0.044 -23.6401,0.5698 -30.2111,1.6899 -11.6805,1.991 -15.1306,1.3971 -31.5287,-5.4278 -6.3732,-2.6525 -12.4876,-5.1527 -13.5876,-5.5559 -1.1,-0.4032 -7.8343,-1.1529 -14.9651,-1.666 -7.1308,-0.5131 -14.4195,-1.4588 -16.197,-2.1016 -2.6082,-0.9431 -4.7873,-0.8343 -11.2934,0.5638 -4.4339,0.9528 -12.2203,2.103 -17.3031,2.5561 -5.3681,0.4785 -12.4989,1.9377 -17.0136,3.4816 -4.2747,1.4617 -11.6997,3.274 -16.5,4.0272 -10.9984,1.7258 -21.3559,4.4852 -32.2278,8.5858 -4.675,1.7633 -10.3,3.8707 -12.5,4.6832 -5.2166,1.9266 -10.6114,1.151 -15.7785,-2.2685 l -4.1354,-2.7367 -20.0431,0.6225 c -11.0236,0.3423 -23.6442,1.0854 -28.0456,1.6513 -6.9869,0.8982 -8.884,0.7768 -14.9466,-0.957 -5.2056,-1.4886 -7.8334,-1.7628 -10.4973,-1.0951 -1.9544,0.4899 -6.4785,1.1787 -10.0535,1.5308 -3.6113,0.3556 -8.7221,1.7117 -11.5,3.0513 -9.4307,4.5481 -27.9945,23.7556 -32.4489,33.5742 -4.4187,9.7399 -1.5929,16.1021 12.2485,27.5775 5.0602,4.1952 10.7754,8.6358 12.7004,9.8681 1.925,1.2322 9.575,6.1886 17,11.0142 18.9333,12.305 24.0106,15.1899 31.7353,18.0318 3.7206,1.3689 12.8397,5.3517 20.2647,8.8507 13.7507,6.4801 22.1714,9.5304 32,11.5917 20.7766,4.3574 29.7393,7.2692 40.8185,13.2611 6.2252,3.3667 12.6377,7.6237 14.25,9.46 2.5746,2.9323 2.9297,4.0955 2.9168,9.554 -0.017,7.2244 -1.473,10.7018 -5.2359,12.506 -1.6302,0.7817 -12.466,1.9073 -27.4707,2.8537 -22.2065,1.4006 -25.2977,1.405 -29.7787,0.043 -10.245,-3.1146 -19.3951,-4.5162 -33.5,-5.1313 -17.1782,-0.7492 -77.4836,-4.9504 -101.2989,-7.057 -22.2747,-1.9704 -38.5584,-4.617 -89.2011,-14.4977 -16.6172,-3.2422 -35.0785,-11.5721 -47.8332,-21.5828 -3.0343,-2.3815 -9.1042,-8.5123 -13.4888,-13.6242 -4.3846,-5.1118 -11.6118,-12.4379 -16.0604,-16.2803 -13.8482,-11.961 -20.5464,-20.6117 -29.047,-37.5139 -5.8038,-11.54 -10.2096,-19.526 -17.79,-32.2466 -3.5223,-5.9106 -8.4149,-15.3443 -10.8726,-20.9636 -5.41429,-12.3799 -8.52801,-17.81 -13.13957,-22.9144 -4.17056,-4.6163 -7.66569,-5.0072 -16.76846,-1.8754 -7.0431,2.4232 -8.45972,2.4637 -12.85482,0.3678 -4.55295,-2.1711 -9.16514,-1.2315 -15.56529,3.171 -2.77615,1.9097 -7.64232,4.6165 -10.81372,6.0152 -8.17327,3.6048 -13.96573,9.5865 -15.92559,16.446 -0.86429,3.025 -3.27783,9.55 -5.36343,14.5 -5.30915,12.6009 -6.36493,19.0484 -5.69843,34.7998 1.50241,35.5072 15.04062,55.6198 44.48276,66.0845 3.99382,1.4195 10.24445,3.0575 13.8903,3.6399 3.64585,0.5825 11.40318,2.6238 17.23852,4.5364 5.83533,1.9125 14.2097,4.202 18.6097,5.0878 11.87773,2.3912 34.48493,9.1792 38.18303,11.4647 4.3237,2.6722 8.1282,7.3182 10.9624,13.3869 3.3574,7.1892 3.1103,11.0512 -0.9525,14.8829 -5.2533,4.9545 -15.5282,6.6637 -51.69293,8.5988 -23.05454,1.2337 -38.7509,2.6849 -44.11602,4.0788 -6.80515,1.7681 -53.24939,0.3777 -69.38398,-2.0771 -10.77071,-1.6387 -39.83608,-5.9788 -47,-7.0182 -8.35212,-1.2117 -13.22414,-2.4229 -33,-8.204 -24.72731,-7.2286 -31.03215,-11.1021 -38.53644,-23.6753 -8.04152,-13.4733 -15.34132,-21.9635 -26.58459,-30.9198 -12.11602,-9.6515 -16.10506,-14.767 -19.41534,-24.8981 -1.21629,-3.7224 -5.02758,-12.843 -8.46953,-20.268 -3.44196,-7.425 -7.50744,-17.0238 -9.03441,-21.3307 -4.30435,-12.1405 -7.33979,-13.0589 -18.95969,-5.7364 -9.51997,5.9993 -14.93969,8.4552 -31.95183,14.4788 -15.17363,5.3726 -19.94632,7.703 -35.99236,17.5743 -14.03487,8.634 -33.89941,14.9899 -53.80955,17.2171 -8.26557,0.9246 -37.35254,1.2631 -109.74626,1.2774 -87.7858,0.017 -99.80528,-0.1671 -110.5,-1.6957 -6.6,-0.9434 -26.4,-2.8695 -44,-4.2802 -17.6,-1.4107 -37.625,-3.2176 -44.5,-4.0153 -11.88646,-1.3792 -25.02194,-2.5596 -67,-6.021 -10.175,-0.839 -23,-1.9743 -28.5,-2.5229 -5.49999,-0.5487 -16.29999,-1.4339 -23.99999,-1.9671 -7.7,-0.5332 -20.68908,-1.4445 -28.86462,-2.0251 -8.175536,-0.5806 -19.650536,-1.9629 -25.499998,-3.0717 -5.849461,-1.1088 -17.302847,-2.2729 -25.451968,-2.5868 -16.037973,-0.6178 -17.694867,-1.1913 -17.669761,-6.1161 0.03929,-7.7066 1.792457,-8.9644 17.63798,-12.6548 5.966601,-1.3896 14.448365,-3.8642 18.848365,-5.499 4.4,-1.6349 16.55,-5.2598 27,-8.0554 10.450002,-2.7955 22.825002,-6.1516 27.500002,-7.4579 4.675,-1.3063 11.875,-2.894 16,-3.5282 4.125,-0.6342 10.23356,-1.7651 13.57457,-2.5131 3.34101,-0.748 12.56601,-2.0475 20.5,-2.8876 7.93398,-0.8402 20.95042,-2.2167 28.92542,-3.059 16.79412,-1.7736 32.46356,-4.5055 49.69718,-8.6644 12.62069,-3.0458 20.26273,-4.1984 55.72398,-8.4044 31.56112,-3.7435 63.83006,-8.9919 75.57884,-12.2927 5.775,-1.6224 15.64707,-4.3859 21.93793,-6.141 27.73985,-7.7392 49.89133,-19.8849 66.60241,-36.5182 6.20694,-6.178 10.62804,-12.1074 19.38863,-26.0029 6.24156,-9.89998 14.73193,-22.94998 18.8675,-28.99998 4.13556,-6.05 10.57005,-16.4478 14.29885,-23.1063 3.72881,-6.6585 9.37368,-16.5585 12.54415,-22 15.39007,-26.4142 18.17844,-31.7075 20.29952,-38.5356 5.53976,-17.8335 27.52936,-64.9642 42.39134,-90.8581 6.62916,-11.5499 14.13983,-27.0949 14.97793,-31 0.29509,-1.375 1.4814,-6.775 2.63623,-12 4.7045,-21.2854 9.13139,-44.2818 11.05205,-57.4122 2.71106,-18.53397 4.17602,-24.48921 8.50838,-34.5878 2.00561,-4.675 5.21502,-14.575 7.13202,-22 2.99721,-11.60892 5.69051,-20.36394 13.84334,-45 2.09627,-6.33448 6.34468,-21.13741 8.60994,-30 1.05434,-4.125 2.40785,-8.70829 3.00781,-10.1851 1.1918,-2.93361 5.25383,-4.8149 10.39621,-4.8149 3.94207,0 5.1841,-1.37035 10.42315,-11.5 2.27567,-4.4 5.54797,-10.25 7.27176,-13 1.72379,-2.75 4.64588,-8.06882 6.49352,-11.81961 3.33883,-6.77795 10.11869,-17.30302 20.42822,-31.71284 5.39835,-7.54536 6.92676,-10.56276 12.90018,-25.46755 3.58055,-8.93415 8.55758,-17.86156 17.00372,-30.5 3.12425,-4.675 7.83229,-12.325 10.4623,-17 2.63,-4.675 7.12362,-11.425 9.98581,-15 6.55866,-8.19205 17.22251,-23.72895 21.46343,-31.27157 3.75951,-6.68641 11.75349,-16.95367 24.80333,-31.85677 8.32005,-9.50162 10.93171,-11.68261 26.5,-22.13021 9.49869,-6.37439 22.89534,-14.83831 29.77034,-18.80872 6.875,-3.97041 21.05,-12.93582 31.5,-19.92314 25.94763,-17.34969 43.51109,-27.47087 76.19563,-43.90876 39.049,-19.63872 70.2418,-31.81314 106.6274,-41.61621 7.2473,-1.9526 17.002,-4.64784 21.677,-5.98941 4.675,-1.34158 15.475,-3.81606 24,-5.49884 8.525,-1.68278 22.4059,-4.85064 30.8465,-7.03969 25.3033,-6.56239 30.3792,-7.26446 54.6535,-7.55936 12.1,-0.147 32.35,-0.56883 45,-0.93741 19.6407,-0.57225 25.9265,-0.36266 43.0369,1.43498 12.6082,1.32464 26.7477,2.10511 38.1377,2.10511 17.9779,0 18.1441,0.0202 24.4631,2.9707 3.4993,1.63388 13.3373,4.74492 21.8623,6.91341 8.525,2.1685 20.9,5.52567 27.5,7.46038 6.6,1.93471 16.725,4.74229 22.5,6.23907 15.1222,3.9194 41.9408,13.69165 50.4198,18.37217 6.4756,3.57459 24.4975,11.83024 40.8309,18.70413 3.1628,1.33109 11.2628,3.49261 18,4.80338 14.8056,2.88056 15.4938,3.1253 38.7493,13.77961 18.2536,8.36274 38.8622,16.51399 52.4806,20.75745 7.9862,2.48848 25.1287,10.84959 37.3906,18.23699 7.2579,4.37267 20.1616,9.76271 23.3717,9.76271 1.8115,0 26.6791,10.96232 40.0613,17.66012 16.8459,8.4314 20.8857,9.82701 35.4983,12.26369 7.0722,1.1793 15.3625,3.30596 19.5,5.0022 3.9586,1.62291 10.5725,4.35651 14.6975,6.07467 11.9071,4.95962 26.6923,8.98232 36.907,10.04152 5.1867,0.53784 13.517,2.09804 18.5117,3.46713 10.9706,3.00711 17.8944,3.11759 31.0813,0.49595 5.5,-1.09344 14.95,-2.28161 21,-2.64039 10.1828,-0.60387 11.5943,-0.94871 19,-4.64186 11.4369,-5.70348 16.7616,-9.42644 27.323,-19.10386 8.611,-7.89031 9.9474,-8.73428 17.5,-11.05188 10.4751,-3.21441 15.349,-6.58532 32.3152,-22.3498 7.624,-7.08394 18.1011,-16.67344 23.2825,-21.31 6.8058,-6.09021 11.521,-11.48019 16.9877,-19.4188 5.5649,-8.08134 11.96,-15.3542 24.171,-27.48869 16.6661,-16.56174 24.0823,-25.45602 28.5224,-34.20697 1.7318,-3.41313 4.4556,-6.23586 9.9093,-10.26905 6.9496,-5.13945 10.128,-8.74944 19.0829,-21.67415 3.7461,-5.40689 16.0123,-14.78786 27.0528,-20.68956 4.4651,-2.38685 11.8838,-7.47293 16.4858,-11.30241 5.5296,-4.60131 12.098,-8.79227 19.3674,-12.35734 6.05,-2.96706 15.9388,-8.39053 21.9752,-12.052154 11.5969,-7.0347 29.1542,-16.12981 37.8329,-19.59839 4.6133,-1.8438 8.8824,-3.13086 28.1919,-8.49936 9.8627,-2.74206 43.4462,-8.36436 67.5,-11.30034 13.475,-1.64474 36.5187,-4.8039 51.2081,-7.02036 14.6895,-2.21676 29.4007,-4.03022 32.6916,-4.03022 11.9739,0 51.3603,5.25935 64.4249,8.6028 3.2035,0.81984 12.2035,2.78682 20,4.37107 9.5883,1.94836 22.2652,5.70047 39.1754,11.59517 13.75,4.79309 31.075,10.65671 38.5,13.03025 15.6961,5.01757 46.1105,17.171584 53.8281,21.510454 2.9304,1.64752 9.0228,5.81461 13.5387,9.2602 4.5159,3.4456 12.6932,8.89073 18.1719,12.1003 5.4787,3.20956 13.2353,8.45452 17.2368,11.65546 4.0015,3.20094 9.4015,7.03957 12,8.5303 9.3179,5.34562 13.3455,8.82504 19.4163,16.77352 3.3902,4.43877 8.1327,10.42001 10.5388,13.29165 2.4061,2.87164 6.2807,8.95628 8.6101,13.52141 5.2604,10.30929 14.2612,24.20415 19.271,29.74942 4.9906,5.52394 13.13,11.24862 29.7781,20.94382 15.1376,8.81553 19.5674,12.23723 25.518,19.71093 10.2623,12.88892 12.6725,25.07161 11.742,59.35325 -0.7556,27.83909 -2.4052,36.8561 -11.4338,62.5 -11.1457,31.65687 -11.3012,31.92262 -22.716,38.80909 -3.3,1.99087 -9.2438,6.52548 -13.2084,10.07692 -5.7963,5.19225 -10.3997,8.01771 -23.5,14.42361 -18.6426,9.11606 -27.5704,12.21965 -43.7916,15.22336 -6.325,1.17121 -14.0733,2.99292 -17.2185,4.04825 -3.1451,1.05532 -6.7451,1.91913 -8,1.91956 -4.1962,10e-4 -14.1998,5.71178 -22.6318,12.91889 -4.5927,3.92551 -9.7677,7.72717 -11.5,8.44814 -2.6976,1.12269 -27.6278,6.2231 -40.1497,8.21415 -10.5136,1.67171 -28.6774,13.32296 -33.1479,21.2629 -1.4416,2.56032 -4.521,7.5902 -6.8432,11.17751 -7.7616,11.99013 -8.6291,14.32357 -12.5436,33.73852 -2.1225,10.52729 -2.7562,11.68457 -8.9699,16.38111 -5.5312,4.18072 -6.2089,5.54672 -15.0723,30.37859 -5.0293,14.09052 -10.8984,27.64284 -19.9122,45.9794 -12.8224,26.0846 -19.6756,37.9769 -29.3899,51 -2.8718,3.85 -6.9341,10.15 -9.0274,14 -2.0932,3.85 -8.152,13.3 -13.464,21 -5.312,7.7 -12.3518,17.9336 -15.6439,22.7414 -10.1209,14.7805 -42.6334,60.4957 -49.1507,69.11 -3.3907,4.4817 -10.7317,14.6736 -16.3133,22.6486 -5.5815,7.975 -13.2526,18.775 -17.0468,24 -3.7942,5.225 -9.237,13.775 -12.0952,19 -2.8582,5.225 -7.9896,13.55 -11.403,18.5 -7.8607,11.3992 -10.6104,16.8707 -13.9023,27.6632 -1.451,4.7569 -7.5607,18.5954 -13.5772,30.7522 -6.0164,12.1568 -12.5816,26.93658 -14.5893,32.84388 -4.4679,13.1461 -4.2709,12.7688 -11.8462,22.697 -4.5651,5.9832 -6.6408,9.7714 -7.9808,14.5651 -2.0583,7.3636 -7.7475,21.8855 -12.9424,33.0357 -1.9364,4.1564 -4.628,12.0314 -5.9813,17.5 -1.3533,5.4686 -3.6632,12.6429 -5.1331,15.9429 -1.4699,3.3 -4.6171,13.65 -6.9938,23 -2.5336,9.9675 -7.0669,23.9729 -10.9585,33.856 -10.3469,26.2771 -13.5817,39.2886 -15.5738,62.644 -1.5408,18.0639 -1.2763,26.2295 1.078,33.2815 3.7959,11.3706 8.602,18.5721 19.3463,28.9893 11.9061,11.5434 17.5878,14.6391 38.28,20.857 7.5887,2.2804 17.1727,5.6068 21.2977,7.3919 9.5789,4.1454 12.8478,5.1109 21.7719,6.4302 7.7562,1.1466 8.0791,1.2509 27.2281,8.7923 16.2166,6.3866 18.173,7.4543 24.0646,13.1331 4.6918,4.5222 4.9354,5.018 4.9354,10.0446 0,4.1466 -0.7856,6.7827 -3.6408,12.216 -2.0024,3.8106 -4.8807,7.8113 -6.3964,8.8906 -1.5156,1.0792 -7.6228,3.1351 -13.5716,4.5687 -11.9842,2.888 -14.8526,2.8814 -36.6031,-0.084 -10.5881,-1.4435 -15.0439,-1.5706 -26.6698,-0.7611 -17.4387,1.2143 -18.7704,1.8948 -25.273,12.9131 -5.6241,9.5298 -8.8713,11.611 -20.8453,13.3599 -4.125,0.6026 -14.475,2.5133 -23,4.2461 -13.061,2.6548 -18.0177,3.1816 -31.5,3.3481 -8.8,0.1087 -17.575,-0.1612 -19.5,-0.5997 z"
       id="path1" />
  </g>
</svg>
