<?xml version="1.0" encoding="UTF-8" standalone="no"?>
<!-- Created with Inkscape (http://www.inkscape.org/) -->

<svg
   version="1.1"
   id="svg1"
   width="1856"
   height="2304"
   viewBox="0 0 1856 2304"
   sodipodi:docname="silueta_tiuque.svg"
   inkscape:version="1.4.2 (ebf0e940d0, 2025-05-08)"
   xmlns:inkscape="http://www.inkscape.org/namespaces/inkscape"
   xmlns:sodipodi="http://sodipodi.sourceforge.net/DTD/sodipodi-0.dtd"
   xmlns="http://www.w3.org/2000/svg"
   xmlns:svg="http://www.w3.org/2000/svg">
  <defs
     id="defs1" />
  <sodipodi:namedview
     id="namedview1"
     pagecolor="#ffffff"
     bordercolor="#000000"
     borderopacity="0.25"
     inkscape:showpageshadow="2"
     inkscape:pageopacity="0.0"
     inkscape:pagecheckerboard="0"
     inkscape:deskcolor="#d1d1d1"
     inkscape:zoom="0.32638889"
     inkscape:cx="926.80851"
     inkscape:cy="1152"
     inkscape:window-width="1829"
     inkscape:window-height="961"
     inkscape:window-x="0"
     inkscape:window-y="0"
     inkscape:window-maximized="1"
     inkscape:current-layer="g1" />
  <g
     inkscape:groupmode="layer"
     inkscape:label="Image"
     id="g1">
    <path
       style="fill:#000000"
       d="m 1148.9679,2288.9751 c -0.068,-7.2272 -4.5177,-24.1412 -6.5574,-24.9239 -0.6674,-0.2561 -3.1697,0.5734 -5.5605,1.8434 -3.6768,1.9531 -5.6804,2.2833 -12.9964,2.1414 -8.8704,-0.172 -14.5558,-2.0319 -18.6535,-6.1024 -5.2895,-5.2544 -10.6876,-8.2085 -14.9997,-8.2085 -2.4248,0 -7.1463,-0.7094 -10.4923,-1.5764 -12.7194,-3.296 -50.4512,-23.5931 -55.7679,-29.9994 -1.9279,-2.3229 -5.8933,-4.1011 -10.9371,-4.9045 -5.6076,-0.8932 -16.13908,-5.9387 -19.63738,-9.4079 -1.4485,-1.4365 -3.7124,-4.2311 -5.0308,-6.2103 -1.3184,-1.9791 -3.4904,-4.1836 -4.8267,-4.8987 -2.5473,-1.3633 -4.4932,-0.9623 -19.5051,4.0196 -5.2611,1.7459 -19.4329,4.1362 -32.7363,5.5214 -4.1846,0.4358 -8.4612,1.7899 -13,4.1164 -12.1334,6.2195 -31.254,8.3646 -39.7637,4.461 -5.4541,-2.502 -9.3208,-6.6491 -10.107,-10.84 -0.667,-3.5553 0.038,-13.6348 1.1577,-16.5528 0.9628,-2.5089 -6.4934,-4.2358 -18.0507,-4.1808 -8.2728,0.039 -10.95,0.4603 -15.5,2.4367 -11.8743,5.158 -22.0896,13.7894 -29.3133,24.768 -3.9821,6.0519 -4.154,6.1801 -5.3649,4 -2.7523,-4.9554 -0.6562,-14.8463 5.8316,-27.5171 7.9502,-15.5269 21.8554,-25.4716 42.4513,-30.3601 16.8582,-4.0013 15.7368,-3.3801 21.2287,-11.759 11.1742,-17.0484 29.8548,-29.1831 48.0615,-31.2202 10.3588,-1.159 12.7637,-1.7613 16.9785,-4.2525 3.2795,-1.9383 4.9132,-2.1242 17.0725,-1.9427 13.0572,0.1949 13.5688,0.1226 17.6946,-2.5 3.6414,-2.3146 4.3478,-3.3314 4.9419,-7.1127 0.7048,-4.4855 0.4509,-6.1462 -3.9114,-25.588 -1.3575,-6.05 -3.4394,-15.725 -4.6264,-21.5 -1.1871,-5.775 -2.6592,-12.075 -3.2714,-14 -0.9891,-3.1102 -3.7958,-15.211 -5.4506,-23.5 -0.3294,-1.65 -0.9136,-3.225 -1.2981,-3.5 -0.3846,-0.275 -1.1664,-2.75 -1.7374,-5.5 -1.4447,-6.9577 -10.4,-38.6599 -14.8303,-52.5 -2.0247,-6.325 -4.1192,-13.3 -4.6544,-15.5 -0.5352,-2.2 -1.3605,-4.9 -1.8339,-6 -0.8824,-2.0505 -4.5337,-13.3087 -10.0539,-31 -1.7162,-5.5 -4.8176,-14.95 -6.8921,-21 -2.0744,-6.05 -5.451,-16.4 -7.5035,-23 -7.5066,-24.1387 -18.8853,-59.1561 -21.1214,-65 -1.2627,-3.3 -3.2785,-9.3152 -4.4797,-13.3671 l -2.1838,-7.3671 -2.3664,3.0236 c -1.5538,1.9854 -2.9919,2.8601 -4.1879,2.5474 -1.3869,-0.3627 -2.2031,0.4948 -3.4202,3.5934 -1.1562,2.9433 -2.1746,4.0698 -3.6792,4.0698 -1.1442,0 -2.0987,-0.3375 -2.121,-0.75 -0.022,-0.4125 -1.3428,-2.2726 -2.9343,-4.1335 l -2.8936,-3.3835 -7.1412,7.3835 c -3.9276,4.0609 -8.292,9.071 -9.6986,11.1335 -1.4066,2.0625 -2.9477,3.75 -3.4246,3.75 -1.146,0 -1.1092,-6.669 0.059,-10.7431 0.5095,-1.7765 0.591,-3.4372 0.1812,-3.6904 -1.1387,-0.7038 -9.6067,6.5508 -11.5357,9.8827 -1.3446,2.3226 -1.8944,2.6469 -2.587,1.5263 -0.7226,-1.1692 -1.3348,-0.9953 -3.4321,0.975 -2.51,2.358 -2.5527,2.3627 -2.5527,0.2828 0,-1.1634 0.45,-2.3934 1,-2.7333 1.628,-1.0061 1.1387,-2.4904 -0.6009,-1.8229 -0.8818,0.3384 -1.9885,-0.013 -2.4637,-0.7814 -0.6669,-1.079 -1.7869,-0.3745 -4.9354,3.1043 -3.256,3.5976 -4.2537,4.2072 -4.9753,3.0398 -0.7787,-1.2598 -1.16,-1.2273 -2.7773,0.2363 -2.1299,1.9275 -4.2474,0.693 -4.2474,-2.4761 0,-0.99 -0.2844,-1.8 -0.632,-1.8 -1.6408,0 -7.6521,4.5213 -10.329,7.7688 -3.4436,4.1778 -4.9147,3.8252 -2.6127,-0.6262 2.1125,-4.0853 2.0859,-4.1426 -1.9263,-4.1426 -3.422,0 -4.5763,-1.2168 -2.419,-2.5501 0.5946,-0.3675 1.9081,-2.028 2.9189,-3.6901 1.461,-2.4025 1.6165,-3.5076 0.7584,-5.3909 -0.5936,-1.3029 -1.6821,-2.3689 -2.4188,-2.3689 -1.6644,0 -1.745,-2.1945 -0.1395,-3.8 1.7272,-1.7272 -0.9938,-1.5328 -4.2,0.3 -1.375,0.786 -3.4763,1.4451 -4.6696,1.4646 -2.1283,0.035 -2.1396,-0.041 -0.594,-3.9754 1.7685,-4.5022 1.1278,-6.01 -1.7819,-4.1929 -1.2143,0.7584 -1.9545,0.8312 -1.9545,0.1923 0,-1.6569 6.1256,-10.6993 11.9881,-17.6964 1.7705,-2.1132 1.1986,-4.1538 -1.003,-3.5781 -2.67,0.6983 -1.8072,-1.6221 1.5372,-4.1336 1.3627,-1.0234 2.4777,-2.3027 2.4777,-2.843 0,-0.6285 -0.4503,-0.6384 -1.25,-0.027 -0.6875,0.5251 -2.825,1.5716 -4.75,2.3255 -1.925,0.7539 -5.255,2.6293 -7.4,4.1676 -3.7863,2.7153 -6.6,3.5848 -6.6,2.0395 0,-0.4165 2.4966,-3.6199 5.5479,-7.1187 3.0514,-3.4987 5.3461,-6.5632 5.0995,-6.8099 -0.2467,-0.2466 -2.7283,0.7068 -5.5147,2.1188 -5.1296,2.5993 -8.1327,3.2438 -8.1327,1.7453 0,-0.452 1.3375,-2.5895 2.9722,-4.75 3.8237,-5.0536 3.8074,-6.1961 -0.081,-5.6255 -2.8488,0.4181 -3.0484,0.2669 -2.3894,-1.8093 0.6539,-2.0602 0.4761,-2.2047 -1.9606,-1.5931 -2.1901,0.5497 -2.646,0.3462 -2.4954,-1.1138 0.364,-3.5312 -0.084,-4.2864 -2.5462,-4.2864 -3.2919,0 -3.1774,-1.5789 0.25,-3.4494 3.4045,-1.8579 11.8578,-10.2761 11.0901,-11.0439 -0.3095,-0.3095 -1.8234,-0.083 -3.3642,0.5025 -1.8758,0.7132 -3.1334,0.7332 -3.8059,0.061 -0.6725,-0.6725 -0.4535,-1.2157 0.6628,-1.6441 1.655,-0.6351 2.3798,-3.4258 0.8897,-3.4258 -0.4276,0 -1.8436,0.7468 -3.1467,1.6595 -2.2247,1.5583 -2.4509,1.5479 -3.7066,-0.1694 -1.2926,-1.7676 -1.4081,-1.7648 -3.4497,0.083 -1.4142,1.2798 -3.7929,1.9724 -7.1961,2.0954 -3.4429,0.1245 -7.0075,1.176 -11.044,3.2577 -3.2782,1.6907 -6.386,3.074 -6.9063,3.074 -1.4364,0 -9.7731,6.2065 -9.7731,7.2758 0,1.1992 -12.0212,16.5843 -15.0209,19.2242 -3.2161,2.8304 -19.9791,22.4765 -19.9791,23.4154 0,0.4284 -0.9102,1.1852 -2.0227,1.6818 -2.9244,1.3052 -22.8374,19.2829 -33.9527,30.6528 -5.2424,5.3625 -10.205,9.7625 -11.0281,9.7778 -0.823,0.015 -3.2641,1.3653 -5.4246,3 -2.3757,1.7975 -5.1412,2.9722 -6.9976,2.9722 -2.6837,0 -6.1806,3.1413 -27.8305,25 -13.6185,13.75 -25.48222,25 -26.36368,25 -1.30771,0 -1.47438,-0.6838 -0.90563,-3.7154 0.38336,-2.0435 1.36662,-5.0104 2.18502,-6.593 0.81841,-1.5826 1.26145,-3.104 0.98455,-3.3809 -1.11504,-1.1151 -9.87436,6.2196 -23.14401,19.3798 -7.7,7.6365 -16.7,16.1055 -20,18.82 -3.3,2.7145 -7.83674,6.5226 -10.08163,8.4624 -2.2449,1.9399 -5.1699,4.3871 -6.5,5.4383 -1.33011,1.0511 -4.89337,4.0079 -7.91837,6.5706 -3.025,2.5626 -12.025,9.3801 -20,15.1498 -28.1137,20.3396 -27.40044,19.8992 -33.18168,20.4897 -2.92508,0.2988 -6.58086,1.0212 -8.12396,1.6054 -1.94988,0.7381 -3.12418,0.7435 -3.85,0.018 -1.42251,-1.4225 -1.32162,-7.9644 0.15018,-9.7378 0.65699,-0.7917 1.00893,-1.9962 0.78207,-2.6767 -0.3995,-1.1986 -4.41079,3.7903 -12.19748,15.1701 -2.06988,3.025 -4.41472,6.175 -5.21076,7 -1.81109,1.877 -8.60493,10.9358 -13.86837,18.4919 -2.2,3.1583 -5.71862,7.7779 -7.81914,10.2659 -2.10053,2.488 -4.56129,5.6978 -5.46835,7.1329 -0.90706,1.4351 -3.90619,4.9908 -6.66473,7.9015 -2.75853,2.9107 -5.43814,6.0607 -5.95467,7 -0.51654,0.9393 -4.5738,6.0472 -9.01614,11.351 -4.44233,5.3038 -8.75197,10.5381 -9.57697,11.6319 -0.825,1.0937 -4.3611,5.179 -7.858,9.0783 -9.91021,11.0506 -10.04588,11.2122 -16.00873,19.0708 -9.08434,11.9724 -26.45676,37.546 -31.63943,46.5758 -1.57837,2.75 -6.73108,10.4 -11.45047,17 -4.71939,6.6 -9.62472,13.6927 -10.90074,15.7616 -1.27602,2.0688 -3.82451,5.5622 -5.66331,7.7631 -2.9153,3.4894 -11.05156,15.0175 -13.97932,19.807 -0.9236,1.5109 -6.20882,8.8205 -20.4391,28.268 -3.0585,4.1798 -8.14107,11.1548 -11.29462,15.5 -6.19893,8.5413 -10.26325,11.8309 -15.81048,12.7967 -2.46981,0.43 -5.0465,2.1477 -8.5,5.6665 -2.72569,2.7773 -9.2308,7.9297 -14.4558,11.4498 -5.225,3.5201 -11.3,7.7544 -13.5,9.4095 -2.2,1.6552 -6.03454,4.1052 -8.52119,5.4445 -2.48666,1.3393 -6.68387,4.2222 -9.32714,6.4065 -7.8698,6.5032 -8.91553,6.8449 -13.07755,4.2726 -1.96761,-1.216 -3.83373,-3.232 -4.14692,-4.4798 -1.24895,-4.9762 4.6323,-18.9672 12.25787,-29.1604 1.27321,-1.7019 2.31493,-3.5537 2.31493,-4.1151 0,-0.5614 0.93266,-2.2065 2.07258,-3.6556 1.13992,-1.4492 1.60908,-2.6349 1.04259,-2.6349 -0.56649,0 -3.62992,3.2625 -6.80762,7.25 -3.1777,3.9875 -10.95937,12.4558 -17.29259,18.8184 -6.33323,6.3627 -13.53996,13.8987 -16.01496,16.7469 -2.475,2.8481 -5.29924,5.4389 -6.27609,5.7572 -0.97685,0.3184 -5.6298,3.729 -10.33989,7.5791 -4.71009,3.8501 -10.652461,8.1108 -13.205281,9.4682 -4.35062,2.3132 -4.72098,2.3591 -5.91011,0.7329 -0.69775,-0.9542 -1.26863,-2.3268 -1.26863,-3.0501 0,-1.085 3.82482,-8.1971 12.8008,-23.8026 3.948101,-6.8641 16.851281,-29.6614 18.677851,-33 5.51049,-10.072 7.87641,-14.1106 9.08136,-15.5018 0.71543,-0.826 1.78103,-2.626 2.368,-4 0.58696,-1.374 1.49685,-3.1732 2.02197,-3.9982 1.76264,-2.7693 9.07226,-19.3111 8.69848,-19.6849 -0.20326,-0.2032 -1.65416,1.3302 -3.22422,3.4077 -1.57006,2.0775 -5.1291,6.4772 -7.90898,9.7772 -2.77988,3.3 -6.12703,7.8 -7.43811,10 -2.54699,4.2738 -6.28427,8.436 -15.06916,16.7822 -3.0206,2.8698 -9.770601,9.2876 -15.000001,14.2619 -17.24675,16.4052 -20.00799,18.4479 -20.00799,14.8009 0,-1.4956 -0.16854,-1.5068 -1.75,-0.1165 -0.9625,0.8462 -3.6968,2.5175 -6.07621,3.7142 -4.5398,2.2831 -7.17379,1.661 -7.17379,-1.6944 0,-1.7862 11.99078,-24.8803 16.12077,-31.0484 1.58357,-2.3651 2.87923,-4.5606 2.87923,-4.8788 0,-0.3183 1.59758,-2.4332 3.55019,-4.6999 4.41838,-5.129 4.11507,-4.7045 9.37512,-13.1212 2.40608,-3.85 5.43897,-8.35 6.73976,-10 3.33211,-4.2266 3.20222,-4.0414 9.818691,-14 3.28878,-4.95 6.32405,-9.45 6.74506,-10 0.421,-0.55 2.54543,-3.475 4.72096,-6.5 2.17552,-3.025 4.32581,-5.95 4.77841,-6.5 0.77723,-0.9445 3.38366,-5.2467 7.27006,-12 0.94954,-1.65 4.26338,-7.149 7.36409,-12.2199 3.10071,-5.071 5.63766,-9.5356 5.63766,-9.9213 0,-0.3857 0.7204,-1.4974 1.60089,-2.4703 1.47675,-1.6318 1.39101,-2.2126 -1.10562,-7.4901 -7.01524,-14.829 -2.91399,-37.4603 13.02943,-71.8984 2.59057,-5.5957 4.4753,-11.1243 4.4753,-13.1277 0,-1.3733 -11.51394,7.0304 -25.5,18.6117 -10.19835,8.4448 -21.93558,17.016 -23.30147,17.016 -0.58126,0 -2.43872,-2.0476 -4.12769,-4.5501 -2.81282,-4.1678 -3.07084,-5.2443 -3.07084,-12.8117 0,-8.1607 2.55733,-20.6909 5.53875,-27.1382 0.76301,-1.65 2.68713,-7.05 4.27584,-12 2.52217,-7.8585 4.73403,-12.9031 8.11154,-18.5 0.49785,-0.825 5.05111,-10.05 10.11836,-20.5 6.12056,-12.6222 10.97471,-21.1819 14.46091,-25.5 2.88625,-3.575 6.16966,-8.3287 7.29646,-10.5637 1.1268,-2.2351 5.92935,-7.8601 10.67233,-12.5 4.74298,-4.64 10.2013,-10.7998 12.12959,-13.6885 7.47413,-11.1966 25.14293,-31.0196 44.02929,-49.3975 5.02319,-4.8879 12.22319,-13.2571 16,-18.5982 3.77681,-5.3411 9.61328,-12.6453 12.96993,-16.2316 7.32411,-7.8251 7.57978,-8.2871 10.40689,-18.8029 1.22467,-4.5552 3.77856,-11.7552 5.67532,-16 1.89676,-4.2447 4.40747,-9.9676 5.57934,-12.7176 6.10753,-14.3323 18.35759,-35.3871 25.30776,-43.4977 2.59109,-3.0237 5.52747,-7.4022 6.52528,-9.73 1.76779,-4.1241 1.76221,-4.4309 -0.21827,-11.9921 -1.11786,-4.2679 -2.40217,-8.2144 -2.85401,-8.77 -1.48583,-1.8271 -5.92495,-21.8941 -6.08565,-27.5102 -0.36295,-12.6842 3.77684,-36.1891 9.07043,-51.5 1.14094,-3.3 3.00217,-8.7 4.13608,-12 1.1339,-3.3 4.53191,-12.75 7.55113,-21 6.41315,-17.5239 8.65818,-24.2956 11.38545,-34.3423 2.05013,-7.5523 8.75047,-21.7325 18.97501,-40.1577 6.42124,-11.5714 9.7001,-19.7674 16.00238,-40 2.31282,-7.425 7.47776,-20.475 11.47765,-29 3.99989,-8.525 8.62041,-19.55 10.26783,-24.5 3.45141,-10.3704 13.82565,-32.0854 26.01763,-54.459 10.09711,-18.5293 26.18945,-42.5912 38.07015,-56.9238 13.10937,-15.8149 14.88682,-18.5901 25.37393,-39.6172 6.97495,-13.9851 16.12645,-35.1233 17.31745,-40 1.53252,-6.2751 12.63871,-36.3284 17.34325,-46.9307 7.07084,-15.9351 20.67682,-43.5569 30.57418,-62.0693 13.82543,-25.8596 45.81224,-90.1965 49.96624,-100.5 5.1747,-12.83503 19.9402,-44.36083 22.3852,-47.79453 1.0846,-1.5231 5.0072,-8.601 8.7169,-15.7287 3.7097,-7.12763 11.4306,-20.31791 17.1576,-29.3117 5.7269,-8.99379 12.0397,-19.34771 14.0285,-23.00872 1.9887,-3.66101 5.7041,-9.80638 8.2564,-13.65638 2.5524,-3.85 7.1425,-11.275 10.2003,-16.5 3.0578,-5.225 7.453,-11.975 9.7671,-15 7.3955,-9.66727 30.4298,-39.96005 33.0195,-43.42448 2.188,-2.92691 16.6079,-21.92348 34.5954,-45.57552 3.1371,-4.125 8.449,-10.42578 11.8042,-14.00174 8.0069,-8.53362 18.56,-20.44782 22.7505,-25.68475 8.3626,-10.4509 16.8688,-20.37345 22.9862,-26.81351 3.657,-3.85 9.955,-10.825 13.9954,-15.5 9.8857,-11.43842 31.1333,-35.32078 36.9216,-41.5 8.8395,-9.43656 35.1276,-41.72636 46.7195,-57.38601 6.4005,-8.64646 13.4319,-17.24685 28.0177,-34.26987 6.7598,-7.88927 14.2122,-16.59412 16.561,-19.34412 2.3487,-2.75 6.243,-7.7 8.654,-11 2.4109,-3.3 6.6955,-8.475 9.5213,-11.5 2.8257,-3.025 8.0188,-9.325 11.5402,-14 3.5213,-4.675 9.5624,-12.1 13.4245,-16.5 3.8621,-4.4 9.2591,-10.7 11.99328,-14 2.7342,-3.3 10.2357,-11.40191 16.6699,-18.00425 11.1572,-11.44872 17.874,-20.26414 30.2881,-39.75163 6.0776,-9.5406 13.5518,-23.55178 13.5551,-25.41079 0,-0.64166 0.3397,-1.31666 0.7522,-1.5 1.5464,-0.68729 6.2579,-12.10548 14.8905,-36.08681 1.337,-3.71441 3.3486,-8.30867 4.4701,-10.20947 1.1215,-1.90079 1.8926,-4.48673 1.7136,-5.74652 -0.2713,-1.90942 -0.8783,-1.33381 -3.6482,3.45947 -5.4863,9.49382 -7.8454,6.94871 -4.5894,-4.95121 0.8727,-3.18933 1.9281,-7.14879 2.3454,-8.79879 0.4174,-1.65 2.2378,-7.725 4.0454,-13.5 1.8077,-5.775 4.2142,-13.65 5.3479,-17.5 1.1337,-3.85 2.4794,-7.5625 2.9904,-8.25 0.6453,-0.86815 0.4335,-1.25 -0.6933,-1.25 -1.0191,0 -1.6184,-0.83675 -1.6116,-2.25 0.013,-2.59327 2.3914,-10.8625 4.3872,-15.25 4.917,-10.80934 6.4642,-15.76979 5.8769,-18.84221 -0.5461,-2.85633 2.7832,-10.75104 8.7116,-20.65779 2.1393,-3.575 4.1913,-7.7375 4.56,-9.25 l 0.6703,-2.75 h -6.6084 c -5.0338,0 -6.6084,-0.33746 -6.6084,-1.41622 0,-2.09141 9.3809,-15.74529 15.1691,-22.07842 2.7673,-3.02795 4.8233,-5.50536 4.5687,-5.50536 -0.2546,0 -2.1616,1.35 -4.2378,3 -2.0763,1.65 -4.1632,3 -4.6375,3 -2.1736,0 -0.4343,-4.21933 4.1577,-10.08611 17.8756,-22.83823 22.533,-27.62773 55.8293,-57.41389 15.3904,-13.76792 15.6995,-14.02053 32.6505,-26.681675 32.8868,-24.56413 60.4175,-41.011428 86,-51.377747 32.4957,-13.167694 41.7834,-15.959593 67.5,-20.290605 30.6352,-5.159401 77.6821,-6.1253965 105.75,-2.171326 3.9875,0.561741 10.2875,1.425843 14,1.920226 21.8829,2.914097 30.7742,4.436982 41.3064,7.074929 23.7668,5.952723 50.9492,14.595927 65.4436,20.809097 20.3414,8.719576 19.5756,8.336486 42.4231,21.224286 9.4845,5.35 18.9239,13.69842 24.0769,21.29407 1.8783,2.76877 3.1961,3.68677 5.2996,3.69191 4.0459,0.01 8.2058,2.4712 10.5338,6.23259 1.1145,1.80083 3.4482,4.624245 5.1858,6.274245 3.6626,3.47788 5.9808,7.5285 5.9808,10.45034 0,1.50356 0.647,2.04966 2.4285,2.04966 2.4185,0 5.5715,2.30408 5.5715,4.07143 0,0.51071 0.6693,0.92857 1.4874,0.92857 0.8181,0 2.5803,1.73117 3.916,3.84705 1.3357,2.11587 5.2788,6.11713 8.7625,8.89168 3.4838,2.77456 8.9839,7.82539 12.2227,11.22408 5.2058,5.46288 13.06,11.15093 27.4691,19.89324 11.441,6.94146 24.1816,17.52137 30.2791,25.14395 5.8703,7.33855 21.8632,34.74446 21.8632,37.46543 0,0.40277 0.6461,2.15032 1.4359,3.88344 4.6645,10.236 8.5551,30.30599 8.5589,44.15113 0.01,19.04763 -6.3156,39.95925 -14.7351,48.75 -4.9409,5.15872 -5.6919,3.85044 -6.6361,-11.56051 -0.3951,-6.44833 -0.9361,-8.41036 -3.102,-11.25 l -2.6235,-3.44079 -13.6991,-0.0562 c -17.2474,-0.0708 -31.6957,-1.27505 -40.6991,-3.39236 -3.85,-0.90538 -9.7,-2.0352 -13,-2.5107 -3.3,-0.4755 -8.925,-1.57254 -12.5,-2.43786 -9.3675,-2.26739 -11.8161,-2.10074 -13.182,0.89712 -1.3077,2.87017 -2.9434,3.07269 -8.6255,1.06795 l -4.0588,-1.43205 -2.6178,3.43205 c -3.1164,4.08579 -4.1809,4.26149 -5.6943,0.93987 -0.9241,-2.02806 -1.4051,-2.26851 -2.5828,-1.2911 -0.7959,0.6606 -1.8839,2.34458 -2.4177,3.74218 -0.9532,2.49571 -0.9964,2.50537 -2.4148,0.5411 -4.9855,-6.90374 -7.5596,-6.82715 -14.4063,0.42867 -2.475,2.62286 -6.6478,6.01068 -9.2729,7.52849 -5.214,3.01472 -6.7271,5.04105 -6.7271,9.00848 0,2.87451 -2.4984,4.43604 -4.2673,2.66714 -1.9693,-1.96929 -3.2537,-1.2597 -6.2231,3.43798 -1.589,2.51392 -4.1411,5.62423 -5.6713,6.91181 -1.5915,1.33915 -3.9198,5.26757 -5.4403,9.17924 -3.6589,9.41279 -4.6043,11.33819 -5.567,11.33819 -0.4571,0 -0.831,-0.9375 -0.831,-2.08333 0,-3.45949 -2.3135,-1.65741 -5.3187,4.14294 -1.5503,2.99222 -4.0751,6.79039 -5.6107,8.44039 -1.5355,1.65 -3.6421,4.49465 -4.6813,6.32144 -1.1716,2.05961 -2.907,3.52634 -4.5682,3.86077 -2.1162,0.42605 -3.0964,1.61862 -4.6676,5.67855 -1.0939,2.82658 -2.27,6.93924 -2.6137,9.13924 -0.3436,2.2 -1.638,8.725 -2.8763,14.5 l -2.2515,10.5 -3.0684,-0.31094 c -2.9123,-0.29511 -3.103,-0.0915 -3.7454,4 -0.4046,2.57721 -1.5068,4.94714 -2.7404,5.89285 -3.3192,2.5444 -6.3534,15.08968 -7.3569,30.41809 -0.4359,6.65831 -1.3567,11.67085 -2.7554,15 -1.8055,4.29756 -2.201,7.95024 -2.8149,26 -0.3929,11.55 -1.2022,22.8 -1.7986,25 -1.4392,5.30903 -1.4294,21.64012 0.015,25.1849 1.6709,4.10051 1.4351,18.89796 -0.4034,25.3151 -1.0135,3.53732 -1.8045,11.9233 -2.2166,23.5 -0.3524,9.9 -1.0401,19.8 -1.5282,22 -0.4881,2.2 -1.5982,14.125 -2.467,26.5 -1.7346,24.71029 -5.3143,60.78646 -9.0295,91 -1.3188,10.725 -2.879,24.675 -3.467,31 -1.5256,16.40784 -3.7659,34.13803 -5.5597,44 -0.8504,4.675 -2.4503,15.25 -3.5553,23.5 -1.1051,8.25 -2.6874,18.825 -3.5162,23.5 -0.8289,4.675 -2.3905,13.675 -3.4702,20 -1.0797,6.325 -2.5824,14.2 -3.3395,17.5 -0.757,3.3 -2.9901,13.2 -4.9625,22 -1.9723,8.8 -4.3005,18.25 -5.1738,21 -0.8732,2.75 -3.5895,13.03369 -6.0362,22.8526 -2.4467,9.819 -5.0755,19.944 -5.8418,22.5 -2.2483,7.4994 -6.2912,25.3262 -10.1253,44.64743 -6.7497,34.0129 -14.1388,58.395 -25.4565,84 -0.4862,1.1 -1.9773,4.7 -3.3135,8 -2.7154,6.7061 -10.3589,23.9171 -11.9909,27 -2.7932,5.2764 -11.8172,23.9106 -15.2546,31.5 -8.9181,19.69 -25.6134,51.3721 -33.1987,63 -4.4848,6.875 -11.6611,18.0383 -15.9475,24.8073 -4.2863,6.7691 -9.4841,14.4191 -11.5508,17 -2.0667,2.581 -4.5417,5.9713 -5.5,7.5341 -0.9583,1.5628 -5.8741,8.3731 -10.9239,15.1341 -5.0498,6.761 -15.9192,22.3573 -24.1543,34.6586 -25.3541,37.8729 -35.4188,50.446 -69.1447,86.3771 -4.1357,4.4062 -9.3717,10.0312 -11.6354,12.5 -3.2172,3.5088 -27.0382,26.3538 -32.8341,31.4888 -16.3286,14.4669 -121.6573,118.0518 -129.0956,126.9584 -2.1749,2.6043 -5.6612,6.604 -7.7473,8.8883 -2.086,2.2843 -4.0589,5.2783 -4.3843,6.6533 -0.3253,1.375 -1.1612,3.175 -1.8576,4 -0.6963,0.825 -2.4826,4.425 -3.9694,8 -2.7406,6.5898 -6.8303,15.2635 -8.4869,18 -1.2819,2.1175 -8.0089,17.6081 -8.0089,18.4426 0,0.38 -1.068,2.1233 -2.3733,3.8741 -2.6014,3.4892 -7.1063,13.5307 -8.093,18.0391 -0.5922,2.7059 -3.7652,6.6989 -11.424,14.376 -1.8646,1.8691 -3.9157,4.8316 -4.558,6.5833 -2.4033,6.5546 -9.90408,21.6849 -10.75028,21.6849 -1.6623,0 -8.8398,7.6523 -10.8193,11.535 -2.7718,5.4368 -2.4983,9.3471 1.5366,21.965 3.7469,11.7177 6.886,21.8203 13.5163,43.5 2.2708,7.425 5.39878,17.55 6.95108,22.5 1.5523,4.95 4.4862,14.4 6.5199,21 2.0337,6.6 4.2936,13.35 5.0221,15 0.7285,1.65 4.5575,12.9 8.509,25 3.9514,12.1 9.2098,27.85 11.6852,35 2.4754,7.15 8.5144,24.7 13.42,39 4.9056,14.3 11.3386,32.075 14.2954,39.5 2.9568,7.425 6.5802,16.6352 8.0519,20.4672 1.4717,3.8319 4.3748,9.9069 6.4512,13.5 2.0765,3.593 6.827,12.3828 10.5566,19.5328 8.9154,17.0915 15.2214,28.0217 17.035,29.5269 0.8071,0.6699 1.4676,1.6651 1.4676,2.2116 0,2.9125 7.7223,11.095 13.8424,14.6673 8.8279,5.1528 12.3277,5.9549 27.3581,6.2697 11.7178,0.2454 12.8786,0.1032 15,-1.8378 6.5098,-5.9559 15.2661,-7.8095 33.0658,-6.9998 18.9937,0.864 23.5481,3.1567 33.5964,16.9121 4.1721,5.7113 4.235,5.75 9.3478,5.75 5.1422,0 9.2258,0.9855 15.7523,3.8017 2.883,1.244 6.9051,1.3806 24.0206,0.8162 12.7074,-0.419 22.6501,-1.2347 26.0371,-2.136 3.0137,-0.802 9.6982,-1.4635 14.8544,-1.47 7.744,-0.01 10.3535,0.4117 15,2.4233 4.9716,2.1523 7.4837,2.4888 21.6251,2.8965 12.3389,0.3557 17.0296,0.8772 20.5,2.2793 5.7843,2.3371 13.6185,6.8952 16.916,9.8422 9.3155,8.3253 13.084,12.1073 13.084,13.1311 0,0.6439 0.6962,1.7486 1.5471,2.4548 4.2551,3.5314 9.8109,21.3495 9.2527,29.6742 -0.297,4.4286 -0.3194,4.4539 -2.3336,2.6292 -1.1186,-1.0134 -5.0545,-5.6863 -8.7464,-10.3843 -8.3245,-10.5929 -17.6009,-17.7837 -26.9011,-20.853 -5.7065,-1.8833 -15.0718,-3.1378 -18.5687,-2.4872 -2.9544,0.5496 -3.2522,0.9355 -3.2739,4.2433 -0.067,10.1918 -4.0416,16.1898 -12.3673,18.6622 -5.6864,1.6887 -14.5345,1.9265 -19.0378,0.5117 -1.6891,-0.5307 -6.5625,-2.1057 -10.8299,-3.5 -7.8281,-2.5578 -19.7519,-3.4494 -22.5332,-1.6849 -1.0196,0.6469 -1.1251,3.8597 -0.5,15.2347 l 0.7921,14.415 5.5,0.2339 c 31.8243,1.3534 48.3014,7.6295 61.0814,23.2661 2.9219,3.575 5.6368,6.7286 6.0331,7.0081 0.3963,0.2794 2.236,3.2044 4.0883,6.5 7.8613,13.987 9.8932,25.9267 4.0993,24.0878 -1.0712,-0.34 -5.1066,-4.3474 -8.9676,-8.9054 -8.4213,-9.9415 -15.2541,-14.7915 -27.8345,-19.7571 -2.8368,-1.1198 -7.9965,-1.8148 -15.3717,-2.0706 l -6.3717,-0.221 -0.3803,4.2229 c -0.5492,6.097 -3.6042,11.3483 -8.5547,14.705 -4.1418,2.8084 -4.7794,2.9288 -15.3216,2.8943 -10.3075,-0.034 -11.5878,-0.2698 -20.3358,-3.75 -10.5496,-4.1969 -17.283,-4.7407 -27.6642,-2.234 -7.9648,1.9232 -16.5109,1.8866 -24.7225,-0.1059 -6.2128,-1.5075 -7.2138,-1.5077 -13.2055,0 -8.7024,2.186 -16.6424,2.0507 -26.1621,-0.4459 -6.2714,-1.6447 -9.5583,-1.947 -15.8673,-1.4593 -4.3765,0.3383 -8.0956,0.7533 -8.2645,0.9222 -0.1689,0.1689 0.7114,3.4131 1.9562,7.2093 1.9616,5.9823 2.2607,8.968 2.2441,22.4022 -0.017,14.097 -0.2321,15.9752 -2.3719,20.75 -2.0488,4.5715 -2.7246,5.25 -5.2297,5.25 -2.6514,0 -2.8796,-0.2938 -2.912,-3.75 z m 131.7026,-101.9094 c 1.9596,-0.4665 2.0643,-0.8191 1.0917,-3.6783 -2.0106,-5.9105 -7.1827,-12.7048 -11.6867,-15.3523 -5.1773,-3.0431 -16.2618,-4.3494 -19.9875,-2.3554 -2.2118,1.1837 -2.1702,1.2777 3.0865,6.9712 2.9307,3.1742 6.8456,7.6741 8.6997,9.9998 1.8541,2.3257 4.3291,4.633 5.5,5.1273 1.9756,0.8342 8.2002,0.5007 13.2963,-0.7123 z"
       id="path1" />
  </g>
</svg>
