<?xml version="1.0" encoding="UTF-8" standalone="no"?>
<!-- Created with Inkscape (http://www.inkscape.org/) -->

<svg
   version="1.1"
   id="svg1"
   width="2592"
   height="1632"
   viewBox="0 0 2592 1632"
   sodipodi:docname="silueta_ranadedarwin.svg"
   inkscape:version="1.4.2 (ebf0e940d0, 2025-05-08)"
   xmlns:inkscape="http://www.inkscape.org/namespaces/inkscape"
   xmlns:sodipodi="http://sodipodi.sourceforge.net/DTD/sodipodi-0.dtd"
   xmlns="http://www.w3.org/2000/svg"
   xmlns:svg="http://www.w3.org/2000/svg">
  <defs
     id="defs1" />
  <sodipodi:namedview
     id="namedview1"
     pagecolor="#ffffff"
     bordercolor="#000000"
     borderopacity="0.25"
     inkscape:showpageshadow="2"
     inkscape:pageopacity="0.0"
     inkscape:pagecheckerboard="0"
     inkscape:deskcolor="#d1d1d1"
     inkscape:zoom="0.40509259"
     inkscape:cx="1296"
     inkscape:cy="817.09714"
     inkscape:window-width="1829"
     inkscape:window-height="961"
     inkscape:window-x="0"
     inkscape:window-y="0"
     inkscape:window-maximized="1"
     inkscape:current-layer="g1" />
  <g
     inkscape:groupmode="layer"
     inkscape:label="Image"
     id="g1">
    <path
       style="fill:#000000"
       d="m 1788.0072,1597.2535 c -1.375,-0.2506 -8.575,-3.2862 -16,-6.7459 -13.4176,-6.2518 -22.1052,-9.5361 -35.5,-13.4204 -3.85,-1.1165 -9.475,-3.5951 -12.5,-5.508 -9.4615,-5.9832 -12.335,-7.3335 -18,-8.459 -8.9962,-1.7874 -31.1904,-3.0642 -71.5,-4.1134 -62.1974,-1.6188 -105.1775,-3.0847 -119,-4.0586 -16.9594,-1.1948 -80.048,-10.3542 -93.4335,-13.5649 -18.1779,-4.3602 -29.8267,-11.3969 -53.7231,-32.4527 l -10.1565,-8.9492 h -7.1923 c -4.583,0 -8.4413,-0.5927 -10.6349,-1.6336 -1.8934,-0.8985 -8.9364,-7.4692 -15.6511,-14.6017 -6.7147,-7.1325 -17.3836,-17.3708 -23.7086,-22.7518 -14.0233,-11.9305 -25.81,-24.0236 -33.1512,-34.0129 -7.1595,-9.7421 -35.0951,-37.7727 -38.4952,-38.6261 -3.6183,-0.9081 -14.2567,1.1489 -31.9841,6.1844 -23.3798,6.641 -45.5987,10.8187 -71.3695,13.4192 -36.0328,3.636 -157.08478,1.5438 -200.99998,-3.4738 -6.875,-0.7856 -17.675,-1.9128 -24,-2.5049 -13.0312,-1.2201 -13.6499,-1.3001 -58.00003,-7.5089 -17.875,-2.5024 -41.64844,-6.3346 -52.82986,-8.5161 -44.74937,-8.7305 -52.59945,-8.6276 -73.46276,0.9625 -3.73594,1.7172 -7.06913,3.8428 -7.40709,4.7235 -0.33796,0.8808 0.19816,3.1103 1.19137,4.9546 2.44225,4.535 8.39699,6.6874 31.50834,11.3893 19.5232,3.9718 21.18862,4.4019 46.50679,12.0107 8.80374,2.6457 22.07874,5.7823 29.5,6.9701 44.38627,7.1045 50.28368,8.6475 69.22964,18.1141 17.4208,8.7046 47.7222,27.1026 56.7788,34.4743 4.2312,3.444 14.3702,11.1144 22.5311,17.0454 22.4614,16.324 25.4309,19.8528 25.4481,30.2417 0.01,4.4795 -5.4762,14.5673 -9.9016,18.215 -3.2846,2.7075 -4.1588,2.925 -11.7553,2.925 -9.4288,0 -21.4028,-2.2509 -25.8115,-4.8522 -1.6643,-0.982 -10.1164,-7.7069 -18.7823,-14.9442 -8.666,-7.2373 -17.0228,-13.8137 -18.5706,-14.6141 -3.7346,-1.9312 -15.5472,-4.8601 -32.60637,-8.0847 -7.66328,-1.4485 -16.45513,-3.6951 -19.53745,-4.9925 -5.77829,-2.432 -14.88424,-3.9165 -30.52931,-4.977 -13.91629,-0.9432 -19.27116,-2.1675 -41.93293,-9.5872 -22.78358,-7.4595 -30.11892,-8.7812 -60.56707,-10.9131 -26.38642,-1.8475 -71.66026,-0.5779 -91.35577,2.5619 -7.65433,1.2202 -9.71221,7.3359 -5.51945,16.4031 4.25947,9.2114 5.87522,15.3136 5.87522,22.1887 0,16.7445 -8.01465,21.6173 -31.06351,18.8862 -13.45401,-1.5941 -19.91661,-4.9435 -28.66116,-14.8541 -15.79524,-17.9014 -25.99298,-26.2413 -36.77533,-30.0754 -5.07483,-1.8045 -33.60179,-7.2988 -57.5,-11.0743 -3.575,-0.5648 -21.8,-1.9411 -40.5,-3.0585 -18.7,-1.1173 -39.625,-2.6953 -46.5,-3.5067 -17.56382,-2.0728 -53.08334,-8.881 -68.5,-13.1297 -7.15,-1.9705 -17.275,-4.6859 -22.5,-6.0341 -15.70313,-4.052 -24.91209,-9.3043 -51.5,-29.3732 -32.29105,-24.3736 -37.46739,-28.7789 -46.27517,-39.382 -4.15153,-4.9978 -16.20671,-17.6369 -26.78929,-28.0869 -20.18906,-19.9361 -23.31533,-23.9537 -36.05381,-46.3333 -3.23495,-5.6833 -8.64609,-13.4072 -12.02475,-17.1643 -8.05348,-8.9555 -11.07152,-13.4545 -17.10779,-25.5024 -12.216048,-24.3824 -18.056738,-38.824 -21.637118,-53.5 -1.9456,-7.975 -7.37123,-27.2029 -12.05696,-42.7286 -9.70108,-32.1437 -15.03813,-56.7073 -16.57184,-76.2714 -1.20418,-15.3605 -2.55365,-25.071 -4.58048,-32.9601 -2.09896,-8.1698 -1.82012,-21.9025 0.5836,-28.7415 2.84104,-8.0833 5.92784,-12.1257 20.04874,-26.2554 6.89433,-6.8987 18.31411,-19.29298 25.377298,-27.54298 32.81492,-38.3287 33.64156,-39.1091 50.31275,-47.4964 29.82651,-15.0059 64.96916,-19.6096 110.27482,-14.4463 20.32222,2.316 24.61619,2.0506 30.51335,-1.8864 2.74266,-1.831 9.48665,-5.6717 14.98665,-8.5348 6.41794,-3.341 13.94027,-8.4772 21,-14.3387 13.32956,-11.0672 25.88211,-19.4053 42.48486,-28.221 6.86667,-3.646 14.24028,-8.3048 16.3858,-10.3528 4.63762,-4.4268 29.54965,-35.4587 45.93838,-57.2236 31.18802,-41.41895 43.83232,-57.47914 57.10943,-72.53766 5.98033,-6.78273 11.1311,-13.91637 14.6004,-20.22108 2.94819,-5.35769 9.56775,-15.95277 14.71013,-23.54461 5.14238,-7.59184 12.61667,-19.06684 16.60954,-25.5 3.99286,-6.43316 11.73764,-17.86519 17.21061,-25.40452 5.47297,-7.53932 17.60085,-25.67929 26.95085,-40.31103 28.35464,-44.37195 31.8552,-49.60034 40.15901,-59.9811 12.13215,-15.16665 31.00323,-35.81602 53.00514,-58 16.90204,-17.04191 21.01909,-20.65328 27.83585,-24.41692 4.4,-2.42931 15.425,-8.64888 24.5,-13.82128 18.15339,-10.34674 46.84798,-24.76587 57,-28.64272 13.49591,-5.1538 45.80994,-18.49326 53.5,-22.08516 19.44682,-9.08332 38.03994,-16.56264 50.52013,-20.32235 7.4139,-2.2335 17.9799,-5.84812 23.4799,-8.03249 34.9263,-13.87128 70.244,-28.53087 77.3793,-32.11839 22.09828,-11.11081 40.80068,-18.36201 86.12068,-33.39027 14.025,-4.65074 39.225,-13.26346 56,-19.13938 16.775,-5.87591 38.15,-12.86507 47.5,-15.53145 21.4459,-6.11582 37.0448,-11.60035 55.6533,-19.56749 12.911,-5.5278 83.0304,-29.20022 114.8467,-38.77244 27.2676,-8.2037 136.823,-34.96853 195.4881,-47.75851 40.5929,-8.84996 45.0093,-9.60153 66.9338,-11.39072 9.943,-0.81141 23.2531,-2.16732 29.5781,-3.01313 6.325,-0.84582 24.1,-2.20108 39.5,-3.0117 15.4,-0.81062 29.2489,-1.73976 30.7754,-2.06476 1.5265,-0.325 13.4515,-0.91391 26.5,-1.30867 23.3457,-0.7063 23.8152,-0.76282 29.3962,-3.53885 3.1194,-1.55159 8.7444,-5.23475 12.5,-8.18478 13.3294,-10.47027 18.9884,-13.86213 40.8673,-24.494864 24.3864,-11.85135 26.9693,-13.83663 29.9911,-23.05242 4.5173,-13.77647 10.2113,-14.98076 20.47,-4.32943 2.475,2.56973 5.4557,5.04809 6.6238,5.50747 1.1681,0.45938 8.8181,1.80129 17,2.98203 8.1819,1.18073 22.3012,3.71454 31.3762,5.63069 19.6146,4.14152 18.0374,4.39316 38.2778,-6.10714 7.8222,-4.05801 18.2722,-9.04272 23.2222,-11.07715 13.9164,-5.71956 18.9765,-9.7703 25.8555,-20.69773 5.0094,-7.95771 6.2481,-7.74862 16.1402,2.72455 7.4283,7.86468 8.7599,8.80721 18.5043,13.09726 18.5472,8.16556 37.548,18.28656 46.3558,24.69186 4.7165,3.42998 10.8644,7.81133 13.6621,9.73633 2.7976,1.925 13.9506,12.515804 24.7844,23.535114 24.3477,24.76477 26.2596,25.92242 45.3051,27.43226 6.8159,0.54033 23.8676,1.45706 37.8926,2.03716 34.6481,1.43312 44.2554,2.44889 67.2154,7.10655 21.9022,4.44308 63.5344,15.7053 80.9632,21.90193 13.8168,4.91242 30.8971,7.97455 44.5208,7.98166 10.0926,0.005 25.5971,-2.5385 48.8006,-8.00652 4.95,-1.16649 15.75,-3.45407 24,-5.0835 8.25,-1.62943 20.5315,-4.56761 27.2922,-6.52929 17.241,-5.00264 22.8495,-4.72964 29.4578,1.43392 2.4996,2.33136 2.7495,3.20801 2.7449,9.62781 -0.01,11.58004 -3.5986,15.58644 -30.4949,34.03048 -20.4599,14.03026 -48.2758,27.6635 -72.491,35.52949 -6.5222,2.11868 -19.2049,7.45459 -28.1838,11.85758 -15.1753,7.44158 -17.6282,9.05575 -34.8252,22.91737 -24.1454,19.46246 -29.247,24.95304 -32.0506,34.49459 -2.2178,7.54808 -5.8939,16.95912 -8.7673,22.44464 -3.265,6.23306 -17.4659,21.2692 -26.2213,27.76338 -9.3895,6.96458 -12.1573,10.45656 -14.4756,18.2633 -1.4795,4.98201 -6.1697,12.7252 -13.1605,21.72709 -8.724,11.23379 -26.7715,23.16351 -46.2019,30.54024 -5.2925,2.00931 -16.8228,7.04564 -25.6228,11.19186 -8.8,4.14622 -21.175,9.58499 -27.5,12.08615 -19.6354,7.76464 -45.8708,20.99267 -53.5453,26.99783 -7.2376,5.66326 -27.9549,27.93037 -35.0938,37.71891 -9.8606,13.52058 -35.1209,57.59878 -42.9286,74.90872 -11.7333,26.01316 -29.9304,80.75035 -35.4358,106.59128 -1.7577,8.25 -4.721,20.175 -6.5851,26.5 -6.1491,20.86374 -10.3078,37.3423 -12.2962,48.723 -1.6616,9.51 -3.03,13.5547 -8.9652,26.5 -3.8524,8.4023 -8.8915,21.352 -11.1982,28.777 -4.5673,14.702 -16.5441,43.6706 -22.836,55.2336 -2.1746,3.9965 -5.5091,11.3285 -7.4099,16.2934 -4.7099,12.3017 -9.6027,21.7712 -15.1089,29.2417 -2.5412,3.4478 -6.9015,10.3768 -9.6894,15.3977 -10.4464,18.8135 -17.651,28.5943 -31.9199,43.3336 -5.8569,6.05 -13.2331,14.27978 -16.3916,18.28848 -10.7405,13.6315 -18.8311,20.777 -46.3461,40.9326 -1.7875,1.3094 -3.25,3.1161 -3.25,4.0151 0,1.7341 8.1054,16.4654 16.3766,29.7638 2.7367,4.4 7.3481,13.0189 10.2476,19.153 5.1182,10.8281 28.2919,46.6831 52.8991,81.847 5.7732,8.25 21.4047,31.6308 34.7367,51.9573 13.332,20.3266 26.5723,39.4791 29.4229,42.5612 8.1962,8.8619 26.8707,18.3022 52.5324,26.5561 34.5953,11.1272 57.7151,19.422 72.349,25.957 7.7354,3.4544 16.5104,7.0118 19.5,7.9054 2.9896,0.8937 14.7544,2.5014 26.1439,3.5727 11.3896,1.0713 26.6427,2.8574 33.8959,3.969 10.0075,1.5339 18.132,2.0213 33.6918,2.0213 h 20.5043 l 7.5999,4.8688 c 4.1799,2.6778 11.1999,6.6911 15.5999,8.9183 10.7861,5.4599 12.8884,7.1795 22.2664,18.2129 4.441,5.225 11.354,12.2 15.3622,15.5 12.6558,10.4197 20.7463,18.5909 21.9157,22.1344 2.1464,6.5036 -1.3571,12.7441 -9.0055,16.0404 -6.0617,2.6126 -19.1908,2.799 -30.6365,0.435 -15.6809,-3.2387 -19.4839,-4.7663 -25.232,-10.135 -5.4678,-5.1067 -11.6859,-7.9636 -23.0896,-10.6083 -7.1992,-1.6696 -14.8878,-1.2365 -24.046,1.3544 -4.0079,1.1339 -8.0078,1.3985 -15,0.9923 -9.3636,-0.5439 -11.0386,-0.9538 -43.0347,-10.5303 -8.4323,-2.5239 -8.8184,-2.5457 -48.5,-2.7408 -30.9823,-0.1524 -42.7053,-0.5722 -52,-1.8623 -16.5404,-2.2957 -41.9519,-3.2756 -42.9528,-1.6562 -0.4178,0.6761 0.474,3.9607 1.9971,7.3544 3.2874,7.3254 4.4141,17.9939 2.4111,22.8297 -1.9647,4.7431 -8.0031,7.0081 -20.3655,7.639 -18.3015,0.9341 -33.3559,-2.2543 -41.1828,-8.722 -6.2364,-5.1535 -45.5837,-24.5056 -55.8966,-27.4916 -18.0134,-5.2155 -46.2186,-7.9788 -81.5105,-7.9857 -23.4129,0 -27.3416,0.2586 -48,3.2157 -12.375,1.7713 -33.525,4.3521 -47,5.735 -13.475,1.3829 -35.3,3.8865 -48.5,5.5635 -29.7104,3.7746 -54.4793,4.4864 -58.7552,1.6884 -4.0417,-2.6447 -5.0776,-5.2116 -3.7394,-9.2662 1.686,-5.1088 5.8825,-8.0581 23.4946,-16.5122 18.8491,-9.0479 26.013,-11.7869 41.5,-15.8669 19.2937,-5.0829 28.3761,-8.6334 43.2439,-16.9052 7.8408,-4.3624 21.9061,-11.7876 31.2561,-16.5007 18.8567,-9.505 28.8602,-15.589 29.843,-18.1503 0.8439,-2.1991 -0.5853,-4.8118 -6.317,-11.5485 -2.5737,-3.025 -6.1931,-7.75 -8.043,-10.5 -1.8499,-2.75 -18.9357,-20.5257 -37.9684,-39.5016 -31.5456,-31.4514 -35.2879,-35.5403 -42.33,-46.25 -7.0755,-10.7604 -7.9828,-11.7484 -10.7888,-11.7484 -2.0091,0 -14.9974,6.1444 -37.7298,17.8489 -34.8114,17.9238 -47.3419,25.0089 -60.2001,34.0389 -3.9565,2.7785 -13.7073,7.7688 -22.7008,11.6179 -20.5826,8.809 -23.9103,10.5127 -35.4984,18.1735 -5.3534,3.539 -13.6784,8.2452 -18.5,10.4581 -10.2527,4.7055 -17.2667,10.8036 -17.2667,15.0119 0,1.7959 3.2802,7.6076 9.5681,16.952 5.2625,7.8206 11.1718,17.4097 13.1318,21.3091 4.4623,8.8774 7.6225,13.51 17.8134,26.1128 4.4578,5.5127 10.1034,13.833 12.5458,18.4894 5.6007,10.6773 11.3013,16.4339 21.4409,21.6514 11.6127,5.9756 21.2933,9.1598 34.6754,11.4058 16.7802,2.8163 22.2452,4.777 37.2247,13.3548 17.0083,9.7396 25.7281,12.8556 46.3415,16.5599 21.2866,3.8252 31.723,6.4478 40.6526,10.2154 15.6269,6.5935 21.8188,8.8784 27.8499,10.2771 8.5901,1.9922 29.9445,3.5177 49.281,3.5207 14.308,0 17.3082,0.3155 28,2.9249 26.642,6.5021 31.2446,6.976 77.9749,8.0288 l 37,0.8335 16.6721,3.5869 c 18.7272,4.029 26.5905,6.7032 35.3279,12.0148 3.3,2.0061 11.6463,5.4305 18.5473,7.6098 14.127,4.4611 19.1493,7.3838 27.2097,15.8343 8.2753,8.6758 8.9804,16.5803 2.153,24.1374 -4.8598,5.3792 -10.0665,6.4721 -27.3341,5.7374 -15.712,-0.6684 -22.0604,-2.2839 -28.6042,-7.2789 -2.5372,-1.9366 -6.4937,-4.3644 -8.7923,-5.395 -7.2501,-3.2507 -23.5408,-8.0077 -33.0317,-9.6456 -10.0419,-1.7329 -14.1666,-1.4567 -27.5474,1.8446 -14.1317,3.4867 -31.3193,3.083 -52.6003,-1.2355 -21.4464,-4.352 -36.7743,-4.7324 -48,-1.1912 -14.1464,4.4625 -14.1697,7.2836 -0.1249,15.1589 11.1259,6.2387 24.8623,18.662 28.484,25.7612 4.6682,9.1503 1.6615,18.9093 -7.1382,23.1692 -3.4713,1.6804 -6.0597,2.0793 -12.7866,1.9707 -4.6389,-0.075 -9.5593,-0.3412 -10.9343,-0.5917 z"
       id="path1" />
  </g>
</svg>
