<?xml version="1.0" encoding="UTF-8" standalone="no"?>
<!-- Created with Inkscape (http://www.inkscape.org/) -->

<svg
   version="1.1"
   id="svg1"
   width="1600"
   height="2656"
   viewBox="0 0 1600 2656"
   sodipodi:docname="silueta_carpineronegro.svg"
   inkscape:version="1.4.2 (ebf0e940d0, 2025-05-08)"
   xmlns:inkscape="http://www.inkscape.org/namespaces/inkscape"
   xmlns:sodipodi="http://sodipodi.sourceforge.net/DTD/sodipodi-0.dtd"
   xmlns="http://www.w3.org/2000/svg"
   xmlns:svg="http://www.w3.org/2000/svg">
  <defs
     id="defs1" />
  <sodipodi:namedview
     id="namedview1"
     pagecolor="#ffffff"
     bordercolor="#000000"
     borderopacity="0.25"
     inkscape:showpageshadow="2"
     inkscape:pageopacity="0.0"
     inkscape:pagecheckerboard="0"
     inkscape:deskcolor="#d1d1d1"
     inkscape:zoom="0.28313253"
     inkscape:cx="799.97872"
     inkscape:cy="1328"
     inkscape:window-width="1829"
     inkscape:window-height="961"
     inkscape:window-x="0"
     inkscape:window-y="0"
     inkscape:window-maximized="1"
     inkscape:current-layer="g1" />
  <g
     inkscape:groupmode="layer"
     inkscape:label="Image"
     id="g1">
    <path
       style="fill:#000000"
       d="m 152.8516,2552.1662 c -1.59471,-4.105 -0.11243,-9.1934 10.4745,-35.9573 5.17637,-13.086 10.5509,-27.3927 11.94339,-31.7927 4.91821,-15.5406 9.51169,-27.1708 14.03697,-35.5403 6.19306,-11.454 7.44346,-15.3498 9.69422,-30.2042 1.06209,-7.0094 3.06455,-17.216 4.44991,-22.6812 2.8835,-11.3753 3.03721,-13.0743 1.1829,-13.0743 -1.8679,0 -13.54866,12.3834 -17.92196,19 -1.99939,3.025 -8.62727,10.9 -14.72861,17.5 -16.35763,17.6945 -22.88167,26.1201 -49.16867,63.5 -18.17755,25.8483 -53.729936,59.5149 -58.165036,55.0798 -3.26809,-3.2681 9.08819,-34.1008 23.87677,-59.5798 4.3422,-7.4811 28.023896,-55.5991 50.446286,-102.5 10.22971,-21.3975 22.90599,-51.9592 26.06958,-62.8521 1.01466,-3.4937 2.5594,-10.2437 3.43276,-15 2.42143,-13.1871 7.67987,-32.5196 14.92471,-54.8703 3.60523,-11.1223 8.7936,-27.9973 11.52972,-37.5 5.91737,-20.5513 8.39683,-27.8827 18.35671,-54.2776 8.68365,-23.0128 13.4086,-38.0977 18.25587,-58.2841 1.88648,-7.8562 6.76132,-24.5062 10.83296,-37 11.02697,-33.8361 13.4696,-48.1051 17.07547,-99.7494 2.10628,-30.1668 3.38433,-38.6422 12.36022,-81.9665 2.16501,-10.45 4.97949,-26.541 6.25439,-35.7577 2.16981,-15.6863 2.21071,-16.8649 0.63985,-18.4358 -1.57087,-1.5709 -2.04568,-1.4265 -7.42715,2.2577 -8.01471,5.4869 -18.98627,14.215 -31.25759,24.866 -5.74732,4.9884 -24.02695,20.3198 -40.62141,34.0698 -16.59447,13.75 -38.44212,32.1573 -48.55034,40.9052 -24.88817,21.5387 -36.13524,28.523 -46.10361,28.6299 -1.80124,0.019 -6.199976,0.6785 -9.774976,1.4649 -9.2584,2.0365 -11.71569,1.8752 -14.54545,-0.9545 -3.46046,-3.4605 -3.29198,-10.579 0.54545,-23.0455 1.65,-5.3603 3,-10.5893 3,-11.6201 0,-1.0308 -1.63069,-3.6791 -3.62376,-5.8852 -2.61545,-2.895 -3.75604,-5.1914 -4.09914,-8.2529 -0.57946,-5.1704 1.74478,-19.1085 5.20973,-31.2418 3.37633,-11.823 25.333696,-56.433 37.176636,-75.5304 4.93517,-7.9583 12.49664,-20.5446 16.80326,-27.9696 4.30663,-7.425 12.20592,-20.25 17.554,-28.5 11.82344,-18.239 14.12065,-22.7051 17.27487,-33.5851 1.34953,-4.655 4.94122,-14.0849 7.98154,-20.9553 6.52799,-14.7518 9.13333,-23.426 19.12499,-63.6747 7.56164,-30.46 9.05131,-34.8784 22.41789,-66.4915 3.88511,-9.1886 8.71341,-21.1136 10.72957,-26.5 2.01616,-5.3864 8.5107,-20.1434 14.43231,-32.7934 5.92162,-12.65 12.14202,-26.15 13.82311,-30 5.16786,-11.8353 34.92787,-72.2685 40.08043,-81.3907 2.67455,-4.7351 7.00695,-12.4343 9.62754,-17.1093 15.27137,-27.2433 50.87565,-81.7544 64.00926,-98 4.22412,-5.225 11.06294,-13.9361 15.19738,-19.3581 4.13445,-5.4219 12.9764,-16.2649 19.64878,-24.0955 60.38308,-70.8642 69.20013,-84.5608 85.3253,-132.5464 8.95827,-26.6582 10.97896,-31.9915 19.32287,-51 20.64288,-47.02707 37.85089,-76.42257 70.21571,-119.94567 11.59604,-15.5939 16.36014,-20.8505 42.66076,-47.0708 16.28383,-16.2341 43.192,-42.681 59.79593,-58.7709 16.60393,-16.0899 34.15393,-33.8795 39.00003,-39.5324 4.846,-5.6529 14.9334,-17.46742 22.4164,-26.25452 17.9895,-21.12465 43.6236,-48.21788 53.86,-56.92568 4.5258,-3.85 13.9226,-11.00271 20.8817,-15.89491 12.2434,-8.60704 32.7169,-25.36708 42.2724,-34.60509 2.8732,-2.77771 5.1037,-6.03092 5.8278,-8.5 0.6452,-2.2 1.4214,-11.65 1.7248,-21 l 0.5516,-17 -4.0413,-18 c -2.2227,-9.9 -5.2082,-24.71523 -6.6346,-32.92274 -2.9943,-17.22948 -12.5011,-47.51454 -18.6383,-59.37432 -4.5415,-8.77626 -8.6658,-14.3884 -20.4294,-27.79911 -4.7781,-5.44711 -12.0807,-14.62883 -16.2279,-20.40383 -4.1473,-5.775 -11.457,-15.45 -16.2439,-21.5 -11.8755,-15.00934 -17.2582,-22.61516 -27.6007,-39 -4.8604,-7.7 -11.3895,-17.6 -14.5091,-22 -7.701,-10.86189 -13.9202,-22.83003 -18.7307,-36.04515 -6.6207,-18.18802 -12.1095,-31.51401 -16.2509,-39.45485 -5.0033,-9.59337 -15.1493,-23.02627 -23.10331,-30.58775 -14.12254,-13.42562 -20.7676,-20.40162 -28.01697,-29.41225 -4.2037,-5.225 -10.84456,-12.62322 -14.75747,-16.4405 -6.12645,-5.97671 -7.03408,-7.30609 -6.53613,-9.57326 0.47182,-2.14817 -0.44158,-3.87696 -4.96238,-9.39226 -3.84376,-4.68932 -5.54064,-7.63237 -5.54064,-9.60961 0,-2.50553 -1.01973,-3.46607 -8.43408,-7.94455 -9.25998,-5.5933 -14.06455,-10.36874 -13.0087,-12.92984 1.85272,-4.49403 1.55512,-9.92268 -0.95364,-17.39616 -1.43197,-4.26576 -2.59797,-9.20895 -2.59111,-10.98487 l 0.0125,-3.22895 5.73754,5.90038 c 6.41254,6.59454 7.35488,6.10125 4.79725,-2.51124 -0.85789,-2.88868 -1.55976,-5.39547 -1.55976,-5.57064 0,-1.19387 3.02332,0.72737 13.06841,8.30464 15.17368,11.44589 43.41476,30.15808 54.07171,35.82726 12.0485,6.40944 24.32528,8.45476 40.17198,6.69269 22.9999,-2.55747 56.2486,-11.26248 80.5084,-21.07833 17.92,-7.25069 48.9612,-19.25698 55.4184,-21.43502 10.6447,-3.59054 82.1602,-20.55656 97.2611,-23.07379 20.7243,-3.45463 39.5069,-4.74877 61.49997,-4.23741 33.2014,0.77196 39.228,2.31694 69.9379,17.92916 24.5759,12.4938 31.2238,16.61013 43.0621,26.66346 21.5372,18.28993 36.9029,19.26674 95.6878,6.08298 12.5467,-2.81388 31.4312,-6.8833 41.9655,-9.04315 10.5344,-2.15985 20.3033,-4.36421 21.7088,-4.89858 1.4056,-0.53437 9.2115,-1.90078 17.3467,-3.03646 8.1352,-1.13568 18.6162,-2.71613 23.2912,-3.51211 4.675,-0.79598 16.15,-2.59923 25.5,-4.00723 9.35,-1.40799 21.3462,-3.22424 26.6581,-4.03612 14.3151,-2.1879 42.3494,-5.08829 68.2696,-7.06307 l 22.9277,-1.7468 4.9522,5.3857 c 2.7237,2.96214 6.5286,7.75998 8.4554,10.66188 2.8344,4.269 3.2724,5.55421 2.2944,6.73265 -1.6677,2.0094 -10.0543,4.66888 -34.5729,10.96333 -73.0458,18.75241 -131.4252,37.46609 -174.9845,56.0917 -46.3545,19.82084 -56.7129,25.96041 -50.9314,30.18792 2.9379,2.14823 40.004,1.21569 69.9314,-1.7594 5.5,-0.54676 14.725,-1.39102 20.5,-1.87613 5.775,-0.48512 11.175,-1.12849 12,-1.42972 0.825,-0.30122 7.8,-1.231 15.5,-2.06616 7.7,-0.83517 27.725,-3.08366 44.5,-4.99665 42.5334,-4.85043 104.7012,-9.06839 122,-8.27746 8.3214,0.38046 10.4615,0.8839 17.25,4.05779 12.5039,5.84609 11.3789,6.8449 -16.0283,14.23058 -9.1969,2.47837 -20.3914,5.818 -24.8766,7.4214 -4.4851,1.6034 -15.0601,4.76501 -23.5,7.02582 -8.4398,2.2608 -21.1951,5.86535 -28.3451,8.01011 -31.41,9.42197 -81.4148,21.95308 -123.5,30.94893 -54.1299,11.57043 -55.6527,12.20779 -62.2096,26.03709 -6.0557,12.77248 -22.1472,29.62432 -43.9879,46.06658 -15.4008,11.59414 -27.747,18.75581 -44.5342,25.83309 -7.5726,3.19249 -18.4025,8.13608 -24.0665,10.98575 -5.6641,2.84967 -15.7891,7.43162 -22.5,10.18212 -16.1565,6.62172 -32.3829,15.98973 -39.1645,22.6109 -5.7575,5.62118 -11.4827,15.92584 -13.513,24.32156 -1.5699,6.49172 -2.45,55.4234 -1.2231,68 0.5634,5.775 2.1873,14.48327 3.6086,19.35172 1.4214,4.86845 3.0615,11.84345 3.6446,15.5 1.3143,8.24074 5.7597,21.24479 12.1861,35.64828 4.999,11.2044 19.55,46.97358 27.3244,67.16889 2.3648,6.14289 5.8816,14.91789 7.8151,19.5 1.9335,4.58211 5.0569,12.38111 6.941,17.33111 1.884,4.95 8.0288,18.9 13.655,31 14.3118,30.77954 16.3801,35.68256 23.4791,55.6584 5.1954,14.6194 7.4195,19.4046 12.9234,27.8048 3.6564,5.5805 7.931,12.7093 9.499,15.8416 6.887,13.7577 15.3451,41.375 18.5878,60.6926 1.2928,7.7015 3.9753,20.4253 5.9612,28.2753 5.2291,20.6709 6.3392,26.4609 8.5708,44.7052 2.452,20.0461 2.6365,49.38567 0.5052,80.36037 -3.2833,47.7183 -7.8412,70.7205 -23.4417,118.3021 -9.4794,28.9123 -14.9435,41.3262 -31.6295,71.8596 -8.4603,15.4812 -13.9234,27.7055 -19.4191,43.4524 -6.6545,19.067 -17.002,43.1571 -24.0665,56.029 -2.1231,3.8684 -7.4972,16.7051 -11.9424,28.526 -4.4451,11.8209 -10.4993,27.3426 -13.4536,34.4926 -6.3209,15.298 -8.019,22.635 -7.1062,30.7038 0.958,8.4668 2.6784,12.6304 11.8436,28.6626 8.5141,14.8932 16.7893,25.1426 24.759,30.6655 3.8541,2.671 4.8966,2.9127 11.8401,2.7452 8.4194,-0.203 12.6065,-1.3286 37.9784,-10.2094 20.0736,-7.0262 42.8193,-16.7249 58.811,-25.0769 23.6229,-12.3376 48.6708,-17.7632 67.2242,-14.5614 13.9953,2.4152 19.0308,2.1379 23.7002,-1.3052 4.7723,-3.5191 8.8617,-7.8983 14.1233,-15.1242 9.0331,-12.4054 15.2342,-15.9749 27.779,-15.9902 7.8106,-0.01 8.2058,0.11 16.4977,4.9902 4.833,2.8445 9.7246,5 11.3466,5 4.1611,0 8.5241,-2.3755 16.164,-8.8009 20.0804,-16.888 24.7933,-19.8143 41.4894,-25.761 9.2067,-3.2792 11.5469,-3.7252 19,-3.6211 17.5613,0.2454 26.6407,3.7911 37.5419,14.6612 9.2689,9.2424 15.6678,21.4516 16.2798,31.0619 0.3086,4.8474 -2e-4,7.0833 -1.2395,8.9747 -2.0356,3.1067 -3.1584,2.62 -11.2872,-4.8931 -7.2449,-6.6961 -17.5142,-13.3846 -21.7786,-14.1846 -3.7294,-0.6996 -9.7763,1.9988 -20.8075,9.2853 -3.7351,2.4672 -9.5199,5.3121 -12.8551,6.3219 -6.9863,2.1153 -8.2221,3.0825 -15.4268,12.0747 -9.2679,11.5675 -32.7608,28.8148 -46.9259,34.4508 -4.4006,1.7509 -11.6011,5.0499 -16.0011,7.3311 -8.428,4.3695 -22.9281,9.4029 -30.5,10.5874 -5.9401,0.9292 -8.8137,2.8795 -10.8142,7.3395 -1.419,3.1636 -1.6955,9.1643 -1.9957,43.326 -0.2404,27.3491 0.058,44.1054 0.9609,54 1.7683,19.3718 1.5822,31.7567 -0.6115,40.6956 -2.0819,8.4832 -1.852,12.2381 2.0474,33.4338 3.784,20.5686 3.581,31.7168 -0.5776,31.7168 -2.6765,0 -7.6342,-4.5038 -10.6816,-9.7038 -4.3871,-7.4861 -10.2638,-25.1198 -12.4294,-37.2962 -1.1249,-6.325 -3.3245,-16.4659 -4.888,-22.5354 -1.7668,-6.8586 -3.2734,-16.3209 -3.9806,-25 -1.6686,-20.4792 -2.6986,-25.7828 -6.966,-35.8684 -4.4591,-10.5383 -8.5709,-28.1873 -9.5746,-41.0962 -0.8053,-10.3572 -1.7309,-12.7514 -4.7595,-12.3107 -1.6188,0.2356 -2.9528,2.2449 -5.5174,8.3107 -1.8602,4.4 -5.8211,13.0342 -8.8018,19.1871 -7.7555,16.0091 -8.8088,20.8883 -7.9613,36.8811 0.6026,11.3695 0.4823,13.2438 -0.9244,14.4113 -5.317,4.4127 -19.0212,-18.2852 -21.5508,-35.6941 -1.8358,-12.6338 -0.8192,-36.267 1.8794,-43.692 4.2335,-11.6482 2.439,-15.1371 -7.2553,-14.1057 -12.2016,1.2981 -18.2192,3.3429 -46.8594,15.9225 -7.0188,3.0828 -18.9058,7.658 -26.4156,10.167 -12.4231,4.1505 -15.9814,5.9579 -39.4678,20.0478 -27.0451,16.2247 -35.2956,20.4642 -48.1237,24.7286 -10.5049,3.4921 -15.7155,4.0328 -25.6608,2.663 -9.8538,-1.3573 -28.1093,-5.8709 -36.3083,-8.9772 -7.59657,-2.8781 -14.66367,-7.7251 -17.55377,-12.0394 -2.5296,-3.776 -5.5985,-5.9082 -8.585,-5.9646 -1.032,-0.019 -5.532,2.1605 -10,4.8444 -28.7704,17.2821 -33.3633,19.4634 -52.7406,25.0476 -5.7107,1.6457 -16.6771,4.3644 -24.3699,6.0416 -7.6928,1.6772 -18.9399,4.4524 -24.9936,6.1671 -10.3662,2.9363 -11.6473,3.0789 -22.0131,2.4508 -18.7042,-1.1333 -35.3854,-4.2959 -51.3353,-9.7325 -9.4402,-3.2178 -15.4258,-4.7563 -16.9835,-4.3654 -5.292,1.3283 -20.6193,18.3907 -31.0013,34.511 -10.5776,16.4239 -18.152,23.5094 -28.1863,26.3669 -3.025,0.8615 -11.1097,2.0402 -17.966,2.6193 -16.50678,1.3944 -18.57724,2.0571 -27.72965,8.8768 -18.88282,14.07 -25.4798,22.3914 -44.10733,55.637 -10.56664,18.8589 -12.8124,22.0907 -22.02463,31.6948 -10.97056,11.4372 -28.83754,25.6547 -37.10934,29.5293 -7.49224,3.5095 -17.26971,13.6574 -23.76604,24.6665 -4.36449,7.3963 -7.08176,14.5619 -16.86081,44.4633 -6.4118,19.6054 -12.73227,38.2184 -14.04549,41.3624 -3.4835,8.3397 -6.99324,23.0274 -9.98452,41.7837 -4.78857,30.0258 -18.64853,82.8994 -29.25063,111.5866 -1.64372,4.4476 -5.06838,18.3796 -7.61035,30.96 -7.5981,37.6038 -13.77271,60.0436 -22.30404,81.0573 -5.60215,13.7987 -9.34976,19.7853 -19.21982,30.7021 -7.78447,8.61 -12.64745,17.4481 -20.46528,37.194 -2.61309,6.6 -10.50276,23.7 -17.53261,38 -16.10534,32.7612 -24.98228,46.2029 -48.76879,73.8469 -16.27418,18.9134 -18.61186,22.1132 -25.20472,34.5 -7.36639,13.8401 -22.49045,37.6139 -25.53732,40.1426 -1.6871,1.4002 -2.68809,0.7502 -3.83375,-2.4895 -0.54306,-1.5357 -3.22392,1.094 -6.45017,6.3269 -7.27009,11.7919 -13.35101,22.4134 -17.68376,30.888 -2.59117,5.0683 -8.66238,15.1933 -13.49157,22.5 -8.39465,12.7015 -13.59891,18.6266 -19.05338,21.6926 -1.375,0.7729 -5.51858,3.8841 -9.20796,6.9137 -7.05601,5.7943 -13.5053,14.1051 -23.80719,30.6788 -18.15545,29.2085 -39.2453,47.6793 -43.10268,37.75 z"
       id="path1" />
  </g>
</svg>
