<?xml version="1.0" encoding="UTF-8" standalone="no"?>
<svg xmlns="http://www.w3.org/2000/svg" version="1.1" viewBox="0 0 600 420" width="600" height="420">
  <g fill="#000000" stroke="#000000">
    <!-- legs -->
    <path d="M 240,270 L 228,375" stroke-width="34" stroke-linecap="round" fill="none"/>
    <path d="M 205,278 L 190,382" stroke-width="34" stroke-linecap="round" fill="none"/>
    <path d="M 415,275 L 402,372" stroke-width="34" stroke-linecap="round" fill="none"/>
    <path d="M 452,280 L 442,378" stroke-width="34" stroke-linecap="round" fill="none"/>
    <!-- tail -->
    <path d="M 185,222 Q 100,255 65,205 Q 40,165 55,115" stroke-width="28" stroke-linecap="round" fill="none"/>
    <!-- body -->
    <ellipse cx="300" cy="235" rx="150" ry="68" stroke="none"/>
    <!-- neck -->
    <ellipse cx="428" cy="200" rx="55" ry="45" stroke="none"/>
    <!-- head -->
    <circle cx="470" cy="168" r="54" stroke="none"/>
    <!-- ears -->
    <path d="M 436,140 Q 434,95 452,88 Q 468,100 458,135 Z" stroke="none"/>
    <path d="M 476,132 Q 484,86 502,82 Q 516,98 500,130 Z" stroke="none"/>
    <!-- muzzle -->
    <ellipse cx="516" cy="182" rx="26" ry="19" stroke="none"/>
  </g>
</svg>
