<?xml version="1.0" encoding="UTF-8" standalone="no"?>
<!-- Created with Inkscape (http://www.inkscape.org/) -->

<svg
   version="1.1"
   id="svg1"
   width="1248"
   height="3424"
   viewBox="0 0 1248 3424"
   sodipodi:docname="silueta_puma.svg"
   inkscape:version="1.4.2 (ebf0e940d0, 2025-05-08)"
   xmlns:inkscape="http://www.inkscape.org/namespaces/inkscape"
   xmlns:sodipodi="http://sodipodi.sourceforge.net/DTD/sodipodi-0.dtd"
   xmlns="http://www.w3.org/2000/svg"
   xmlns:svg="http://www.w3.org/2000/svg">
  <defs
     id="defs1" />
  <sodipodi:namedview
     id="namedview1"
     pagecolor="#ffffff"
     bordercolor="#000000"
     borderopacity="0.25"
     inkscape:showpageshadow="2"
     inkscape:pageopacity="0.0"
     inkscape:pagecheckerboard="0"
     inkscape:deskcolor="#d1d1d1"
     inkscape:zoom="0.21962617"
     inkscape:cx="626.06383"
     inkscape:cy="1712"
     inkscape:window-width="1829"
     inkscape:window-height="961"
     inkscape:window-x="0"
     inkscape:window-y="0"
     inkscape:window-maximized="1"
     inkscape:current-layer="g1" />
  <g
     inkscape:groupmode="layer"
     inkscape:label="Image"
     id="g1">
    <path
       style="fill:#000000"
       d="m 321.67773,3307.1889 c -28.89099,-2.4057 -45.55882,-5.0426 -69.04682,-10.9233 -20.62436,-5.1638 -24.65058,-6.9305 -32.02025,-14.0506 -7.33112,-7.0828 -9.6074,-11.5222 -14.34228,-27.9716 -4.50869,-15.6636 -5.79185,-29.8939 -4.31021,-47.8001 1.43448,-17.3362 3.50008,-25.9909 9.58217,-40.1485 2.55057,-5.937 4.63739,-11.5398 4.63739,-12.4505 0,-0.9107 0.59299,-2.5435 1.31775,-3.6284 0.72476,-1.0849 2.11131,-4.1083 3.08122,-6.7186 4.14245,-11.1487 14.1692,-23.462 46.36439,-56.9375 15.61274,-16.2336 17.06722,-18.6276 22.36781,-36.8164 l 3.35134,-11.5 -0.27747,-52 c -0.15261,-28.6 -0.68491,-61.675 -1.18287,-73.5 -0.79378,-18.8493 -4.1333,-55.4529 -5.46672,-59.9191 -0.98597,-3.3024 -2.66819,-23.9455 -5.08561,-62.4069 -2.67726,-42.5954 -4.12337,-56.2118 -7.98378,-75.174 -1.34365,-6.6 -3.14421,-16.725 -4.00124,-22.5 -0.85703,-5.775 -1.99812,-12.075 -2.53574,-14 -0.53763,-1.925 -3.93416,-17 -7.54784,-33.5 -3.97636,-18.1559 -7.68536,-32.5662 -9.39459,-36.5 -1.55333,-3.575 -3.34432,-10.1 -3.97998,-14.5 -1.10423,-7.6435 -4.50415,-23.2342 -11.02741,-50.5672 -1.64959,-6.9119 -3.00528,-13.4369 -3.01264,-14.5 -0.007,-1.063 -1.37543,-5.7578 -3.04016,-10.4328 -3.17913,-8.9278 -8.88067,-29.6939 -16.88547,-61.5 -5.23381,-20.7959 -8.5226,-32.4741 -13.65846,-48.5 -1.85074,-5.775 -4.51027,-14.775 -5.91007,-20 -2.72846,-10.1844 -3.3646,-12.3118 -8.97078,-30 -2.00468,-6.325 -4.79238,-17.125 -6.1949,-24 -1.40252,-6.875 -3.43325,-14.2351 -4.51274,-16.3559 -1.36104,-2.6738 -2.2256,-7.2721 -2.82028,-15 -1.43525,-18.6513 -3.01413,-29.6061 -6.00204,-41.6441 -1.5699,-6.325 -3.60701,-17.7915 -4.5269,-25.4811 -0.9199,-7.6896 -2.52989,-17.1396 -3.57777,-21 -4.48515,-16.5233 -7.09137,-29.8466 -8.87695,-45.38 -0.59183,-5.1485 -1.72602,-10.9166 -2.52042,-12.8178 -0.7944,-1.9013 -1.87984,-6.9138 -2.4121,-11.139 -0.53225,-4.2252 -1.88665,-10.6071 -3.00976,-14.1821 -1.12311,-3.575 -2.05269,-8.075 -2.06574,-10 -0.013,-1.925 -0.70051,-5.7311 -1.5277,-8.4581 -0.82718,-2.7269 -2.17435,-9.9269 -2.99371,-16 -0.81936,-6.073 -1.91472,-13.7419 -2.43414,-17.0419 -0.51942,-3.3 -1.88156,-18.375 -3.02698,-33.5 -1.14543,-15.125 -2.74639,-31.325 -3.55771,-36 -1.65916,-9.5605 -2.04534,-62.4056 -0.50789,-69.5 0.47677,-2.2 1.54811,-7.15 2.38076,-11 2.17584,-10.0606 3.25475,-24.1443 5.81202,-75.8675 2.64616,-53.5211 2.40859,-57.368 -5.65873,-91.6325 -2.52513,-10.725 -5.42584,-23.775 -6.44602,-29 -2.47168,-12.659 -4.88277,-21.7914 -6.6612,-25.2306 -0.80184,-1.5505 -1.93153,-5.3955 -2.51043,-8.5443 -0.5789,-3.1488 -2.99149,-10.2251 -5.36132,-15.7251 -2.36983,-5.5 -4.600985,-11.575 -4.958135,-13.5 -0.35716,-1.925 -1.69613,-6.65 -2.9755,-10.5 -1.27937,-3.85 -2.77603,-9.25 -3.3259,-12 -0.54987,-2.75 -2.00287,-8.6 -3.22888,-13 -1.22601,-4.4 -2.81625,-11.375 -3.53386,-15.5 -0.71761,-4.125 -2.26468,-10.1277 -3.43793,-13.3394 -1.17325,-3.2117 -2.76144,-9.7367 -3.52932,-14.5 -1.60569,-9.9605 -3.18677,-16.6704 -4.51132,-19.1453 -1.31959,-2.4657 -2.78077,-12.5286 -3.96651,-27.3168 -0.56455,-7.0409 -1.56042,-13.7909 -2.21306,-15 -0.84049,-1.5572 -1.25697,-12.8935 -1.42788,-38.8653 -0.15029,-22.8383 -0.63089,-37.3947 -1.27435,-38.597 -0.7202,-1.3458 -0.69159,-3.0429 0.0945,-5.6042 1.34904,-4.3956 -0.48626,-88.5655 -2.01982,-92.632 -0.64707,-1.7158 -0.51619,-3.9115 0.41725,-7 1.77519,-5.8736 1.73492,-11.5498 -0.13266,-18.7012 -1.25871,-4.8198 -1.31942,-7.1365 -0.35962,-13.7222 0.69576,-4.7739 0.93982,-13.6653 0.61403,-22.369 -0.29741,-7.9451 -0.15058,-18.9373 0.32627,-24.4271 1.11934,-12.8865 1.49495,-106.4428 0.51101,-127.2805 -0.50933,-10.7867 -0.39347,-17.5735 0.35558,-20.8293 0.6111,-2.6561 1.79252,-11.6561 2.62538,-20 0.83287,-8.3439 1.93426,-16.7457 2.44755,-18.6707 0.51329,-1.925 0.91685,-6.2 0.8968,-9.5 -0.0609,-10.0318 0.59727,-20.5362 1.87983,-30 1.75231,-12.9301 6.01653,-53.42045 6.74011,-64.00003 0.33856,-4.95 1.44645,-12.15 2.462,-16 1.8676,-7.08021 3.12463,-13.85739 5.1007,-27.5 0.59749,-4.125 2.13551,-12.225 3.41784,-18 1.28232,-5.775 2.85091,-15.225 3.48575,-21 1.16644,-10.61088 5.29194,-29.81716 9.558585,-44.5 1.27858,-4.4 2.60482,-9.71934 2.9472,-11.82076 0.34238,-2.10141 2.00932,-7.27641 3.70431,-11.5 1.69499,-4.22358 4.0788,-12.62924 5.29736,-18.67924 1.21856,-6.05 3.00662,-12.8 3.97346,-15 0.96684,-2.2 2.85831,-8.05 4.20325,-13 4.92186,-18.1146 6.08794,-22.23858 9.75509,-34.5 2.05618,-6.875 4.99851,-15.46123 6.53851,-19.08051 1.54,-3.61929 3.13295,-8.11929 3.53989,-10 0.40694,-1.88072 1.80848,-5.54012 3.11453,-8.132 1.30605,-2.59188 3.48538,-8.11518 4.84296,-12.27402 1.35758,-4.15883 3.96683,-10.1382 5.79834,-13.28749 1.8315,-3.14929 4.28289,-9.62311 5.44752,-14.38626 1.89084,-7.7332 3.48757,-11.53503 11.06245,-26.33972 1.12564,-2.2 3.82976,-7.825 6.00917,-12.5 7.08809,-15.20455 13.31513,-28.33566 17.34669,-36.57938 2.39928,-4.90604 4.36499,-10.73732 5.00474,-14.84654 1.08548,-6.97224 0.66339,-20.53331 -0.96718,-31.07408 -1.35767,-8.77664 -5.21545,-36.24061 -5.85814,-41.70477 -0.48441,-4.11845 -1.48264,-5.73272 -8.00986,-12.95314 -8.63921,-9.55669 -8.95875,-10.11518 -13.28711,-23.223 -3.02195,-9.15155 -3.27194,-10.9231 -3.38672,-24 -0.0682,-7.7655 0.27208,-19.094 0.75609,-25.17444 0.72106,-9.05847 0.5705,-12.58068 -0.83351,-19.5 -1.39505,-6.87509 -1.59153,-11.32555 -1.05709,-23.94465 0.63414,-14.9735 0.57753,-15.64212 -1.66649,-19.68397 -13.42629,-24.1829 -16.99355,-36.12469 -20.97007,-70.19954 -0.9368,-8.02748 -0.95217,-16.19593 -0.0677,-36 0.62921,-14.08907 1.63041,-28.31649 2.22489,-31.61649 0.59447,-3.3 1.53428,-8.475 2.08846,-11.5 1.37464,-7.50354 7.46633,-25.8833 11.5983,-34.99424 10.37754,-22.88231 28.52439,-44.09113 44.38156,-51.87017 12.01911,-5.89621 19.74974,-7.51255 35.92166,-7.51059 13.20173,0.002 20.90574,0.89559 32,3.71339 16.66417,4.23248 40.13385,17.66261 60.36618,34.54355 4.4736,3.73257 10.38382,8.3094 13.13382,10.17073 14.19585,9.60844 34.75385,31.21447 50.71771,53.30324 2.04473,2.82925 5.86973,7.58493 8.5,10.56818 2.63026,2.98324 6.92359,8.38324 9.54073,12 7.56203,10.45032 32.25872,34.69258 38.40773,37.70101 4.74012,2.31913 5.9468,2.49521 13.02889,1.90126 13.6167,-1.14201 23.66425,-2.57028 28.30489,-4.02361 2.475,-0.77509 10.7234,-1.91289 18.3296,-2.52844 7.6063,-0.61555 15.4813,-1.69758 17.5,-2.40451 2.0188,-0.70693 5.9204,-1.59084 8.6704,-1.96426 2.75,-0.37341 7.925,-1.53355 11.5,-2.57809 3.575,-1.04453 9.65,-2.3833 13.5,-2.97503 16.2923,-2.50405 20.3898,-3.33988 27.6213,-5.63433 4.1916,-1.32995 9.3666,-2.41817 11.5,-2.41826 2.1333,-1e-4 7.2537,-0.64265 11.3787,-1.42791 12.8901,-2.45381 31.7716,-2.8841 52.1022,-1.18735 10.2312,0.85388 19.823,2.01666 21.3151,2.58396 1.4921,0.56731 5.0461,1.02611 7.8978,1.01956 4.723,-0.0109 31.9746,5.66724 39.1849,8.1645 1.65,0.57147 5.025,1.43124 7.5,1.9106 4.4502,0.86191 16.3526,4.32203 20.7971,6.04588 1.2634,0.49001 3.2884,0.90081 4.5,0.91289 1.2116,0.0121 4.1823,0.92002 6.6016,2.01765 6.8035,3.08682 17.6172,4.95867 28.6513,4.95957 6.7058,5.5e-4 10.466,0.41678 11.3,1.25082 0.8586,0.85865 6.1132,1.36233 16.7834,1.60877 l 15.5335,0.35878 5.464,-3.76327 c 3.0053,-2.06979 5.9083,-4.59316 6.4511,-5.60749 0.5429,-1.01433 4.6957,-6.23231 9.2285,-11.59551 4.5328,-5.36321 9.336,-11.32628 10.6738,-13.25128 4.0776,-5.86731 36.8469,-44.70353 47.6322,-56.45077 24.4972,-26.68205 54.204,-52.95153 70.3835,-62.23954 18.46289,-10.59878 32.92409,-14.52519 53.99999,-14.66173 15.8747,-0.10284 20.3521,0.6781 30.6446,5.34495 10.4234,4.72617 16.1442,8.64651 24.6924,16.921 16.8693,16.32913 30.0552,41.50573 35.2317,67.26999 0.919,4.57386 2.1206,10.5661 2.6703,13.3161 1.5075,7.54147 1.9838,43.72706 0.8358,63.5 -1.0453,18.00355 -3.1368,33.55175 -5.1949,38.61943 -0.6435,1.58431 -1.5045,4.90557 -1.9135,7.38057 -1.147,6.94158 -4.7699,18.67381 -7.3614,23.83864 -5.6342,11.22902 -6.7741,16.38227 -6.1736,27.90927 0.3081,5.91365 0.9769,22.00209 1.4862,35.75209 0.5093,13.75 1.2407,26.73248 1.6253,28.84995 1.5931,8.77115 -3.755,28.71159 -10.4828,39.08593 -2.163,3.33527 -4.4706,8.31412 -5.1281,11.06412 -0.6575,2.75 -2.1851,7.025 -3.3946,9.5 -3.06,6.2618 -3.5228,8.53237 -5.0958,25 -2.5162,26.34384 -3.3678,31.76142 -6.078,38.6673 -2.3949,6.10262 -2.6911,8.22175 -2.7725,19.8327 -0.05,7.15 0.5523,19.3 1.3387,27 1.6939,16.58588 1.7305,19.20558 0.6174,44.196 -0.7457,16.74401 -0.6415,19.87456 0.816,24.50829 2.1626,6.87561 2.518,23.83807 0.8967,42.79571 -1.7371,20.31068 -1.6124,45.75943 0.2401,49 0.786,1.375 1.4451,4.65985 1.4646,7.29966 0.019,2.63981 0.6537,6.01481 1.4094,7.5 1.4645,2.87805 7.6728,21.70696 9.628,29.20034 4.0678,15.58959 6.9943,25.25092 9.2389,30.5 1.4111,3.3 3.322,8.7 4.2465,12 0.9245,3.3 2.5023,8.27046 3.5062,11.04546 1.0039,2.775 2.3583,7.95 3.0098,11.5 0.6514,3.55 1.7773,8.47954 2.5018,10.95454 0.7246,2.475 1.584,7.65 1.9098,11.5 0.3258,3.85 1.9353,12.625 3.5767,19.5 1.6414,6.875 2.9898,14.2017 2.9963,16.28155 0.01,2.07985 0.863,6.35485 1.9031,9.5 1.0401,3.14515 2.1826,9.31845 2.539,13.71845 0.574,7.08766 1.4871,12.44661 5.6786,33.32759 0.5882,2.93024 0.8331,5.56394 0.5442,5.85284 -0.2889,0.2889 -0.064,1.7165 0.4996,3.1724 1.1904,3.075 2.3714,12.385 3.8875,30.6472 0.5936,7.15 1.7275,14.9927 2.5196,17.4281 0.7922,2.4355 1.4511,6.9355 1.4643,10 0.013,3.0646 0.4906,7.3719 1.0612,9.5719 0.5706,2.2 1.4487,20.425 1.9513,40.5 0.5026,20.075 1.3978,41.45 1.9892,47.5 0.5913,6.05 1.4339,21.125 1.8724,33.5 0.5182,14.6263 1.2532,23.5498 2.1003,25.5 0.9466,2.1791 1.3499,10.251 1.474,29.5 0.094,14.575 0.6797,29.4033 1.3018,32.9517 1.5758,8.9889 3.0472,35.4512 4.2564,76.5483 1.2925,43.926 3.5987,88.3057 4.9628,95.5 1.4936,7.8773 1.5804,34.6428 0.2302,71 -0.9895,26.6456 -1.554,33.3493 -3.6631,43.5 -3.362,16.1801 -5.4258,24.3382 -7.1761,28.3661 -0.8044,1.8513 -2.5593,8.8778 -3.8998,15.6145 -1.3404,6.7367 -4.0512,17.372 -6.0239,23.634 -1.9727,6.262 -4.253,14.9119 -5.0674,19.2222 -0.8143,4.3102 -2.5572,11.2852 -3.873,15.5 -2.9999,9.6095 -4.2283,15.6628 -6.1213,30.1632 -3.5043,26.8432 -2.685,44.9079 3.0838,68 1.3053,5.225 2.6421,14 2.9706,19.5 0.3286,5.5 1.2494,13.825 2.0462,18.5 0.7969,4.675 2.1386,14.575 2.9816,22 0.843,7.425 2.1873,16.65 2.9874,20.5 3.9372,18.9457 4.2696,33.1904 1.26,54 -0.875,6.05 -2.3306,21.5601 -3.2347,34.4668 -0.904,12.9067 -1.8055,23.7286 -2.0033,24.0486 -0.3608,0.5837 -5.5294,46.3207 -7.4568,65.9846 -1.1513,11.7463 -3.8129,28.4495 -5.0195,31.5 -0.4351,1.1 -1.7838,9.65 -2.997,19 -1.2133,9.35 -2.8308,20.8931 -3.5945,25.6513 -0.7636,4.7582 -2.2912,15.1082 -3.3946,23 -1.1034,7.8918 -2.6633,17.4987 -3.4666,21.3487 -0.8033,3.85 -2.416,13.075 -3.5839,20.5 -1.1679,7.425 -2.7335,15.975 -3.4791,19 -0.7457,3.025 -2.7526,14.5901 -4.46,25.7002 -1.7073,11.11 -3.7741,22.36 -4.593,25 -0.8189,2.6399 -3.0249,13.7998 -4.9023,24.7998 -1.8775,11 -4.8029,26.525 -6.5011,34.5 -1.6981,7.975 -4.4163,22.375 -6.0404,32 -1.6241,9.625 -4.0694,22.9785 -5.4339,29.6744 -1.3645,6.6958 -3.4137,20.8708 -4.5536,31.5 -1.14,10.6291 -2.7116,24.0506 -3.4924,29.8256 -3.66,27.0703 -7.0527,63.521 -9.0281,97 -1.4861,25.185 -3.1357,46.6647 -4.032,52.5 -0.2535,1.65 -1.1571,12.9 -2.0082,25 -0.851,12.1 -1.9992,24.7 -2.5514,28 -0.5523,3.3 -1.8898,11.3332 -2.9722,17.8515 -1.0825,6.5183 -2.4189,12.6937 -2.9698,13.7231 -1.5138,2.8285 -2.7096,10.1522 -3.9965,24.4777 -0.905,10.0735 -1.93,15.1676 -4.6174,22.9477 -1.8998,5.5 -4.7617,15.4645 -6.3597,22.1433 -1.5981,6.6788 -4.7481,17.4788 -7.0001,24 -6.1865,17.9145 -7.8387,30.7886 -9.0289,70.3567 -1.8648,61.9916 -4.2457,102.0076 -6.9315,116.5 -4.5014,24.2889 -8.9978,39.5676 -15.1867,51.6035 -4.3747,8.5078 -14.82839,19.3682 -29.69249,30.8477 -9.8651,7.6187 -24.9605,23.2912 -29.9056,31.0488 -4.7214,7.4065 -23.0932,25.4378 -31.7412,31.1527 -3.85,2.5443 -11.5,6.527 -17,8.8505 -5.5,2.3236 -12.475,5.5224 -15.5,7.1086 -3.025,1.5861 -6.4667,2.8849 -7.6483,2.8861 -1.1816,0 -6.1316,1.9807 -11,4.399 -16.2623,8.0781 -22.3594,10.6563 -27.5111,11.6333 -2.8125,0.5334 -16.0617,0.9698 -29.4427,0.9698 h -24.3292 l -11.7843,-4.0054 c -19.8545,-6.7484 -30.5109,-12.4768 -40.6023,-21.826 -6.7221,-6.2276 -11.2987,-9.4289 -19.4839,-13.6288 -12.1339,-6.2261 -27.7601,-18.7415 -35.2719,-28.2502 -8.0763,-10.2231 -17.1955,-15.6204 -20.6148,-12.2011 -0.7678,0.7678 -0.9424,14.6906 -0.5926,47.25 0.4346,40.4578 0.2918,47.0882 -1.1563,53.6615 -0.9086,4.125 -2.2881,11 -3.0655,15.2778 -0.7773,4.2778 -1.6133,8.1028 -1.8577,8.5 -0.2444,0.3972 -0.01,15.1458 0.5301,32.7745 1.2014,39.5157 0.6824,45.5049 -5.0645,58.4522 -7.1285,16.0599 -13.5527,22.5758 -28.105,28.5065 -3.575,1.457 -7.85,3.2863 -9.5,4.0652 -9.02,4.2581 -46.73,12.1574 -69,14.4538 -5.5,0.5671 -11.575,1.4431 -13.5,1.9466 -13.2645,3.4696 -88.95819,7.0867 -144.49995,6.9051 -24.0846,-0.079 -38.92598,-0.6813 -60,-2.4362 z m 327.41268,-440.2044 c 2.1613,-2.1612 3.3361,-5.1775 5.4231,-13.9237 1.4653,-6.1407 2.654,-12.8867 2.6415,-14.9911 -0.071,-11.9323 5.8437,-48.8596 10.4631,-65.3263 5.0686,-18.0685 20.448,-48.6305 32.4842,-64.5526 7.5187,-9.9462 20.8576,-39.4819 23.0088,-50.9474 1.8131,-9.6631 2.376,-43.2906 1.1048,-66 -0.6465,-11.55 -1.4294,-35.8694 -1.7399,-54.0432 -0.4669,-27.3306 -0.2926,-34.678 1.008,-42.5 0.8649,-5.2012 1.6891,-16.6568 1.8315,-25.4568 l 0.2589,-16 -3.0917,-6 c -7.2236,-14.0186 -18.0612,-27.7393 -24.5531,-31.0848 -2.6114,-1.3458 -7.7864,-5.2799 -11.5,-8.7425 -3.7135,-3.4625 -9.4519,-8.3508 -12.7519,-10.8629 -7.4922,-5.7032 -30.9918,-29.7878 -34.9474,-35.8171 -4.3198,-6.5848 -7.6744,-9.9927 -9.8362,-9.9927 -1.7782,0 -1.8746,0.6358 -1.4022,9.25 0.279,5.0875 1.2165,12.85 2.0834,17.25 0.8668,4.4 2.1366,10.925 2.8217,14.5 1.6229,8.4684 1.6142,130.6691 -0.01,145.5 -0.6024,5.5 -1.7806,16.075 -2.6182,23.5 -4.5242,40.1075 -5.567,56.6641 -6.5803,104.4799 -0.6956,32.8244 -0.7083,52.285 -0.039,59 0.5496,5.5111 1.4582,20.3701 2.0191,33.0201 0.5608,12.65 2.1347,32 3.4975,43 1.3627,11 2.9515,25.625 3.5305,32.5 2.1072,25.0186 6.195,36.818 12.808,36.9696 0.7298,0.017 2.5684,-1.2111 4.0858,-2.7285 z"
       id="path1" />
  </g>
</svg>
