<svg xmlns="http://www.w3.org/2000/svg" viewBox="0 0 200 200" fill="currentColor">
  <!-- Silueta de zorro -->
  <g fill="#CC5500">
    <!-- Cuerpo -->
    <ellipse cx="90" cy="100" rx="38" ry="24"/>

    <!-- Cuello -->
    <rect x="110" y="82" width="14" height="22" rx="7"/>

    <!-- Cabeza triangular -->
    <path d="M 115 65 L 140 85 L 115 95 Z" fill="#CC5500"/>
    <circle cx="120" cy="78" r="16"/>

    <!-- Orejas puntiagudas -->
    <path d="M 112 65 L 108 52 L 118 60 Z"/>
    <path d="M 128 65 L 132 52 L 122 60 Z"/>

    <!-- Hocico alargado -->
    <ellipse cx="138" cy="78" rx="12" ry="8"/>

    <!-- Patas -->
    <rect x="72" y="115" width="7" height="32" rx="3.5"/>
    <rect x="88" y="115" width="7" height="32" rx="3.5"/>
    <rect x="104" y="115" width="7" height="32" rx="3.5"/>
    <rect x="118" y="115" width="7" height="28" rx="3.5"/>

    <!-- Cola esponjosa -->
    <path d="M 52 95 Q 30 92 20 85 Q 10 78 8 70" stroke="#CC5500" stroke-width="18" fill="none" stroke-linecap="round"/>
  </g>
</svg>
