<?xml version="1.0" encoding="UTF-8" standalone="no"?>
<!-- Created with Inkscape (http://www.inkscape.org/) -->

<svg
   version="1.1"
   id="svg1"
   width="2592"
   height="1632"
   viewBox="0 0 2592 1632"
   sodipodi:docname="silueta_zorrodedarwin.svg"
   inkscape:version="1.4.2 (ebf0e940d0, 2025-05-08)"
   xmlns:inkscape="http://www.inkscape.org/namespaces/inkscape"
   xmlns:sodipodi="http://sodipodi.sourceforge.net/DTD/sodipodi-0.dtd"
   xmlns="http://www.w3.org/2000/svg"
   xmlns:svg="http://www.w3.org/2000/svg">
  <defs
     id="defs1" />
  <sodipodi:namedview
     id="namedview1"
     pagecolor="#ffffff"
     bordercolor="#000000"
     borderopacity="0.25"
     inkscape:showpageshadow="2"
     inkscape:pageopacity="0.0"
     inkscape:pagecheckerboard="0"
     inkscape:deskcolor="#d1d1d1"
     inkscape:zoom="0.31134259"
     inkscape:cx="1296"
     inkscape:cy="815.82156"
     inkscape:window-width="1829"
     inkscape:window-height="961"
     inkscape:window-x="0"
     inkscape:window-y="0"
     inkscape:window-maximized="1"
     inkscape:current-layer="g1" />
  <g
     inkscape:groupmode="layer"
     inkscape:label="Image"
     id="g1">
    <path
       style="fill:#000000"
       d="m 740.16117,1593.0403 c -6.5243,-0.6404 -10.2843,-2.7284 -14.9515,-8.3028 -2.7509,-3.2857 -5.0348,-5.0373 -6.8393,-5.2455 -1.6821,-0.194 -3.0883,-1.1837 -3.7092,-2.6106 -0.7393,-1.699 -1.5214,-2.1324 -3,-1.6623 -5.3509,1.7012 -5.9821,1.2716 -6.3022,-4.2896 -0.257,-4.4631 -0.599,-5.25 -2.2814,-5.25 -1.0885,0 -2.2201,-0.6277 -2.5145,-1.3952 -0.9173,-2.3903 1.4221,-9.0052 4.9292,-13.938 8.3223,-11.7055 30.2977,-33.2581 41.4263,-40.6295 6.4226,-4.2541 12.2301,-5.7691 27.0259,-7.0506 19.9462,-1.7275 20.9911,-1.926 24.1551,-4.5883 3.5965,-3.0263 8.5285,-15.3997 9.449,-23.7059 0.354,-3.194 3.9834,-15.7941 8.0653,-28 8.5365,-25.5265 10.319,-32.1095 11.6949,-43.1925 2.4787,-19.9663 0.887,-87.2581 -3.1105,-131.5 -3.0699,-33.9752 -3.684,-40.0441 -5.9197,-58.5 -1.1327,-9.35 -2.7424,-26.45 -3.5773,-38 -0.8348,-11.5499 -2.6717,-30.225 -4.082,-41.5 -1.4102,-11.275 -3.1878,-26.1904 -3.9502,-33.1452 -1.6297,-14.8671 -3.1257,-23.6441 -5.0883,-29.8548 -0.7821,-2.475 -1.8586,-7.875 -2.3923,-12 -0.5336,-4.125 -1.6502,-10.65 -2.4814,-14.5 -0.8311,-3.85 -1.519,-8.6647 -1.5285,-10.6992 -0.01,-2.0346 -0.9473,-8.5596 -2.084,-14.5 -1.6301,-8.52 -3.0308,-12.5958 -6.6326,-19.30082 -5.5975,-10.42 -9.4383,-16.1778 -14.5581,-21.8242 -2.1565,-2.3785 -4.7551,-6.2104 -5.7747,-8.5153 -1.2949,-2.9272 -3.7558,-5.5888 -8.1609,-8.8268 -3.4689,-2.5498 -10.1718,-8.6314 -14.8953,-13.5147 -4.7236,-4.8833 -11.0236,-10.3687 -14,-12.1898 -2.9765,-1.8211 -6.3118,-4.7109 -7.4118,-6.4219 -1.1,-1.711 -5.2552,-5.7471 -9.2338,-8.9692 -3.9785,-3.2221 -10.2785,-9.2955 -14,-13.4965 -6.4298,-7.2585 -17.5987,-18.6155 -25.8069,-26.2416 -2.0719,-1.925 -6.058,-4.8804 -8.858,-6.5675 -2.8,-1.6871 -7.0196,-5.5121 -9.3769,-8.5 -6.2617,-7.9367 -10.0519,-11.624 -16.2197,-15.7792 -3.0224,-2.0361 -6.3974,-5.198 -7.5,-7.0265 -2.5097,-4.1618 -12.3964,-13.7748 -16.4285,-15.9736 -4.8871,-2.6651 -11.045,-9.1003 -13.4486,-14.0544 -1.2271,-2.5293 -5.1329,-8.2362 -8.6794,-12.682 -3.5465,-4.4458 -8.4732,-10.9271 -10.9482,-14.4031 -2.475,-3.4759 -9.45,-10.822 -15.5,-16.3247 -18.89945,-17.1897 -32.37293,-30.6136 -37.78662,-37.6477 -10.38352,-13.4915 -19.38532,-24.573 -27.99154,-34.4584 -7.62543,-8.7588 -14.48964,-18.1688 -21.21461,-29.0829 -1.0167,-1.65 -3.51344,-5.025 -5.54832,-7.5 -2.03488,-2.475 -4.97173,-6.7158 -6.52633,-9.424 -1.5546,-2.7082 -5.35835,-7.6582 -8.45279,-11 -3.09443,-3.3418 -8.16858,-9.5426 -11.27588,-13.7796 -3.1073,-4.237 -8.94797,-10.987 -12.97927,-15 -4.03129,-4.013 -9.84861,-11.1214 -12.92737,-15.7964 -8.55499,-12.9904 -16.12776,-19.6603 -29.81878,-26.2634 -6.31316,-3.0448 -13.27847,-6.077 -15.47847,-6.7382 -2.2,-0.6612 -8.82388,-3.4151 -14.71974,-6.1199 -5.89586,-2.7047 -13.77086,-5.6431 -17.5,-6.5298 -3.72914,-0.8866 -7.56165,-2.0028 -8.51669,-2.4804 -0.95504,-0.4775 -9.568,-0.8683 -19.13992,-0.8683 -14.20552,0 -19.21533,-0.4008 -27.26357,-2.18126 -12.42616,-2.749 -37.65776,-2.92829 -65.86008,-0.468 -42.35465,3.69486 -56.88037,4.71126 -75.5,5.28296 -21.36744,0.656 -23.46175,0.377 -43.79815,-5.83493 -9.148374,-2.79443 -11.017844,-3.78097 -16.744154,-8.83606 -4.36557,-3.85384 -8.46505,-6.42176 -12.70185,-7.95643 -13.05317,-4.72818 -19.67962,-8.84564 -29.45493,-18.30237 -10.37977,-10.04148 -13.56796,-14.0454 -21.19582,-26.61896 -6.04246,-9.96022 -6.51523,-13.9409 -2.56994,-21.63856 2.26889,-4.42683 3.69126,-5.62811 13.54249,-11.43753 6.40075,-3.77462 14.44217,-9.6368 19.21484,-14.00759 9.21796,-8.44177 13.8543,-12.19024 24.70751,-19.97597 4.125,-2.95913 9.525,-7.06891 12,-9.13284 2.475,-2.06393 11.250004,-9.36915 19.500004,-16.23382 8.25,-6.86466 19.78208,-17.35862 25.62684,-23.3199 12.18481,-12.42772 14.89303,-17.06615 22.38465,-38.33869 9.74045,-27.65813 25.79439,-60.30375 35.43429,-72.05548 6.43882,-7.84938 13.148,-16.811 21.10801,-28.19452 2.2114,-3.1625 4.39518,-5.75 4.85284,-5.75 1.68287,0 10.69645,-7.99303 14.09337,-12.49766 6.06408,-8.04153 25.77957,-27.50234 27.86226,-27.50234 2.52805,0 19.44197,-15.07875 24.76238,-22.07566 5.59308,-7.35549 6.26394,-8.83835 7.92416,-17.51552 0.79088,-4.13356 1.89094,-8.36197 2.44458,-9.39645 1.35068,-2.52377 1.23093,-24.21424 -0.19882,-36.012372 -2.26089,-18.65664 -0.99365,-38.54987 2.87801,-45.17906 1.09625,-1.87705 3.08636,-3.53039 4.84406,-4.02435 3.15047,-0.88537 11.35942,-0.16247 15.36545,1.35313 3.27616,1.23947 5.32359,0.37435 7.28082,-3.07643 2.23767,-3.94521 7.21433,-6.3409 13.35668,-6.42968 6.22291,-0.09 10.60066,2.30115 23.70238,12.9461 14.85354,12.06828 40.59768,31.60826 49.27804,37.40238 4.4,2.93698 10.56868,7.69908 13.70817,10.58244 3.13949,2.883362 8.76449,7.332182 12.5,9.886262 3.73551,2.55409 10.99149,7.69862 16.12441,11.4323 9.67319,7.03626 32.21943,19.14865 35.59424,19.12208 1.98497,-0.0156 11.34326,5.84071 15.31684,9.58515 1.23401,1.16285 5.05901,3.60742 8.5,5.43237 3.44099,1.82496 7.60634,4.72718 9.25634,6.44939 4.08714,4.26601 11.87269,9.62039 18.5,12.72307 3.75267,1.75688 9.70098,6.53967 18.72338,15.05461 12.4927,11.79015 13.9726,12.85649 26.7844,19.29914 7.4586,3.75069 15.9983,8.87181 18.9773,11.38027 2.9789,2.50846 8.8476,7.48583 13.0416,11.06083 4.194,3.575 10.4485,8.3 13.8988,10.5 3.4504,2.2 9.7781,6.8383 14.0616,10.30732 4.2835,3.46903 10.3138,7.91446 13.4006,9.87873 3.0868,1.96427 8.0873,6.00673 11.1123,8.98324 5.7642,5.67179 20.7194,16.7611 26.2594,19.47139 1.7823,0.87196 5.7156,2.64602 8.7406,3.94235 3.025,1.29634 9.325,4.75578 14,7.68764 15.1192,9.48179 53.3079,27.75086 67.5,32.29132 7.15,2.28749 16.15,5.67309 20,7.52356 9.7417,4.68227 22.8188,6.65906 41.5,6.27333 7.975,-0.16467 15.1706,0.11808 15.9902,0.62832 0.8196,0.51025 5.0946,1.00453 9.5,1.09842 9.6844,0.20639 14.1789,1.1168 17.5019,3.54518 1.7012,1.24317 5.7248,2.17324 12.5079,2.8912 5.5,0.58215 11.6967,1.71535 13.7703,2.51823 2.0736,0.80287 5.1256,1.45977 6.7821,1.45977 1.6565,0 4.6274,0.675 6.6019,1.5 1.9745,0.825 4.3544,1.5 5.2887,1.5 0.9343,0 6.5083,1.81241 12.3867,4.02758 20.4861,7.71989 52.08193,8.95665 75.06073,2.93812 20.2461,-5.30281 39.146,-7.661 72.6097,-9.05975 0.825,-0.0345 4.9459,0.46001 9.1575,1.09888 5.3157,0.80634 9.5971,0.86466 14,0.1907 4.4555,-0.68202 6.9375,-0.64168 8.3425,0.13559 1.997,1.1048 20.3229,1.87915 45,1.90145 8.5875,0.008 15.0366,-0.51809 19,-1.54923 3.3,-0.85853 13.2,-2.05346 22,-2.6554 8.8,-0.60193 18.25,-1.50008 21,-1.99587 2.75,-0.4958 9.6931,-1.19761 15.4291,-1.5596 5.736,-0.36198 11.586,-1.13001 13,-1.70672 2.9124,-1.18787 18.3231,-2.90051 28.0709,-3.11964 3.575,-0.0804 9.171,-0.75784 12.4355,-1.50552 3.7029,-0.84807 7.8405,-1.10068 11,-0.67157 6.6576,0.9042 4.6192,0.95149 47.0645,-1.09182 20.35,-0.97964 44.875,-1.6656 54.5,-1.52435 23.2124,0.34066 65.3562,0.4478 71,0.18049 16.544,-0.78356 80.6931,4.57045 126.5,10.55793 6.6,0.8627 17.175,2.16299 23.5,2.88953 6.325,0.72655 14.65,2.2929 18.5,3.48079 3.85,1.18788 8.3819,2.58248 10.071,3.0991 1.689,0.51662 4.9451,0.93931 7.2356,0.93931 5.2743,0 11.6754,1.55555 21.1934,5.15025 4.125,1.55791 12.45,3.99955 18.5,5.42587 6.05,1.42632 13.5875,3.68019 16.75,5.00859 15.423,6.47844 18.5396,7.91248 22.2191,10.22379 2.183,1.37127 8.4197,4.42506 13.8592,6.78621 5.4396,2.36115 10.6285,4.92593 11.5309,5.6995 1.9889,1.70492 27.9245,13.70579 29.6201,13.70579 0.6619,0 4.8539,1.80812 9.3156,4.01804 4.4617,2.20992 11.8011,5.59698 16.3099,7.5268 4.5087,1.92983 11.1671,5.56115 14.7964,8.0696 3.6294,2.50846 13.5738,9.17879 22.0988,14.82297 39.2584,25.99196 42.6489,28.34694 49.3733,34.29389 2.0095,1.77721 4.9085,3.88017 6.4421,4.67322 1.5336,0.79306 4.6729,3.48641 6.9762,5.98522 4.4177,4.79263 13.7939,11.61026 15.9674,11.61026 2.0846,0 10.2202,8.06361 13.8317,13.7092 2.3322,3.64587 5.6732,6.82397 11.0471,10.50865 10.5775,7.25258 14.1691,10.4851 16.3191,14.6875 1.0115,1.977 3.915,5.5367 6.4523,7.9102 2.5373,2.3736 6.1916,6.7829 8.1207,9.7986 1.9291,3.0157 10.8259,12.9987 19.7707,22.1844 20.8308,21.3921 26.342,27.5805 28.729,32.2595 1.0645,2.0866 8.1726,10.2397 15.7958,18.1179 13.3,13.7451 26.1746,29.6107 26.1746,32.2557 0,2.2631 7.5463,12.8762 16.1073,22.6532 4.616,5.2716 11.0927,12.9002 14.3927,16.9524 6.1835,7.593 17.6495,19.7402 47.0372,49.8319 11.6701,11.9494 18.316,17.9825 21.2998,19.3352 3.7257,1.6891 4.254,2.2968 3.7484,4.3116 -0.3238,1.2898 -0.1687,3.4499 0.3447,4.8001 1.0457,2.7505 6.1496,7.9173 10.3199,10.4469 1.5125,0.9175 2.75,2.3742 2.75,3.237 0,0.8629 1.333,2.3562 2.9621,3.3186 2.6546,1.5681 2.9201,2.1731 2.5567,5.8256 -0.223,2.2418 -0.638,4.3083 -0.9222,4.5926 -2.0082,2.0082 8.6428,12.9423 22.6067,23.2075 4.7867,3.5189 8.4941,6.7363 8.2385,7.1499 -0.2556,0.4135 -1.8356,1.053 -3.5112,1.421 l -3.0464,0.6691 4.9682,5.2531 c 2.7633,2.9219 5.4116,6.8591 5.9674,8.872 1.2785,4.6305 8.4804,13.1176 23.9219,28.1906 6.7613,6.6 12.2854,12.4783 12.2758,13.0629 -0.01,0.5846 1.3468,2.37 3.0142,3.9675 2.3661,2.2668 2.9052,3.4804 2.4555,5.5277 -0.3774,1.7184 -0.043,3.0653 0.9683,3.905 0.8495,0.705 1.5445,1.6949 1.5445,2.1998 0,2.1457 4.9229,7.3536 10.5,11.1078 3.3,2.2214 6.1979,4.2046 6.4397,4.4071 0.2418,0.2025 -0.491,1.02 -1.6284,1.8167 l -2.0681,1.4486 2.3784,4.6979 c 1.3081,2.5839 2.3784,5.2602 2.3784,5.9474 0,0.6872 3.6459,4.5414 8.1019,8.565 4.6504,4.1991 8.7186,8.8133 9.5495,10.8311 0.8056,1.9566 3.421,4.9707 5.898,6.7972 2.4478,1.8049 4.4506,4.0925 4.4506,5.0836 0,1.959 4.5553,6.891 13.3719,14.4777 6.2013,5.33632 6.8851,7.22862 3.1281,8.65702 -1.375,0.5228 -2.5,1.3694 -2.5,1.8814 0,0.5121 2.1953,2.5081 4.8784,4.4357 4.0183,2.8869 4.796,3.9353 4.4114,5.9471 -0.3749,1.9615 0.4576,3.2093 4.23,6.339 12.4938,10.3656 20.4802,20.6398 20.4802,26.3468 0,3.7933 1.4101,6.05 3.7802,6.05 1.2499,0 2.9864,1.2946 12.7198,9.4824 l 3,2.5237 -2.4849,2.0975 -2.485,2.0975 2.437,1.9733 c 1.3403,1.0853 5.3835,3.7363 8.9849,5.891 8.7467,5.233 12.9903,9.0621 13.9077,12.5495 0.5213,1.9816 2.1498,3.6682 5.1997,5.3851 2.4423,1.375 7.2646,5.3125 10.7161,8.75 3.4515,3.4375 6.6627,6.25 7.136,6.25 0.4734,0 1.6132,1.5861 2.533,3.5245 1.8402,3.8778 5.1402,6.2332 17.2954,12.3447 8.9452,4.4977 10.1083,5.5569 7.6266,6.9456 -2.4869,1.3918 -1.1592,3.5366 5.0113,8.0951 3.0246,2.2343 6.6598,5.5841 8.0783,7.4438 1.4185,1.8597 5.2704,5.2691 8.5599,7.5766 8.4548,5.9306 10.21,10.0698 4.27,10.0698 -2.58,0 -2.5842,0.013 -0.691,2.1461 1.0478,1.1805 4.38,3.7354 7.405,5.6776 3.025,1.9422 5.95,4.0454 6.5,4.6738 0.55,0.6283 2.2375,1.9087 3.75,2.8455 3.3292,2.0618 3.5707,4.4 0.5,4.8409 -1.6693,0.2398 -0.8306,0.8405 3.25,2.3279 6.4616,2.355 7.643,5.0506 3.6057,8.2264 l -2.5031,1.9688 3.2463,3.1466 c 1.7855,1.7304 3.7408,3.1464 4.3451,3.1464 2.3984,0 7.306,7.0285 7.306,10.4634 0,3.17 2.056,6.5366 3.992,6.5366 0.467,0 1.1604,1.4174 1.5409,3.1497 0.3805,1.7324 2.4505,4.8736 4.6,6.9806 3.4655,3.3969 3.7659,4.0589 2.6515,5.8434 -1.1226,1.7974 -0.8311,2.3603 2.7294,5.2693 5.3542,4.3747 10.4756,9.9799 10.4814,11.4717 0.01,1.9269 -3.4777,3.2853 -8.4295,3.2853 -5.0459,0 -5.9244,1.4604 -2.6571,4.4173 3.0009,2.7157 4.4554,7.034 3.1751,9.4262 -1.4375,2.6862 -1.3708,3.1565 0.4477,3.1565 0.8422,0 1.7838,0.6579 2.0924,1.4619 0.3085,0.8041 1.4194,1.7344 2.4686,2.0674 2.536,0.8049 2.417,3.0005 -0.2642,4.8785 l -2.1719,1.5212 2.8001,2.7855 c 4.4177,4.3947 7.8865,9.2759 7.1297,10.0327 -0.381,0.381 -2.5813,-0.3075 -4.8894,-1.53 -5.451,-2.8871 -6.3084,-2.7998 -4.194,0.4272 1.4326,2.1865 1.4958,2.7876 0.365,3.4715 -4.4747,2.7061 -4.4903,2.7542 -1.6575,5.1203 1.4906,1.2451 3.3965,4.2888 4.2354,6.7638 1.9767,5.8317 1.9421,6.2578 -0.4456,5.5 -3.2256,-1.0238 -2.317,1.2757 1.478,3.7408 5.7107,3.7094 6.0001,7.718 0.322,4.4592 -3.8509,-2.2101 -4.6832,-1.4652 -2.4974,2.2351 2.0023,3.3896 2.201,6.0737 0.4474,6.0429 -0.6875,-0.012 -3.1421,-0.8809 -5.4546,-1.9307 -3.8805,-1.7617 -4.2407,-1.7793 -4.6728,-0.2281 -0.9266,3.3257 -0.4623,10.7402 0.8567,13.6808 0.7401,1.65 1.9203,5.025 2.6227,7.5 0.7025,2.475 1.8669,5.3876 2.5876,6.4725 1.3369,2.0124 1.7914,5.5275 0.7148,5.5275 -0.3276,0 -1.9092,-0.9353 -3.5146,-2.0785 -4.9684,-3.5378 -5.752,-1.5422 -1.1398,2.9026 2.3375,2.2527 4.25,4.5638 4.25,5.1358 0,1.512 -3.648,1.2735 -6.9948,-0.4572 -2.7203,-1.4067 -2.9897,-1.363 -4.4504,0.7225 -0.8551,1.2209 -1.5548,2.7772 -1.5548,3.4584 0,0.6811 -0.888,2.0658 -1.9733,3.0769 -1.9576,1.8238 -1.9444,1.8997 1.6595,9.5239 2.777,5.8748 3.4155,8.1727 2.7101,9.7535 -0.8891,1.9926 -1.1293,1.9202 -6.5827,-1.9849 -6.2151,-4.4506 -8.5588,-5.2192 -6.6643,-2.1855 0.6415,1.0272 0.877,2.6216 0.5234,3.5432 -0.5195,1.3538 -1.0382,1.4641 -2.7006,0.5744 -1.6978,-0.9087 -2.3664,-0.7197 -3.8245,1.081 -1.7012,2.1009 -1.8857,2.1207 -4.9573,0.5323 -3.7939,-1.9619 -3.9788,-1.2707 -1.5059,5.6289 1.8527,5.1691 1.3082,6.9248 -1.4283,4.605 -1.7394,-1.4746 -9.022,-5.8323 -9.7468,-5.8323 -0.2071,0 -0.5188,1.2375 -0.6929,2.75 -0.2434,2.1153 -0.778,2.6749 -2.3164,2.4246 -1.1,-0.1789 -5.0988,-0.7205 -8.8862,-1.2036 -4.9782,-0.6349 -7.5647,-1.5145 -9.3349,-3.1746 l -2.4488,-2.2964 -1.915,2.3608 c -1.0533,1.2984 -1.9151,3.6344 -1.9151,5.191 0,3.6822 -1.4956,4.5087 -4.544,2.5113 -2.4112,-1.5798 -2.456,-1.5569 -2.456,1.2589 0,1.5774 -0.8472,3.6348 -1.8827,4.5719 -1.7935,1.623 -2.1046,1.5118 -6.5608,-2.345 -3.215,-2.7825 -5.6116,-4.0489 -7.6628,-4.0489 -1.8636,0 -3.9396,-0.955 -5.5272,-2.5426 -1.3985,-1.3985 -3.9655,-2.8127 -5.7046,-3.1429 -1.739,-0.33 -4.3994,-1.2224 -5.9119,-1.983 -2.6436,-1.3293 -2.75,-1.2839 -2.75,1.1741 0,3.4989 -2.5939,4.2201 -5.8281,1.6209 -1.4695,-1.181 -4.4719,-3.3365 -6.6719,-4.79 -2.2,-1.4535 -5.2193,-3.4737 -6.7095,-4.4895 -1.4902,-1.0159 -4.2724,-1.847 -6.1826,-1.847 -2.491,0 -3.6378,-0.519 -4.0556,-1.8354 -1.0322,-3.2519 -7.2539,-9.4931 -8.8522,-8.8798 -0.9031,0.3466 -1.7683,2.5758 -2.1902,5.6429 -0.3835,2.7886 -1.1047,5.3219 -1.6028,5.6297 -0.498,0.3078 -1.8165,-0.9844 -2.9299,-2.8715 -1.7377,-2.9451 -2.6853,-3.5056 -6.69,-3.957 -4.318,-0.4867 -6.4859,-1.9462 -7.6061,-5.1207 -0.2151,-0.6095 -1.3232,0.017 -2.4623,1.3918 l -2.0713,2.5 -3.6173,-3.4884 c -1.9895,-1.9186 -4.3739,-5.6187 -5.2987,-8.2225 -0.9248,-2.6037 -2.4111,-5.7015 -3.303,-6.8839 l -1.6216,-2.1498 -3.8141,4.1223 c -2.0977,2.2673 -4.2194,4.1223 -4.7147,4.1223 -0.4954,0 -0.642,-1.9125 -0.326,-4.25 0.7564,-5.5939 -1.4174,-8.8773 -4.5727,-6.9068 -1.7354,1.0838 -2.3518,1.0393 -3.8039,-0.2749 -2.2989,-2.0805 -3.3938,-1.9791 -5.6593,0.5243 -2.9475,3.257 -5.1498,4.1203 -7.4162,2.9074 -1.1,-0.5887 -2,-1.6708 -2,-2.4046 0,-0.7338 -1.8,-3.5948 -4,-6.3579 -2.2,-2.7631 -4,-5.5828 -4,-6.266 0,-0.6832 -1.0125,-2.2176 -2.25,-3.4097 -1.2375,-1.1922 -3.18,-3.469 -4.3167,-5.0595 l -2.0668,-2.892 -3.57,2.2065 -3.5701,2.2064 -1.6132,-4.0318 c -0.8873,-2.2176 -1.6132,-4.8962 -1.6132,-5.9526 0,-3.0384 -1.6667,-3.278 -3.8138,-0.5483 -2.5188,3.2021 -2.8856,3.1544 -3.6837,-0.479 -0.9023,-4.1081 -2.4369,-4.7413 -4.6175,-1.9053 -1.396,1.8156 -1.8459,2.0007 -1.8628,0.7662 -0.038,-2.8131 -2.3919,-4.0022 -4.709,-2.3792 -2.3786,1.666 -3.3132,1.0799 -3.3132,-2.0781 0,-3.7916 -1.0367,-5.2721 -4.4897,-6.4117 -3.8293,-1.2638 -10.5103,-9.214 -10.5103,-12.507 0,-1.35 -0.9486,-2.6076 -2.5,-3.3144 -1.85,-0.8429 -2.5,-1.9115 -2.5,-4.1097 0,-4.1862 -5.2206,-8.0723 -10.8444,-8.0723 -4.6827,0 -5.0416,-0.6218 -3.6224,-6.2764 0.572,-2.2791 0.375,-2.7112 -1.1728,-2.5729 -4.1064,0.3668 -6.3604,-0.2181 -6.3604,-1.6507 0,-1.7452 -2.1148,-1.9852 -3.6821,-0.4179 -0.7761,0.7761 -1.7179,0.7055 -3.3307,-0.25 -1.7758,-1.0521 -2.3437,-1.0693 -2.7012,-0.082 -0.7258,2.0043 -2.5414,1.4564 -4.9698,-1.5 l -2.2589,-2.75 -3.361,3.9213 c -2.1637,2.5243 -3.9045,3.7128 -4.8865,3.336 -1.6865,-0.6472 -2.8098,-4.974 -2.8098,-10.8233 0,-2.0988 -0.4586,-4.0994 -1.019,-4.4458 -0.5605,-0.3463 -2.1431,-2.8479 -3.5169,-5.559 -2.7404,-5.4081 -3.8325,-5.9779 -5.4966,-2.8685 -1.7953,3.3545 -5.1507,2.1015 -6.8574,-2.5607 -0.8054,-2.2 -1.6069,-4.1847 -1.7811,-4.4105 -0.717,-0.9294 -4.3879,3.4313 -5.517,6.5538 -0.6676,1.8462 -1.5252,3.3567 -1.9059,3.3567 -1.8962,0 -2.7062,-9.3874 -0.9061,-10.5 1.4259,-0.8813 1.2391,-7.061 -0.25,-8.2699 -0.6875,-0.5582 -2.15,-1.1802 -3.25,-1.3822 -1.4081,-0.2586 -2.1607,-1.4002 -2.5431,-3.8576 -0.2987,-1.9197 -1.3112,-5.1633 -2.25,-7.2082 -0.9388,-2.0448 -1.7069,-4.6323 -1.7069,-5.75 0,-1.1176 -0.45,-2.0321 -1,-2.0321 -0.55,0 -1.0041,-0.7875 -1.0091,-1.75 -0.013,-2.5053 -4.491,-11.4166 -5.3201,-10.5875 -0.382,0.382 -0.4546,2.0767 -0.1614,3.766 0.2931,1.6893 0.1077,3.7176 -0.412,4.5072 -0.813,1.2352 -1.1816,1.2393 -2.6394,0.029 -1.4977,-1.2429 -1.9583,-1.0754 -3.9655,1.4418 -3.0733,3.8544 -4.871,2.6255 -4.0578,-2.7739 0.7572,-5.0282 0.7422,-10.7894 -0.03,-11.5617 -0.3125,-0.3125 -1.1765,0.2637 -1.9199,1.2804 -2.0709,2.8321 -3.7946,0.9947 -3.2032,-3.4143 0.5609,-4.1819 -0.2585,-4.9374 -5.3549,-4.9374 -1.8267,0 -3.3746,0.7444 -4.1588,2 -0.6869,1.1 -1.9815,2 -2.8768,2 -2.0722,0 -3.2543,-7.4455 -1.6021,-10.0911 1.7257,-2.7633 -0.05,-3.5824 -3.489,-1.6089 -1.689,0.9693 -3.3239,1.5094 -3.6331,1.2002 -0.3092,-0.3092 -0.6364,-3.5858 -0.727,-7.2812 -0.091,-3.6955 -0.4955,-8.2187 -0.8999,-10.0516 l -0.7352,-3.3326 -2.4551,2.3064 c -2.088,1.9616 -2.6038,2.0861 -3.4502,0.8326 -0.5473,-0.8106 -0.7713,-3.5988 -0.4977,-6.1959 0.8182,-7.768 -1.8539,-7.2839 -3.9485,0.7154 -0.6747,2.5768 -1.7036,4.1238 -2.8952,4.3533 -1.615,0.311 -1.7528,-0.068 -1.0909,-2.9953 1.3831,-6.1176 1.1821,-7.1901 -1.4672,-7.8311 -1.3762,-0.3329 -3.1047,-1.8601 -3.8452,-3.3973 -1.3447,-2.7914 -1.3462,-2.7917 -3.5,-0.8327 -6.4396,5.8571 -9.6548,5.2782 -9.6548,-1.7385 0,-4.825 -0.146,-5.0855 -3.9322,-7.0171 -4.4468,-2.2686 -5.132,-3.1133 -6.0108,-7.4101 -0.4411,-2.1571 -1.346,-3.2209 -3.0904,-3.6336 -2.054,-0.4858 -2.4148,-1.0946 -2.1567,-3.6393 0.4399,-4.3387 -3.7948,-8.9463 -11.5,-12.5127 -5.8254,-2.6963 -8.4141,-5.8389 -4.8099,-5.8389 2.5468,0 1.6528,-2.7376 -1.0636,-3.2569 -1.9807,-0.3786 -3.0467,0.1633 -4.6881,2.3834 -1.1684,1.5804 -2.9398,2.8735 -3.9364,2.8735 -0.9965,0 -1.8066,-0.1125 -1.8,-0.25 0.01,-0.1375 0.6762,-2.725 1.4881,-5.75 1.6702,-6.2226 1.9592,-17.7407 0.5017,-20 -0.7935,-1.2301 -1.6827,-0.6904 -4.942,3 -2.1859,2.475 -3.9936,4.8375 -4.0171,5.25 -0.023,0.4125 -0.7176,0.75 -1.5426,0.75 -1.0408,0 -1.5,-1.0465 -1.5,-3.4182 0,-6.5642 -0.7741,-7.0078 -5.4882,-3.145 -4.3661,3.5777 -5.5118,3.6465 -5.5118,0.3308 0,-1.0445 -0.4823,-2.8003 -1.0718,-3.9018 -1.046,-1.9545 -1.1303,-1.9398 -3.4899,0.6063 -1.9992,2.1572 -2.7662,2.4228 -4.4282,1.5333 -2.5116,-1.3442 -2.5131,-2.0963 -0.01,-5.2783 2.4296,-3.0888 2.4899,-3.7271 0.3516,-3.7271 -1.4785,0 -1.5917,-1.4323 -1.0982,-13.8982 0.5685,-14.3603 0.1988,-16.1018 -3.4182,-16.1018 -2.3701,0 -4.164,-3.606 -3.4844,-7.0041 0.8633,-4.3162 -0.3062,-4.2917 -5.0774,0.1062 -4.25,3.9175 -4.4948,4.0075 -6.347,2.3313 -1.3631,-1.2336 -1.9264,-3.0712 -1.9264,-6.2846 v -4.5411 l -3.5,3.3923 -3.5,3.3923 v -3.2472 c 0,-2.7658 -0.5188,-3.4639 -3.5,-4.7095 -3.7411,-1.5632 -4.4253,-3.4228 -2,-5.4356 2.0678,-1.7161 1.8777,-3 -0.4442,-3 -1.0694,0 -3.155,-1.0414 -4.6347,-2.3142 -2.3298,-2.004 -2.5336,-2.6071 -1.5205,-4.5 1.0167,-1.8997 0.915,-2.1858 -0.7765,-2.1858 -2.9817,0 -7.3937,-5.7895 -6.655,-8.7328 0.3335,-1.3288 0.7169,-6.0828 0.8519,-10.5642 0.2206,-7.3207 -0.045,-8.68412 -2.6128,-13.42562 -1.5721,-2.9026 -3.034,-5.2774 -3.2485,-5.2774 -0.2146,0 -2.0267,1.437 -4.027,3.1932 -3.3555,2.9462 -3.7151,3.0536 -4.6476,1.3872 -1.693,-3.0252 -4.7995,-5.6895 -5.8656,-5.0307 -0.5541,0.3425 -2.1127,-0.1015 -3.4635,-0.9866 -2.1416,-1.4032 -2.456,-2.3531 -2.456,-7.4195 0,-6.6892 -0.6254,-7.7926 -3.1316,-5.5245 -3.1305,2.8331 -4.8684,1.0605 -4.8684,-4.9657 0,-4.3748 -0.3991,-5.6744 -2.0864,-6.7948 -1.853,-1.2303 -1.9471,-1.691 -0.8413,-4.1179 1.0536,-2.3124 0.99,-3.0144 -0.4136,-4.5654 -0.9123,-1.008 -1.6587,-2.3325 -1.6587,-2.9432 0,-0.6108 -1.8,-3.1902 -4,-5.7321 -2.2,-2.5419 -4,-5.3123 -4,-6.1564 0,-0.8442 -0.9341,-2.8466 -2.0757,-4.4499 -1.3766,-1.9333 -1.9741,-4.0945 -1.774,-6.4171 0.2374,-2.7549 -0.2799,-4.0414 -2.4243,-6.0298 -1.4993,-1.3903 -2.726,-3.158 -2.726,-3.9282 0,-3.3621 -2.1268,-2.202 -4.4812,2.4444 -2.6634,5.2558 -3.3727,5.7831 -5.2516,3.9042 -0.623,-0.623 -1.8302,-0.8651 -2.6826,-0.538 -1.6395,0.6291 -1.4572,3.6912 0.6281,10.5495 0.9895,3.2542 0.8571,3.5243 -3.5927,7.3278 -3.8435,3.2854 -4.62,4.5311 -4.62,7.4118 0,2.0226 -0.9358,4.7284 -2.25,6.506 -1.6036,2.1689 -2.25,4.4325 -2.25,7.8789 0,3.6385 -0.5571,5.4286 -2.25,7.2307 -2.6725,2.8447 -2.7531,3.5527 -0.667,5.8578 1.4578,1.6108 1.3985,1.8452 -0.75,2.9642 -3.2034,1.6683 -3.1333,1.5144 -1.8119,3.9834 0.9167,1.7129 0.9061,2.7282 -0.047,4.5086 -0.6785,1.268 -0.9399,3.4531 -0.583,4.875 0.3708,1.4774 0.2218,2.5771 -0.3492,2.5771 -0.5478,0 -1.7479,1.1475 -2.6668,2.55 -1.6254,2.48062 -1.5853,2.63812 1.477,5.79762 1.7312,1.7862 3.1477,3.7512 3.1477,4.3667 0,0.6155 0.5625,1.3112 1.25,1.5461 0.9632,0.329 0.9953,1.1191 0.1398,3.4431 -0.8546,2.3217 -0.8052,3.5664 0.2145,5.4063 1.7722,3.1973 1.7209,5.3754 -0.1632,6.9391 -1.6502,1.3695 -1.2409,7.4875 0.7547,11.2843 0.6917,1.3158 0.5336,2.3083 -0.5602,3.5169 -1.3696,1.5134 -1.327,2.1232 0.4203,6.0261 2.5114,5.6094 2.4511,7.5432 -0.2922,9.3647 -1.7267,1.1465 -1.9833,1.8009 -1.1264,2.872 0.6103,0.7629 1.3238,3.7314 1.5855,6.5967 0.3731,4.0846 1.3318,6.3519 4.4398,10.5 5.9883,7.9923 5.9127,7.6016 2.2094,11.4224 l -3.3527,3.4592 4.7815,9.3755 c 2.6298,5.1565 5.888,11.0059 7.2403,12.9988 1.3524,1.9928 2.4589,4.3007 2.4589,5.1286 0,0.8279 0.7244,2.9061 1.6098,4.6183 1.0409,2.0129 1.4268,4.4784 1.0917,6.9761 -0.4644,3.4625 -0.061,4.3986 3.8902,9.0275 2.4246,2.8405 4.4097,5.6414 4.4115,6.2242 0,0.5829 1.8003,3.7598 3.9968,7.0598 2.1965,3.3 3.9951,6.3654 3.9968,6.8119 0.012,3.0502 6.2815,12.8916 12.3757,19.4265 3.9811,4.2689 9.3251,10.9116 11.8755,14.7616 2.5609,3.8658 11.1551,13.4864 19.1946,21.4871 l 14.5574,14.487 0.035,7.013 c 0.019,3.8571 0.6785,9.9379 1.4649,13.5129 2.4701,11.23 1.9081,22.0834 -2.1098,40.739 -1.9854,9.2186 -4.019,19.686 -4.5191,23.261 -0.5001,3.575 -1.5758,10.55 -2.3906,15.5 -0.8148,4.95 -1.9451,12.6 -2.5118,17 -0.5668,4.4 -1.4964,9.8 -2.0658,12 -0.5694,2.2 -1.6501,7.5241 -2.4016,11.8312 -0.7514,4.3072 -2.0442,10.1572 -2.8727,13 -0.8285,2.8429 -2.2338,8.7688 -3.1229,13.1688 -0.8891,4.4 -2.2461,10.25 -3.0156,13 -0.7695,2.75 -1.9139,7.925 -2.5432,11.5 -3.1855,18.0987 -3.988,21.6142 -8.4469,37 -1.8331,6.325 -3.6323,13.075 -3.9983,15 -0.3661,1.925 -1.7147,6.65 -2.997,10.5 -1.2822,3.85 -3.1022,11.05 -4.0443,16 -0.9421,4.95 -2.0438,9.9 -2.4481,11 -1.9009,5.1713 -3.0123,9.3265 -3.0123,11.262 0,1.166 -0.45,2.3981 -1,2.738 -0.55,0.3399 -1,1.4139 -1,2.3866 0,2.7026 -9.2475,24.9463 -15.2214,36.6134 -4.4678,8.7255 -10.8797,16.5033 -16.5812,20.1132 -3.1336,1.984 -6.5974,4.4077 -7.6974,5.3858 -1.1,0.9781 -3.8,2.0941 -6,2.4799 -5.7437,1.0073 -52.6068,2.2481 -90.4566,2.3951 l -32.4565,0.126 -5.6094,-3.9347 c -3.0851,-2.1642 -6.9297,-4.2427 -8.5434,-4.619 -1.6138,-0.3763 -3.9973,-1.3493 -5.2969,-2.1622 -1.3739,-0.8594 -3.6757,-1.2783 -5.5,-1.0008 -3.9878,0.6066 -6.2187,-0.5734 -8.1518,-4.3116 -0.8445,-1.633 -3.561,-4.9947 -6.0367,-7.4704 -4.2336,-4.2336 -4.8254,-4.5013 -9.95,-4.5013 h -5.4487 l 0.5881,-3.25 c 2.4792,-13.7002 19.1432,-33.2725 42.3619,-49.7551 4.125,-2.9283 7.9796,-5.8977 8.5658,-6.5987 1.8407,-2.2014 9.3572,-3.26 27.3904,-3.8578 13.4053,-0.4443 18.0102,-0.9416 19.8435,-2.1428 3.1908,-2.0907 5.7441,-8.2773 7.1793,-17.3956 0.6493,-4.125 2.4803,-11.775 4.069,-17 1.5887,-5.225 3.8015,-13.1 4.9173,-17.5 1.1159,-4.4 3.374,-12.95 5.0181,-19 2.7892,-10.2639 4.4076,-19.615 7.0094,-40.5 0.5824,-4.675 1.5873,-10.75 2.2332,-13.5 2.7145,-11.557 0.1439,-47.5281 -4.3496,-60.867 -2.922,-8.6738 -8.0613,-18.3192 -13.3915,-25.133 -2.5815,-3.3 -5.6001,-7.8 -6.7082,-10 -3.0462,-6.0484 -14.8744,-22.2734 -20.9176,-28.693 -13.8724,-14.7366 -47.2236,-43.8952 -58.3821,-51.0428 -2.1874,-1.4011 -7.127,-5.3273 -10.977,-8.7249 -7.0956,-6.2617 -17.9111,-14.0393 -19.5231,-14.0393 -0.8022,0 -15.1634,-11.2439 -27.3626,-21.4233 -18.6476,-15.56 -56.8677,-52.5095 -61.0338,-59.0046 -4.6985,-7.3253 -14.6926,-19.5097 -25.3854,-30.9489 -5.1177,-5.475 -10.4903,-12.0174 -11.9392,-14.5388 -1.4488,-2.5214 -4.2366,-6.1914 -6.195,-8.1554 -1.9585,-1.9641 -4.8012,-5.3391 -6.317,-7.5 -1.5159,-2.161 -4.5135,-6.1339 -6.6614,-8.8288 -2.1478,-2.6949 -6.4822,-9.6699 -9.632,-15.5 -3.1497,-5.8301 -7.0384,-12.40022 -8.6415,-14.60022 -6.6629,-9.1435 -12.3331,-18.6961 -17.9045,-30.1633 -6.1309,-12.6187 -10.0555,-17.3364 -14.422,-17.3364 -1.3004,0 -2.6424,-0.45 -2.9823,-1 -0.3399,-0.55 -1.8743,-1 -3.4098,-1 -1.5355,0 -4.2451,-0.5066 -6.0215,-1.1259 -2.2994,-0.8016 -3.8546,-0.8207 -5.3992,-0.066 -1.1932,0.5827 -6.6863,1.2413 -12.2068,1.4635 -7.4912,0.3016 -10.7381,0.8633 -12.7998,2.2141 -2.6998,1.769 -2.8766,1.7566 -7.799,-0.5489 l -5.0365,-2.359 -1.8558,2.4614 c -1.4964,1.9847 -2.8836,2.5164 -7.1637,2.7459 -7.7172,0.4139 -8.0666,0.4047 -10.8079,-0.2819 -1.837,-0.4602 -3.7773,0.2224 -7.3163,2.5737 -4.5564,3.0272 -5.0212,3.1324 -8.611,1.9476 -3.2947,-1.0873 -4.1461,-1.022 -6.4625,0.4958 -2.4729,1.6203 -10.768,2.3234 -29.8602,2.5308 -2.2846,0.025 -2.75,0.4683 -2.75,2.6205 0,2.4558 -0.1952,2.5529 -3.75,1.8657 -2.0625,-0.3987 -4.9676,-0.9558 -6.4559,-1.2379 -1.8959,-0.3594 -3.6254,0.2067 -5.7781,1.8915 -2.916,2.2821 -3.4903,2.362 -11.2941,1.5719 -4.7776,-0.4837 -14.7152,-0.4108 -23.7219,0.174 -8.525,0.5535 -18.9783,0.9884 -23.2296,0.9664 -5.5653,-0.029 -8.5431,0.4407 -10.635,1.6764 -2.565,1.5152 -3.4753,1.5643 -7.7704,0.4188 -3.122,-0.8326 -15.0044,-1.5125 -33.1657,-1.8977 l -28.3006,-0.6002 -1.462,2.2341 c -2.0007,3.0573 -5.5813,3.7596 -9.3175,1.8275 -1.703,-0.8806 -6.4744,-2.2997 -10.6033,-3.1536 -6.8045,-1.4072 -8.0132,-1.4053 -12.9154,0.02 -2.9746,0.8647 -7.2698,1.5723 -9.5449,1.5723 -2.5438,0 -5.1799,0.7624 -6.8461,1.9801 -2.5807,1.886 -3.0422,1.9097 -9.7091,0.5 -7.8371,-1.6572 -18.6023,-1.9602 -20.0504,-0.5644 -0.8487,0.8181 -10.7262,2.0594 -15.95,2.0044 -17.7396,-0.1868 -34.6097,0.3495 -41,1.3034 -4.4,0.6568 -12.95,1.0806 -19,0.9417 -14.4121,-0.3308 -42.9513,2.1608 -47.7589,4.1696 -12.1878,5.0923 -16.3559,12.3156 -20.292,35.16522 -0.758,4.4 -1.8333,9.8 -2.3897,12 -0.5564,2.2 -1.0224,6.0825 -1.0355,8.6279 -0.013,2.5453 -0.6555,6.1453 -1.4274,8 -0.77203,1.8546 -1.62643,7.8721 -1.89873,13.3721 -0.6122,12.365 -2.014,21.8984 -6.3226,43 -0.8985,4.4 -1.7564,10.925 -1.9066,14.5 -0.5284,12.5803 -3.4368,37.5754 -4.9464,42.5096 -0.8397,2.7447 -2.2193,12.1904 -3.0657,20.9904 -0.8464,8.8 -2.0585,17.8 -2.6934,20 -1.4765,5.116 -1.716,6.659 -2.2076,14.2233 -0.2225,3.4228 -0.7142,6.7243 -1.0926,7.3367 -0.3785,0.6123 -1.0669,6.1368 -1.5298,12.2767 -1.5421,20.4543 -3.8079,40.5606 -4.775,42.3725 -0.5257,0.9849 -1.2739,4.4908 -1.6628,7.7908 -0.3888,3.3 -1.3199,8.025 -2.069,10.5 -0.7492,2.475 -1.8362,10.35 -2.4156,17.5 -0.5794,7.15 -1.6991,14.8 -2.4882,17 -0.7891,2.2 -1.4573,6.7 -1.4848,10 -0.028,3.3 -0.7257,7.2954 -1.5514,8.8788 -1.0922,2.0941 -1.463,5.7736 -1.3606,13.5 0.1371,10.3405 -0.1215,14.392 -2.1776,34.1212 -0.5446,5.225 -1.1009,14.2566 -1.2363,20.0702 -0.2901,12.4507 -1.4939,15.0501 -8.3263,17.9788 -5.216,2.2359 -7.4921,6.3373 -9.3926,16.9248 -0.6392,3.5606 -1.6588,7.3856 -2.2658,8.5 -0.9308,1.709 -2.6261,8.6956 -4.1314,17.0262 -0.1988,1.1 -1.7413,6.05 -3.4279,11 -1.6866,4.95 -3.3734,10.9225 -3.7486,13.2722 -0.3751,2.3497 -1.0729,4.5137 -1.5506,4.809 -0.4778,0.2952 -0.8687,1.4474 -0.8687,2.5602 0,1.1129 -1.4077,5.2308 -3.1283,9.151 -1.7206,3.9202 -4.1887,11.0899 -5.4847,15.9328 -3.0281,11.3149 -10.9561,28.1001 -17.3391,36.7103 -7.8825,10.6328 -17.4714,18.7839 -24.7624,21.0492 -1.532,0.476 -5.2605,1.8233 -8.2855,2.994 -5.3307,2.063 -7.2083,2.1392 -61,2.4761 -30.525,0.1912 -57.525,0.1489 -60,-0.094 z M 2422.1613,1393.6795 c 0,-0.5499 -0.45,-1 -1,-1 -0.55,0 -1,0.4501 -1,1 0,0.55 0.45,1 1,1 0.55,0 1,-0.45 1,-1 z M 2071.6202,1132.613 c -0.3626,-0.5866 -0.419,-1.3067 -0.1256,-1.6001 0.7163,-0.7164 2.6667,0.5459 2.6667,1.7256 0,1.278 -1.7264,1.1928 -2.5411,-0.1255 z"
       id="path1" />
  </g>
</svg>
