<?xml version="1.0" encoding="UTF-8" standalone="no"?>
<!-- Created with Inkscape (http://www.inkscape.org/) -->

<svg
   width="210mm"
   height="297mm"
   viewBox="0 0 210 297"
   version="1.1"
   id="svg1"
   xml:space="preserve"
   inkscape:version="1.4.2 (ebf0e940d0, 2025-05-08)"
   sodipodi:docname="icono.svg"
   xmlns:inkscape="http://www.inkscape.org/namespaces/inkscape"
   xmlns:sodipodi="http://sodipodi.sourceforge.net/DTD/sodipodi-0.dtd"
   xmlns="http://www.w3.org/2000/svg"
   xmlns:svg="http://www.w3.org/2000/svg"><sodipodi:namedview
     id="namedview1"
     pagecolor="#ffffff"
     bordercolor="#000000"
     borderopacity="0.25"
     inkscape:showpageshadow="2"
     inkscape:pageopacity="0.0"
     inkscape:pagecheckerboard="0"
     inkscape:deskcolor="#d1d1d1"
     inkscape:document-units="mm"
     inkscape:zoom="0.71179153"
     inkscape:cx="396.18342"
     inkscape:cy="561.25984"
     inkscape:window-width="1920"
     inkscape:window-height="1008"
     inkscape:window-x="0"
     inkscape:window-y="0"
     inkscape:window-maximized="1"
     inkscape:current-layer="layer1" /><defs
     id="defs1" /><g
     inkscape:label="Capa 1"
     inkscape:groupmode="layer"
     id="layer1"><circle
       style="fill:#ffffff;stroke-width:0.264583"
       id="path15"
       cx="62.819775"
       cy="63.934917"
       r="33.826031"
       inkscape:export-filename="path15.png"
       inkscape:export-xdpi="96"
       inkscape:export-ydpi="96" /><g
       id="g8"
       transform="translate(-69.445751,-64.515995)"><path
         style="fill:#8da6a6"
         d="m 127.97787,166.34272 c 0.191,-0.0764 0.4192,-0.067 0.50712,0.0209 0.0879,0.0879 -0.0684,0.15046 -0.34727,0.13897 -0.30822,-0.0127 -0.37091,-0.0754 -0.15985,-0.15985 z m 6.86263,0.006 c 0.1819,-0.0734 0.47956,-0.0734 0.66146,0 0.1819,0.0734 0.0331,0.13345 -0.33073,0.13345 -0.3638,0 -0.51263,-0.0601 -0.33073,-0.13345 z m -8.71471,-0.2701 c 0.19099,-0.0764 0.4192,-0.067 0.50712,0.0209 0.0879,0.0879 -0.0683,0.15045 -0.34727,0.13897 -0.30822,-0.0127 -0.37092,-0.0754 -0.15985,-0.15986 z m 11.1125,0 c 0.19099,-0.0764 0.4192,-0.067 0.50712,0.0209 0.0879,0.0879 -0.0683,0.15045 -0.34727,0.13897 -0.30822,-0.0127 -0.37092,-0.0754 -0.15985,-0.15986 z m -8.34588,-2.64844 c 0.25743,-0.0671 0.61462,-0.0627 0.79375,0.01 0.17913,0.0725 -0.0315,0.12736 -0.46805,0.12197 -0.43657,-0.005 -0.58313,-0.0647 -0.3257,-0.13177 z m 6.08542,0 c 0.25743,-0.0671 0.61462,-0.0627 0.79375,0.01 0.17913,0.0725 -0.0315,0.12736 -0.46806,0.12197 -0.43656,-0.005 -0.58312,-0.0647 -0.32569,-0.13177 z m 20.40809,-1.24403 c -0.0779,-0.20298 -0.0942,-0.82806 -0.0362,-1.38907 0.10059,-0.97311 0.10749,-0.96247 0.14992,0.23139 l 0.0445,1.25141 5.4901,0.0772 5.4901,0.0772 -5.4984,0.0605 c -4.50001,0.0495 -5.52413,-0.007 -5.64003,-0.30857 z m 11.62,-1.48304 c 0,-0.94588 0.048,-1.33283 0.10671,-0.85989 0.0587,0.47294 0.0587,1.24685 0,1.71979 -0.0587,0.47294 -0.10671,0.086 -0.10671,-0.8599 z m -57.97686,0.66146 c 0.005,-0.43656 0.0647,-0.58312 0.13178,-0.32569 0.0671,0.25743 0.0627,0.61462 -0.01,0.79375 -0.0725,0.17913 -0.12736,-0.0315 -0.12197,-0.46806 z m 19.72603,0.22165 c 0.1819,-0.0734 0.47955,-0.0734 0.66145,0 0.18191,0.0734 0.0331,0.13345 -0.33073,0.13345 -0.3638,0 -0.51263,-0.06 -0.33072,-0.13345 z m 5.55625,0 c 0.1819,-0.0734 0.47955,-0.0734 0.66145,0 0.1819,0.0734 0.0331,0.13345 -0.33073,0.13345 -0.3638,0 -0.51263,-0.06 -0.33072,-0.13345 z m 2.64583,-0.26458 c 0.1819,-0.0734 0.47956,-0.0734 0.66146,0 0.1819,0.0734 0.0331,0.13345 -0.33073,0.13345 -0.3638,0 -0.51263,-0.0601 -0.33073,-0.13345 z m 4.00115,-1.8753 c -0.32911,-0.41964 -0.31975,-0.429 0.0999,-0.0999 0.25466,0.19972 0.46302,0.40808 0.46302,0.46302 0,0.21776 -0.21727,0.0776 -0.56291,-0.36313 z m 18.1577,0.28964 c 2.53686,-0.194 5.36526,-0.20749 5.25168,-0.025 -0.0679,0.10914 -1.51549,0.17763 -3.21677,0.15221 -1.70128,-0.0254 -2.61699,-0.0827 -2.03491,-0.12716 z m -29.8229,-1.3449 c 0.76886,-0.0536 1.95949,-0.0531 2.64583,0.001 0.68635,0.0543 0.0573,0.0982 -1.39793,0.0975 -1.45521,-6.9e-4 -2.01676,-0.0451 -1.2479,-0.0987 z m 6.21388,-0.25257 c 0.25743,-0.0671 0.61461,-0.0627 0.79375,0.01 0.17913,0.0725 -0.0315,0.12737 -0.46806,0.12197 -0.43656,-0.005 -0.58313,-0.0647 -0.32569,-0.13177 z m -26.13264,-0.6104 -1.5875,-0.17562 1.50574,-0.0445 c 0.82815,-0.0245 1.57932,0.0746 1.66926,0.2201 0.0899,0.14552 0.12673,0.24457 0.0818,0.22011 -0.045,-0.0245 -0.79614,-0.12351 -1.66926,-0.22011 z m 46.91393,-0.18074 c 0.19099,-0.0764 0.4192,-0.067 0.50712,0.0209 0.0879,0.0879 -0.0684,0.15045 -0.34727,0.13897 -0.30822,-0.0127 -0.37092,-0.0754 -0.15985,-0.15986 z m -50.25497,-1.07603 c -0.32911,-0.41964 -0.31975,-0.429 0.0999,-0.0999 0.25466,0.19972 0.46302,0.40808 0.46302,0.46302 0,0.21776 -0.21727,0.0776 -0.56291,-0.36313 z m 24.97072,0.0316 c 0.37838,-0.11155 0.46302,-0.44533 0.46302,-1.82577 v -1.68926 l -2.05052,-0.0963 -2.05052,-0.0963 2.11667,0.019 2.11667,0.0191 v 1.84846 c 0,1.65388 -0.0557,1.85421 -0.52917,1.90304 -0.41126,0.0424 -0.42599,0.0242 -0.0661,-0.0819 z m -22.18399,-1.75135 -0.50403,-0.59531 0.59532,0.50403 c 0.55944,0.47366 0.71576,0.68659 0.50402,0.68659 -0.0502,0 -0.31809,-0.26789 -0.59531,-0.59531 z m 58.188,-1.65364 c 0.001,-1.01865 0.049,-1.40295 0.10627,-0.854 0.0573,0.54895 0.0563,1.38239 -0.002,1.85208 -0.0584,0.4697 -0.10531,0.0206 -0.10414,-0.99808 z m -6.43682,0.52916 c 0.34177,-0.3638 0.68094,-0.66146 0.7537,-0.66146 0.0728,0 -0.14734,0.29766 -0.48912,0.66146 -0.34177,0.3638 -0.68094,0.66146 -0.7537,0.66146 -0.0728,0 0.14735,-0.29766 0.48912,-0.66146 z m -51.60139,-1.38906 -1.71215,-1.78594 1.78594,1.71215 c 1.65885,1.59032 1.90688,1.85973 1.71215,1.85973 -0.0406,0 -0.84426,-0.80367 -1.78594,-1.78594 z m -5.97062,0.92604 -0.50403,-0.59531 0.59531,0.50403 c 0.55945,0.47366 0.71577,0.68659 0.50403,0.68659 -0.0502,0 -0.3181,-0.26789 -0.59531,-0.59531 z m 3.29868,-0.92604 c -0.32911,-0.41964 -0.31975,-0.429 0.0999,-0.0999 0.25466,0.19971 0.46302,0.40807 0.46302,0.46302 0,0.21776 -0.21728,0.0776 -0.56292,-0.36313 z m 37.18257,-0.66146 -0.50403,-0.59531 0.59531,0.50403 c 0.55945,0.47366 0.71576,0.68659 0.50403,0.68659 -0.0502,0 -0.3181,-0.26789 -0.59531,-0.59531 z m -45.015139,-0.64637 c 0.257431,-0.0671 0.614618,-0.0627 0.79375,0.01 0.179131,0.0725 -0.03149,0.12736 -0.468056,0.12197 -0.436563,-0.005 -0.583125,-0.0647 -0.325694,-0.13177 z m 21.558509,-0.008 c 0.47294,-0.0587 1.24684,-0.0587 1.71979,0 0.47294,0.0587 0.086,0.10671 -0.8599,0.10671 -0.94588,0 -1.33284,-0.048 -0.85989,-0.10671 z m 45.11509,0.002 c 0.40218,-0.0608 0.9975,-0.0592 1.32292,0.004 0.32542,0.0628 -0.004,0.11256 -0.73125,0.11058 -0.7276,-0.002 -0.99385,-0.0534 -0.59167,-0.11419 z m -58.57645,-1.33149 c -0.3291,-0.41965 -0.31975,-0.42901 0.0999,-0.0999 0.25466,0.19972 0.46302,0.40808 0.46302,0.46302 0,0.21776 -0.21727,0.0776 -0.56292,-0.36312 z m -4.77836,-0.51147 c 0.191,-0.0764 0.4192,-0.067 0.50712,0.0209 0.0879,0.0879 -0.0683,0.15045 -0.34726,0.13896 -0.30823,-0.0127 -0.37092,-0.0754 -0.15986,-0.15985 z m 15.73827,-2.13281 c 1.13444,-0.0497 2.92037,-0.0494 3.96875,6.7e-4 1.04837,0.0501 0.1202,0.0908 -2.06262,0.0904 -2.18281,-3.7e-4 -3.04057,-0.0413 -1.90613,-0.0911 z m -5.6959,-1.84695 c 0.47555,-0.0589 1.18993,-0.0577 1.5875,0.003 0.39758,0.0604 0.008,0.10855 -0.86463,0.10706 -0.87313,-0.001 -1.19842,-0.0509 -0.72287,-0.10976 z m 2.70302,-2.77239 c -0.0704,-0.82992 -0.0316,-1.41207 0.0864,-1.29369 0.11795,0.11839 0.17557,0.79741 0.12807,1.50894 l -0.0864,1.29368 z m 20.37714,-0.18482 c 0,-0.27475 0.50329,-0.67249 0.65237,-0.51556 0.0484,0.051 -0.0786,0.24617 -0.28218,0.4338 -0.20361,0.18764 -0.37019,0.22443 -0.37019,0.0818 z m 5.4901,-0.44196 c -0.40018,-0.2171 -0.7276,-0.45465 -0.7276,-0.52788 0,-0.0732 0.24832,-2.6e-4 0.55182,0.16218 1.38001,0.73855 0.67368,-1.10826 -0.73953,-1.93362 -0.66354,-0.38753 -0.95962,-0.43075 -1.38635,-0.20237 -0.74767,0.40014 -0.68045,0.67965 0.25682,1.06788 0.43968,0.18212 0.86885,0.44346 0.9537,0.58075 0.0848,0.13729 -0.33442,3.1e-4 -0.93172,-0.30441 -0.5973,-0.30472 -1.08599,-0.65222 -1.08599,-0.77223 0,-0.36098 0.9372,-1.09397 1.39875,-1.09397 0.73801,0 2.57,1.95116 2.57,2.73716 0,0.38634 -0.0298,0.69766 -0.0662,0.69183 -0.0364,-0.006 -0.39357,-0.18822 -0.79375,-0.40532 z m -32.42303,-0.83835 c 0.9759,-0.0508 2.64277,-0.0511 3.70417,-7.5e-4 1.06139,0.0503 0.26293,0.0919 -1.77437,0.0923 -2.03729,4.1e-4 -2.9057,-0.0408 -1.9298,-0.0915 z m 25.23015,-0.25568 c -0.14359,-0.37708 -0.1132,-0.40747 0.14811,-0.14811 0.18082,0.17948 0.26211,0.39297 0.18065,0.47443 -0.0815,0.0815 -0.2294,-0.0654 -0.32876,-0.32632 z m 0.36708,-2.68054 c -0.64411,-0.52156 -0.51698,-1.12151 0.22683,-1.07049 0.40336,0.0277 0.40183,0.0426 -0.0156,0.1517 -0.62395,0.16305 -0.58265,0.46337 0.13229,0.96209 0.32742,0.22839 0.51921,0.42151 0.42619,0.42914 -0.093,0.008 -0.43939,-0.20496 -0.7697,-0.47244 z m 2.24847,-0.85126 c -0.28086,-0.31035 -0.7001,-0.49345 -0.96888,-0.42317 -0.26058,0.0682 -0.40707,0.0159 -0.32552,-0.11601 0.0815,-0.13195 0.29008,-0.23594 0.46339,-0.2311 0.39566,0.0111 1.62545,1.01801 1.4534,1.19006 -0.07,0.07 -0.35009,-0.11889 -0.62239,-0.41978 z m 33.50395,-2.25634 c 0.0127,-0.30823 0.0754,-0.37092 0.15985,-0.15985 0.0764,0.19099 0.067,0.41919 -0.0209,0.50711 -0.0879,0.0879 -0.15045,-0.0683 -0.13896,-0.34726 z m -71.437499,-0.26459 c 0.0127,-0.30822 0.07539,-0.37091 0.159853,-0.15985 0.07643,0.191 0.06703,0.4192 -0.02089,0.50712 -0.08792,0.0879 -0.150452,-0.0683 -0.138963,-0.34727 z m 5.472299,-0.29737 c 0.32912,-0.0633 0.80537,-0.0609 1.05833,0.005 0.25297,0.0662 -0.0163,0.118 -0.59839,0.11507 -0.58209,-0.003 -0.78906,-0.0571 -0.45994,-0.12041 z m 16.37155,-0.47433 c 0.0838,-0.21828 0.2732,-0.39687 0.42097,-0.39687 0.15486,0 0.12914,0.16812 -0.0607,0.39687 -0.18116,0.21828 -0.37059,0.39688 -0.42097,0.39688 -0.0504,0 -0.023,-0.1786 0.0607,-0.39688 z m -25.018849,-0.8158 c 0.0127,-0.30822 0.07539,-0.37091 0.159853,-0.15985 0.07643,0.191 0.06703,0.4192 -0.02089,0.50712 -0.08792,0.0879 -0.150453,-0.0683 -0.138965,-0.34727 z m 26.346029,0.22049 c -0.0674,-0.10914 0.21181,-0.19844 0.62058,-0.19844 0.40877,0 0.68803,0.0893 0.62058,0.19844 -0.0675,0.10914 -0.34671,0.19844 -0.62058,0.19844 -0.27386,0 -0.55312,-0.0893 -0.62058,-0.19844 z m 48.55194,-0.59531 c 0,-0.3638 0.0601,-0.51263 0.13345,-0.33073 0.0734,0.1819 0.0734,0.47956 0,0.66146 -0.0734,0.1819 -0.13345,0.0331 -0.13345,-0.33073 z m -71.966664,-0.26459 c 0,-0.3638 0.06005,-0.51263 0.133452,-0.33072 0.0734,0.1819 0.0734,0.47955 0,0.66145 -0.0734,0.18191 -0.133452,0.0331 -0.133452,-0.33073 z m 69.056244,0 c 0,-0.3638 0.0601,-0.51263 0.13345,-0.33072 0.0734,0.1819 0.0734,0.47955 0,0.66145 -0.0734,0.18191 -0.13345,0.0331 -0.13345,-0.33073 z m -72.182318,-3.57187 c 9.61e-4,-1.16417 0.04748,-1.6075 0.103369,-0.98519 0.05589,0.62231 0.0551,1.57481 -0.0017,2.11666 -0.05685,0.54186 -0.102582,0.0327 -0.101621,-1.13147 z m 26.739368,0.59531 -0.50403,-0.59531 0.59531,0.50403 c 0.55945,0.47366 0.71576,0.68659 0.50403,0.68659 -0.0502,0 -0.3181,-0.26789 -0.59531,-0.59531 z m -5.9776,-0.37918 c 0.191,-0.0764 0.4192,-0.067 0.50712,0.0209 0.0879,0.0879 -0.0683,0.15046 -0.34726,0.13897 -0.30823,-0.0127 -0.37092,-0.0754 -0.15986,-0.15986 z m -1.57164,-0.81144 c -0.3291,-0.41965 -0.31975,-0.429 0.0999,-0.0999 0.25466,0.19972 0.46302,0.40808 0.46302,0.46302 0,0.21776 -0.21727,0.0776 -0.56292,-0.36312 z m 7.72756,-1.27882 c 0.0127,-0.30823 0.0754,-0.37092 0.15985,-0.15985 0.0764,0.19099 0.067,0.41919 -0.0209,0.50711 -0.0879,0.0879 -0.15045,-0.0683 -0.13896,-0.34726 z m 45.26463,-0.90399 c 0,-0.36381 0.0601,-0.51264 0.13345,-0.33073 0.0734,0.1819 0.0734,0.47955 0,0.66145 -0.0734,0.18191 -0.13345,0.0331 -0.13345,-0.33072 z m 2.91042,-0.52917 c 0,-0.3638 0.0601,-0.51263 0.13345,-0.33073 0.0734,0.1819 0.0734,0.47956 0,0.66146 -0.0734,0.1819 -0.13345,0.0331 -0.13345,-0.33073 z m -71.987552,-0.68351 c 0.0127,-0.30822 0.07539,-0.37092 0.159852,-0.15985 0.07643,0.191 0.06703,0.4192 -0.02089,0.50712 -0.08792,0.0879 -0.150453,-0.0684 -0.138964,-0.34727 z m -2.910417,-0.52917 c 0.0127,-0.30822 0.07539,-0.37091 0.159853,-0.15985 0.07643,0.191 0.06703,0.4192 -0.02089,0.50712 -0.08792,0.0879 -0.150453,-0.0683 -0.138965,-0.34727 z m 33.921449,-0.7717 c 0.002,-0.7276 0.0534,-0.99385 0.11419,-0.59167 0.0608,0.40218 0.0592,0.99749 -0.004,1.32292 -0.0628,0.32542 -0.11256,-0.004 -0.11058,-0.73125 z m 11.02779,-0.59531 -1.44617,-1.52135 1.52135,1.44617 c 0.83675,0.79539 1.52136,1.48 1.52136,1.52135 0,0.19639 -0.253,-0.0328 -1.59654,-1.44617 z m 26.75284,0.83785 c 0.0127,-0.30823 0.0754,-0.37092 0.15985,-0.15985 0.0764,0.19099 0.067,0.4192 -0.0209,0.50711 -0.0879,0.0879 -0.15046,-0.0684 -0.13897,-0.34726 z m -49.49797,-0.37483 c -0.23846,-0.15411 -0.2711,-0.2581 -0.0818,-0.26053 0.17331,-0.002 0.3887,0.11501 0.47864,0.26053 0.20301,0.32849 0.11142,0.32849 -0.39688,0 z M 94.975455,122.1837 c 0.0127,-0.30822 0.07539,-0.37092 0.159852,-0.15985 0.07643,0.191 0.06703,0.4192 -0.02089,0.50712 -0.08792,0.0879 -0.150453,-0.0683 -0.138964,-0.34727 z m 21.517515,-4.14514 -0.50403,-0.59531 0.59531,0.50403 c 0.55945,0.47366 0.71576,0.6866 0.50403,0.6866 -0.0502,0 -0.3181,-0.2679 -0.59531,-0.59532 z m 24.76368,-6.41614 c 0.49365,-0.50933 0.95708,-0.92604 1.02984,-0.92604 0.0728,0 -0.2716,0.41671 -0.76526,0.92604 -0.49365,0.50932 -0.95709,0.92604 -1.02985,0.92604 -0.0728,0 0.27161,-0.41672 0.76527,-0.92604 z m -9.26042,0.2802 c 0,-0.51468 0.44662,-0.76012 0.68406,-0.37593 0.11957,0.19347 0.0768,0.2389 -0.11401,0.12099 -0.16801,-0.10383 -0.30547,-0.0726 -0.30547,0.0694 0,0.14198 0.14883,0.3182 0.33073,0.3916 0.19758,0.0797 0.14432,0.14186 -0.13229,0.15434 -0.25466,0.0115 -0.46302,-0.15068 -0.46302,-0.36037 z m -30.12072,-1.99999 c 0,-0.36381 0.06,-0.51263 0.13345,-0.33073 0.0734,0.1819 0.0734,0.47955 0,0.66145 -0.0734,0.18191 -0.13345,0.0331 -0.13345,-0.33072 z m 34.953,-0.18986 c 0.40219,-0.0608 0.9975,-0.0592 1.32292,0.004 0.32542,0.0628 -0.004,0.11256 -0.73124,0.11057 -0.7276,-0.002 -0.99386,-0.0534 -0.59168,-0.11418 z m -3.57551,-0.26145 c 0.32742,-0.0631 0.86321,-0.0631 1.19063,0 0.32742,0.0631 0.0595,0.11466 -0.59532,0.11466 -0.65484,0 -0.92273,-0.0516 -0.59531,-0.11466 z m 9.27695,-0.52318 c 0.191,-0.0764 0.4192,-0.067 0.50712,0.0209 0.0879,0.0879 -0.0684,0.15046 -0.34726,0.13897 -0.30823,-0.0127 -0.37092,-0.0754 -0.15986,-0.15985 z m -43.934278,-0.27098 c 0.329118,-0.0633 0.805368,-0.0609 1.058333,0.005 0.252965,0.0662 -0.01631,0.11801 -0.598397,0.11507 -0.582083,-0.003 -0.789055,-0.0571 -0.459936,-0.12041 z m -0.919598,-1.26808 c 0.002,-0.7276 0.05337,-0.99385 0.114186,-0.59167 0.06081,0.40218 0.05919,0.9975 -0.0036,1.32292 -0.0628,0.32542 -0.11256,-0.004 -0.110574,-0.73125 z m 69.356756,-4.6302 c 0,-2.983181 0.0386,-4.203571 0.0858,-2.71198 0.0472,1.49159 0.0472,3.93237 0,5.42396 -0.0472,1.49158 -0.0858,0.27119 -0.0858,-2.71198 z m -64.93451,3.0751 c 0,-0.0549 0.20836,-0.2633 0.46302,-0.46302 0.41964,-0.32911 0.429,-0.31975 0.0999,0.0999 -0.34564,0.44072 -0.56291,0.58088 -0.56291,0.36312 z m 2.24895,-2.54594 c 0.26339,-0.29104 0.53842,-0.52916 0.61119,-0.52916 0.0728,0 -0.0832,0.23812 -0.3466,0.52916 -0.26339,0.29104 -0.53842,0.52917 -0.61118,0.52917 -0.0728,0 0.0832,-0.23813 0.34659,-0.52917 z m 2.05053,-1.25107 c 0.5457,-0.0571 1.43867,-0.0571 1.98437,0 0.5457,0.0571 0.0992,0.10378 -0.99219,0.10378 -1.0914,0 -1.53789,-0.0467 -0.99218,-0.10378 z m -8.74582,-2.849969 c 0.0054,-0.436562 0.06469,-0.583124 0.131773,-0.325693 0.06708,0.257431 0.06267,0.614618 -0.0098,0.79375 -0.07248,0.179131 -0.127362,-0.03149 -0.12197,-0.468057 z m 11.36998,-0.45272 -0.0445,-1.246469 -2.3151,-0.08819 -2.31511,-0.08818 2.32341,-0.05441 c 2.5943,-0.06075 2.67773,-0.0039 2.5012,1.703706 -0.101,0.976998 -0.10732,0.967448 -0.14992,-0.226459 z m 47.65465,-1.461877 c 0.69561,-0.05468 1.76718,-0.05402 2.38125,0.0015 0.61407,0.05549 0.0449,0.100231 -1.26475,0.09942 -1.30969,-8.06e-4 -1.81212,-0.04621 -1.1165,-0.10089 z m -31.34457,-2.896352 c 0.191,-0.07643 0.4192,-0.06703 0.50712,0.02089 0.0879,0.08792 -0.0684,0.150452 -0.34727,0.138964 -0.30822,-0.0127 -0.37092,-0.07539 -0.15985,-0.159854 z m 1.5875,-0.264583 c 0.19099,-0.07643 0.4192,-0.06703 0.50712,0.02089 0.0879,0.08792 -0.0683,0.150453 -0.34727,0.138965 -0.30822,-0.0127 -0.37092,-0.07539 -0.15985,-0.159853 z m 9.525,0 c 0.19099,-0.07643 0.4192,-0.06703 0.50712,0.02089 0.0879,0.08792 -0.0684,0.150453 -0.34727,0.138965 -0.30822,-0.0127 -0.37092,-0.07539 -0.15985,-0.159853 z m -7.68945,-0.259071 c 0.1819,-0.0734 0.47955,-0.0734 0.66145,0 0.18191,0.0734 0.0331,0.133452 -0.33073,0.133452 -0.3638,0 -0.51263,-0.06005 -0.33072,-0.133452 z m 5.55625,0 c 0.1819,-0.0734 0.47955,-0.0734 0.66145,0 0.1819,0.0734 0.0331,0.133452 -0.33073,0.133452 -0.3638,0 -0.51263,-0.06005 -0.33072,-0.133452 z m 2.92695,-2.651345 c 0.19099,-0.07643 0.4192,-0.06703 0.50712,0.02089 0.0879,0.08792 -0.0683,0.150453 -0.34727,0.138964 -0.30822,-0.0127 -0.37092,-0.07539 -0.15985,-0.159852 z m -9.01237,-0.259072 c 0.1819,-0.0734 0.47956,-0.0734 0.66146,0 0.1819,0.0734 0.0331,0.133453 -0.33073,0.133453 -0.3638,0 -0.51263,-0.06005 -0.33073,-0.133453 z m 6.61458,0 c 0.1819,-0.0734 0.47956,-0.0734 0.66146,0 0.1819,0.0734 0.0331,0.133453 -0.33073,0.133453 -0.3638,0 -0.51263,-0.06005 -0.33073,-0.133453 z"
         id="path14" /><path
         style="fill:#5ea09f"
         d="m 129.1556,166.3336 c 0.40218,-0.0608 0.99749,-0.0592 1.32292,0.004 0.32542,0.0628 -0.004,0.11256 -0.73125,0.11057 -0.7276,-0.002 -0.99385,-0.0534 -0.59167,-0.11418 z m 4.22969,0.007 c 0.25467,-0.0666 0.67138,-0.0666 0.92605,0 0.25466,0.0666 0.0463,0.121 -0.46303,0.121 -0.50932,0 -0.71768,-0.0545 -0.46302,-0.121 z m -6.48229,-0.25742 c 0.1819,-0.0734 0.47956,-0.0734 0.66146,0 0.1819,0.0734 0.0331,0.13345 -0.33073,0.13345 -0.3638,0 -0.51263,-0.0601 -0.33073,-0.13345 z m 9.26042,0 c 0.1819,-0.0734 0.47956,-0.0734 0.66146,0 0.1819,0.0734 0.0331,0.13345 -0.33073,0.13345 -0.3638,0 -0.51263,-0.0601 -0.33073,-0.13345 z m -10.83138,-0.2701 c 0.191,-0.0764 0.4192,-0.067 0.50712,0.0209 0.0879,0.0879 -0.0684,0.15045 -0.34727,0.13896 -0.30822,-0.0127 -0.37092,-0.0754 -0.15985,-0.15985 z m 12.7,0 c 0.19099,-0.0764 0.4192,-0.067 0.50712,0.0209 0.0879,0.0879 -0.0684,0.15045 -0.34727,0.13896 -0.30822,-0.0127 -0.37092,-0.0754 -0.15985,-0.15985 z m 1.5875,-0.26458 c 0.19099,-0.0764 0.4192,-0.067 0.50712,0.0209 0.0879,0.0879 -0.0683,0.15046 -0.34727,0.13897 -0.30822,-0.0127 -0.37092,-0.0754 -0.15985,-0.15985 z m -8.21862,-1.86508 c 0.61846,-0.0557 1.63049,-0.0557 2.24896,0 0.61846,0.0557 0.11245,0.10128 -1.12448,0.10128 -1.23693,0 -1.74294,-0.0456 -1.12448,-0.10128 z m -3.70417,-0.24608 c 0.1819,-0.0734 0.47956,-0.0734 0.66146,0 0.1819,0.0734 0.0331,0.13345 -0.33073,0.13345 -0.3638,0 -0.51263,-0.06 -0.33073,-0.13345 z m 8.46667,0 c 0.1819,-0.0734 0.47956,-0.0734 0.66146,0 0.1819,0.0734 0.0331,0.13345 -0.33073,0.13345 -0.3638,0 -0.51263,-0.06 -0.33073,-0.13345 z m -20.45464,-0.76541 c -0.49319,-0.39512 -0.48994,-0.40001 0.0817,-0.12298 0.32742,0.15867 0.59532,0.34383 0.59532,0.41147 0,0.20247 -0.13722,0.144 -0.67704,-0.28849 z m 32.42703,0.0429 c 0,-0.0572 0.18478,-0.17489 0.41062,-0.26156 0.23546,-0.0904 0.34166,-0.046 0.24897,0.10399 -0.15538,0.25141 -0.65959,0.37186 -0.65959,0.15757 z m -50.417212,-0.76338 c -0.07138,-0.18601 -0.09474,-2.71608 -0.05192,-5.6224 l 0.07786,-5.2842 0.06022,5.48484 0.06022,5.48485 5.622402,0.077 5.62238,0.077 -5.6307,0.0606 c -4.371308,0.047 -5.659716,-0.0151 -5.760467,-0.2776 z m 33.028842,-0.38578 c 0.69562,-0.0547 1.76718,-0.054 2.38125,10e-4 0.61408,0.0555 0.0449,0.10023 -1.26475,0.0994 -1.30969,-8e-4 -1.81211,-0.0462 -1.1165,-0.10089 z m -3.31527,-0.245 c 0.1819,-0.0734 0.47956,-0.0734 0.66146,0 0.1819,0.0734 0.0331,0.13345 -0.33073,0.13345 -0.3638,0 -0.51263,-0.0601 -0.33073,-0.13345 z m 8.06979,-0.007 c 0.25466,-0.0665 0.67138,-0.0665 0.92604,0 0.25466,0.0666 0.0463,0.121 -0.46302,0.121 -0.50932,0 -0.71768,-0.0545 -0.46302,-0.121 z m -9.37617,-0.26294 c 0.19099,-0.0764 0.4192,-0.067 0.50712,0.0209 0.0879,0.0879 -0.0683,0.15045 -0.34727,0.13896 -0.30822,-0.0127 -0.37092,-0.0754 -0.15985,-0.15985 z m 11.90625,0 c 0.19099,-0.0764 0.4192,-0.067 0.50712,0.0209 0.0879,0.0879 -0.0684,0.15045 -0.34727,0.13896 -0.30822,-0.0127 -0.37092,-0.0754 -0.15985,-0.15985 z m 2.98659,-1.22035 c -0.33468,-0.5573 -0.32904,-0.56294 0.12655,-0.12656 0.26227,0.25119 0.41989,0.51367 0.35029,0.58328 -0.0696,0.0696 -0.28419,-0.13592 -0.47684,-0.45672 z m -38.45729,-0.11867 c 1.20054,-0.049 3.16507,-0.049 4.36562,0 1.20055,0.049 0.21828,0.0891 -2.18281,0.0891 -2.40109,0 -3.38336,-0.0401 -2.18281,-0.0891 z m 53.97499,0.0101 c 0.32743,-0.0631 0.86321,-0.0631 1.19063,0 0.32742,0.0631 0.0595,0.11466 -0.59531,0.11466 -0.65485,0 -0.92274,-0.0516 -0.59532,-0.11466 z m -36.44635,-0.34244 c -0.21828,-0.14107 -0.27781,-0.25648 -0.13229,-0.25648 0.14552,0 0.44318,0.11541 0.66146,0.25648 0.21828,0.14106 0.27781,0.25648 0.13229,0.25648 -0.14552,0 -0.44318,-0.11542 -0.66146,-0.25648 z m -20.00062,-4.23334 c 0,-2.40109 0.0401,-3.38336 0.0891,-2.18281 0.049,1.20055 0.049,3.16508 0,4.36563 -0.049,1.20054 -0.0891,0.21828 -0.0891,-2.18282 z m 66.92578,1.7198 c -8e-4,-1.30969 0.0439,-1.87883 0.0994,-1.26476 0.0555,0.61407 0.0562,1.68564 0.001,2.38125 -0.0547,0.69562 -0.10008,0.19319 -0.10089,-1.11649 z m -33.49447,1.53266 c 0.32912,-0.0633 0.80537,-0.0609 1.05833,0.005 0.25297,0.0662 -0.0163,0.118 -0.59839,0.11506 -0.58209,-0.003 -0.78906,-0.0571 -0.45994,-0.1204 z m 3.56879,-0.26697 c 0.40018,-0.0606 1.05503,-0.0606 1.45521,0 0.40018,0.0606 0.0728,0.11023 -0.72761,0.11023 -0.80036,0 -1.12778,-0.0496 -0.7276,-0.11023 z m -9.81395,-0.86882 c 0,-0.3638 0.0601,-0.51263 0.13345,-0.33073 0.0734,0.1819 0.0734,0.47956 0,0.66146 -0.0734,0.1819 -0.13345,0.0331 -0.13345,-0.33073 z m 26.39339,0.18147 c 0.11872,-0.11848 0.73804,-0.17583 1.37628,-0.12746 l 1.16043,0.088 -1.37628,0.12746 c -0.75696,0.0701 -1.27915,0.0305 -1.16043,-0.0879 z m 4.38879,-1.50439 c 0.71666,-0.7276 1.36255,-1.32291 1.43531,-1.32291 0.0728,0 -0.45406,0.59531 -1.17073,1.32291 -0.71666,0.72761 -1.36255,1.32292 -1.43531,1.32292 -0.0728,0 0.45407,-0.59531 1.17073,-1.32292 z m -29.56245,0.33742 c 0.47555,-0.0589 1.18992,-0.0577 1.5875,0.003 0.39758,0.0604 0.008,0.10855 -0.86463,0.10706 -0.87313,-0.001 -1.19842,-0.0509 -0.72287,-0.10976 z m -23.62875,-1.4619 -1.31297,-1.38906 1.38907,1.31297 c 0.76398,0.72214 1.38906,1.34721 1.38906,1.38907 0,0.19743 -0.24512,-0.0222 -1.46516,-1.31298 z m 51.6037,-1.25677 c 0.86401,-0.87312 1.63046,-1.5875 1.70323,-1.5875 0.0728,0 -0.57463,0.71438 -1.43865,1.5875 -0.86401,0.87313 -1.63046,1.5875 -1.70322,1.5875 -0.0728,0 0.57462,-0.71437 1.43864,-1.5875 z m -45.40979,0.33073 c -0.32911,-0.41964 -0.31975,-0.429 0.0999,-0.0999 0.25467,0.19972 0.46303,0.40808 0.46303,0.46302 0,0.21776 -0.21728,0.0776 -0.56292,-0.36313 z m -3.70417,-0.52916 c -0.3291,-0.41965 -0.31975,-0.42901 0.0999,-0.0999 0.25466,0.19972 0.46302,0.40808 0.46302,0.46302 0,0.21776 -0.21727,0.0776 -0.56292,-0.36312 z m 14.40114,-0.52815 c 1.42639,-0.0477 3.68857,-0.0474 5.02708,4.7e-4 1.33851,0.0479 0.17147,0.0869 -2.59343,0.0867 -2.76489,-2.5e-4 -3.86004,-0.0395 -2.43365,-0.0871 z m 39.34303,-0.16706 c 0,-0.0549 0.20836,-0.2633 0.46302,-0.46302 0.41964,-0.32911 0.429,-0.31975 0.0999,0.0999 -0.34564,0.44073 -0.56291,0.58089 -0.56291,0.36313 z m -58.65551,-2.14906 c 0.001,-0.87313 0.0509,-1.19842 0.10976,-0.72287 0.0589,0.47555 0.0577,1.18992 -0.003,1.5875 -0.0604,0.39758 -0.10855,0.008 -0.10706,-0.86463 z m 3.05926,0.7276 c -0.32911,-0.41964 -0.31975,-0.429 0.0999,-0.0999 0.25466,0.19971 0.46302,0.40807 0.46302,0.46302 0,0.21776 -0.21728,0.0776 -0.56292,-0.36313 z m 56.7213,-0.99219 c 0.003,-0.58208 0.0571,-0.78905 0.12041,-0.45993 0.0633,0.32912 0.0609,0.80536 -0.005,1.05833 -0.0662,0.25296 -0.118,-0.0163 -0.11507,-0.5984 z m -3.24172,0.56157 c 0,-0.055 0.20836,-0.26331 0.46302,-0.46302 0.41964,-0.32911 0.429,-0.31975 0.0999,0.0999 -0.34565,0.44073 -0.56292,0.58089 -0.56292,0.36313 z m -51.6275,-0.62771 c -0.3291,-0.41965 -0.31975,-0.42901 0.0999,-0.0999 0.25466,0.19972 0.46302,0.40808 0.46302,0.46302 0,0.21776 -0.21727,0.0776 -0.56292,-0.36312 z m 15.72885,-1.65365 c 0,-0.94588 0.048,-1.33284 0.10672,-0.85989 0.0587,0.47294 0.0587,1.24684 0,1.71979 -0.0587,0.47294 -0.10672,0.086 -0.10672,-0.8599 z m -22.8726,-0.19844 c -0.329104,-0.41964 -0.319745,-0.429 0.0999,-0.0999 0.25466,0.19972 0.46302,0.40808 0.46302,0.46302 0,0.21776 -0.21727,0.0776 -0.56292,-0.36313 z m 10.52479,-1.32291 c -0.0679,-0.10914 0.9073,-0.16653 2.1672,-0.12753 4.22779,0.13088 4.69696,0.23023 1.31415,0.27827 -1.8468,0.0262 -3.41341,-0.0416 -3.48135,-0.15074 z m -0.39509,-1.12448 c 0,-0.3638 0.0601,-0.51263 0.13345,-0.33073 0.0734,0.1819 0.0734,0.47956 0,0.66146 -0.0734,0.1819 -0.13345,0.0331 -0.13345,-0.33073 z m -12.355785,-1.60511 c -0.09592,-0.1552 -0.117656,-0.33893 -0.0483,-0.40828 0.06935,-0.0694 0.196603,0.0576 0.282774,0.28219 0.178907,0.46622 0.02642,0.54823 -0.234473,0.12609 z m 5.319555,-0.16942 c -0.14358,-0.37708 -0.11319,-0.40747 0.14811,-0.14811 0.18083,0.17947 0.26212,0.39297 0.18066,0.47443 -0.0815,0.0815 -0.22941,-0.0654 -0.32877,-0.32632 z m -0.51349,-1.01383 c -0.25532,-0.66534 -0.18,-0.83702 0.1319,-0.30065 0.15444,0.26557 0.22506,0.5386 0.15694,0.60672 -0.0681,0.0681 -0.1981,-0.0696 -0.28884,-0.30607 z m 1.48867,-2.16365 c 0.40018,-0.0606 1.05502,-0.0606 1.45521,0 0.40018,0.0606 0.0728,0.11022 -0.72761,0.11022 -0.80036,0 -1.12778,-0.0496 -0.7276,-0.11022 z m 9.40924,-0.25582 c 0.191,-0.0764 0.4192,-0.067 0.50712,0.0209 0.0879,0.0879 -0.0683,0.15045 -0.34726,0.13897 -0.30823,-0.0127 -0.37092,-0.0754 -0.15986,-0.15986 z m -10.767,-0.89082 c -0.0486,-1.04752 0.43238,-1.30969 2.40286,-1.30969 h 1.79917 v -2.10069 -2.1007 l -0.92833,-0.10985 -0.92833,-0.10986 0.99447,0.0277 0.99448,0.0277 v 2.24896 2.24896 l -1.9829,0.13229 c -1.95013,0.1301 -1.98568,0.14541 -2.1515,0.92604 -0.15638,0.73613 -0.17089,0.74477 -0.19992,0.11906 z m 15.79409,-3.34251 c 0.19099,-0.0764 0.4192,-0.067 0.50711,0.0209 0.0879,0.0879 -0.0683,0.15045 -0.34726,0.13896 -0.30823,-0.0127 -0.37092,-0.0754 -0.15985,-0.15985 z m -23.477422,-0.76735 c 0.0127,-0.30822 0.07539,-0.37092 0.159852,-0.15985 0.07643,0.19099 0.06703,0.4192 -0.02089,0.50712 -0.08792,0.0879 -0.150453,-0.0684 -0.138964,-0.34727 z m 73.818742,-0.26458 c 0.0127,-0.30823 0.0754,-0.37092 0.15986,-0.15985 0.0764,0.19099 0.067,0.41919 -0.0209,0.50711 -0.0879,0.0879 -0.15045,-0.0684 -0.13897,-0.34726 z m -74.083325,-1.32292 c 0.0127,-0.30822 0.07539,-0.37092 0.159852,-0.15985 0.07643,0.19099 0.06703,0.4192 -0.02089,0.50712 -0.08792,0.0879 -0.150453,-0.0684 -0.138964,-0.34727 z m 6.134315,-0.0355 c 0.40218,-0.0608 0.99749,-0.0592 1.32291,0.004 0.32542,0.0628 -0.004,0.11256 -0.73124,0.11058 -0.7276,-0.002 -0.99386,-0.0534 -0.59167,-0.11419 z m 68.23449,-0.33931 c 0,-0.3638 0.0601,-0.51263 0.13345,-0.33072 0.0734,0.1819 0.0734,0.47955 0,0.66145 -0.0734,0.18191 -0.13345,0.0331 -0.13345,-0.33073 z m -71.702084,-0.52916 c 0,-0.3638 0.06005,-0.51263 0.133452,-0.33073 0.0734,0.1819 0.0734,0.47956 0,0.66146 -0.0734,0.1819 -0.133452,0.0331 -0.133452,-0.33073 z m 69.056244,0 c 0,-0.3638 0.0601,-0.51263 0.13345,-0.33073 0.0734,0.1819 0.0734,0.47956 0,0.66146 -0.0734,0.1819 -0.13345,0.0331 -0.13345,-0.33073 z m -48.51013,0.0838 c 0.191,-0.0764 0.4192,-0.067 0.50712,0.0209 0.0879,0.0879 -0.0683,0.15045 -0.34727,0.13896 -0.30822,-0.0127 -0.37092,-0.0754 -0.15985,-0.15985 z m 1.05833,0 c 0.191,-0.0764 0.4192,-0.067 0.50712,0.0209 0.0879,0.0879 -0.0683,0.15045 -0.34727,0.13896 -0.30822,-0.0127 -0.37091,-0.0754 -0.15985,-0.15985 z m -24.505057,-1.53905 c 0.0054,-0.43656 0.06469,-0.58312 0.131774,-0.32569 0.06708,0.25743 0.06267,0.61461 -0.0098,0.79375 -0.07247,0.17913 -0.127362,-0.0315 -0.12197,-0.46806 z m 74.926507,-2.91042 c 5.2e-4,-1.74625 0.0434,-2.42619 0.0952,-1.51098 0.0518,0.91521 0.0514,2.34396 -9.5e-4,3.175 -0.0523,0.83104 -0.0947,0.0822 -0.0942,-1.66402 z m -2.65439,0.1323 c 0,-1.23693 0.0456,-1.74295 0.10128,-1.12448 0.0557,0.61846 0.0557,1.63049 0,2.24895 -0.0557,0.61847 -0.10128,0.11245 -0.10128,-1.12447 z M 97.428266,128.4231 c 0,-1.23693 0.04558,-1.74294 0.10128,-1.12448 0.0557,0.61846 0.0557,1.63049 0,2.24896 -0.0557,0.61846 -0.10128,0.11245 -0.10128,-1.12448 z m -2.676899,-3.175 c 0,-0.50932 0.05445,-0.71768 0.121,-0.46302 0.06655,0.25466 0.06655,0.67138 0,0.92604 -0.06655,0.25466 -0.121,0.0463 -0.121,-0.46302 z m 71.947053,-0.52917 c 0,-0.3638 0.0601,-0.51263 0.13345,-0.33073 0.0734,0.1819 0.0734,0.47956 0,0.66146 -0.0734,0.1819 -0.13345,0.0331 -0.13345,-0.33073 z m 2.64584,-0.79375 c 0,-0.3638 0.0601,-0.51263 0.13345,-0.33073 0.0734,0.1819 0.0734,0.47956 0,0.66146 -0.0734,0.1819 -0.13345,0.0331 -0.13345,-0.33073 z M 97.642176,123.6606 c 0,-0.3638 0.06005,-0.51263 0.133452,-0.33073 0.0734,0.1819 0.0734,0.47956 0,0.66146 -0.0734,0.1819 -0.133452,0.0331 -0.133452,-0.33073 z m -2.666721,-0.68351 c 0.0127,-0.30822 0.07539,-0.37092 0.159852,-0.15985 0.07643,0.191 0.06703,0.4192 -0.02089,0.50712 -0.08792,0.0879 -0.150453,-0.0683 -0.138964,-0.34727 z m 71.437495,-0.26458 c 0.0127,-0.30823 0.0754,-0.37092 0.15985,-0.15985 0.0764,0.19099 0.067,0.4192 -0.0209,0.50711 -0.0879,0.0879 -0.15046,-0.0683 -0.13897,-0.34726 z m 2.64583,-0.52917 c 0.0127,-0.30822 0.0754,-0.37092 0.15986,-0.15985 0.0764,0.191 0.067,0.4192 -0.0209,0.50712 -0.0879,0.0879 -0.15045,-0.0683 -0.13897,-0.34727 z m -71.172909,-0.26458 c 0.0127,-0.30823 0.07539,-0.37092 0.159853,-0.15985 0.07643,0.19099 0.06703,0.4192 -0.02089,0.50711 -0.08792,0.0879 -0.150452,-0.0683 -0.138963,-0.34726 z m -2.645833,-0.52917 c 0.0127,-0.30822 0.07539,-0.37092 0.159852,-0.15985 0.07643,0.191 0.06703,0.4192 -0.02089,0.50712 -0.08792,0.0879 -0.150453,-0.0683 -0.138964,-0.34727 z m 70.908332,0 c 0.0127,-0.30822 0.0754,-0.37092 0.15985,-0.15985 0.0764,0.191 0.067,0.4192 -0.0209,0.50712 -0.0879,0.0879 -0.15045,-0.0683 -0.13896,-0.34727 z m -1.21152,-10.42899 c -0.0899,-0.14552 -0.62571,-0.26458 -1.19062,-0.26458 -0.56491,0 -1.0823,-0.0893 -1.14976,-0.19844 -0.22516,-0.36429 2.18135,-0.0203 2.49406,0.35649 0.1694,0.20411 0.24091,0.37111 0.15892,0.37111 -0.082,0 -0.22266,-0.11906 -0.3126,-0.26458 z m -65.021346,-0.18673 c 0.327426,-0.0631 0.863206,-0.0631 1.190626,0 0.32742,0.0631 0.0595,0.11467 -0.59531,0.11467 -0.654848,0 -0.922738,-0.0516 -0.595316,-0.11467 z m 0.174406,-6.56015 c -3e-4,-2.47385 0.0395,-3.52149 0.0884,-2.32809 0.0489,1.1934 0.0492,3.21746 5.5e-4,4.49792 -0.0486,1.28045 -0.0886,0.30403 -0.0889,-2.16983 z m 64.91309,4.1789 c 0.32742,-0.0631 0.8632,-0.0631 1.19063,0 0.32742,0.0631 0.0595,0.11467 -0.59532,0.11467 -0.65484,0 -0.92273,-0.0516 -0.59531,-0.11467 z m -59.72968,-1.76525 c 0,-0.0549 0.20836,-0.2633 0.46302,-0.46302 0.41964,-0.32911 0.429,-0.31975 0.0999,0.0999 -0.34564,0.44072 -0.56291,0.58088 -0.56291,0.36312 z m 53.41208,-0.36312 c -0.32911,-0.41965 -0.31975,-0.42901 0.0999,-0.0999 0.44073,0.34564 0.58089,0.56292 0.36313,0.56292 -0.0549,0 -0.2633,-0.20836 -0.46302,-0.46302 z M 97.702359,103.0231 c 0,-1.81901 0.04227,-2.56315 0.09394,-1.65365 0.05167,0.90951 0.05167,2.39779 0,3.3073 -0.05166,0.9095 -0.09394,0.16536 -0.09394,-1.65365 z m 5.586581,1.5875 c 0.26339,-0.29104 0.53842,-0.52917 0.61118,-0.52917 0.0728,0 -0.0832,0.23813 -0.3466,0.52917 -0.26338,0.29104 -0.53842,0.52917 -0.61118,0.52917 -0.0728,0 0.0832,-0.23813 0.3466,-0.52917 z m 53.43338,-0.59531 -1.04588,-1.12448 1.12448,1.04588 c 1.04575,0.97266 1.24606,1.20308 1.04588,1.20308 -0.0432,0 -0.54924,-0.50602 -1.12448,-1.12448 z m -49.06775,-0.0661 c 0.49365,-0.50932 0.95708,-0.92604 1.02984,-0.92604 0.0728,0 -0.27161,0.41672 -0.76526,0.92604 -0.49366,0.50932 -0.95709,0.92604 -1.02985,0.92604 -0.0728,0 0.27161,-0.41672 0.76527,-0.92604 z m 52.63205,-0.0661 -0.64143,-0.72761 0.7276,0.64143 c 0.40018,0.35279 0.72761,0.68021 0.72761,0.72761 0,0.2075 -0.21426,0.0386 -0.81378,-0.64143 z m -1.18383,-1.37559 c -0.13824,-0.13811 -1.08479,-0.29339 -2.10343,-0.34506 l -1.85209,-0.0939 1.88583,-0.0518 c 1.40192,-0.0385 1.97036,0.05 2.21521,0.34505 0.36242,0.43669 0.2542,0.54509 -0.14552,0.14577 z m -47.97261,-3.3713 c -0.0198,-0.900917 0.0533,-1.693224 0.16241,-1.760683 0.10914,-0.06746 0.16363,0.43153 0.12109,1.108864 -0.13185,2.099549 -0.24589,2.361729 -0.2835,0.651819 z m 44.41341,0.513552 c -3.1e-4,-0.109141 1.27961,-0.167073 2.84427,-0.128738 5.268,0.129068 5.78142,0.226814 1.45577,0.277147 -2.36472,0.02752 -4.29973,-0.03927 -4.30004,-0.148409 z M 97.621288,98.106619 c 0.0127,-0.308224 0.07539,-0.370919 0.159852,-0.159852 0.07643,0.190996 0.06703,0.419199 -0.02089,0.507118 -0.08792,0.08792 -0.150453,-0.06835 -0.138964,-0.347266 z m 2.029632,-0.835306 c 0.90951,-0.05166 2.39779,-0.05166 3.30729,0 0.90951,0.05166 0.16537,0.09394 -1.65364,0.09394 -1.819014,0 -2.563155,-0.04227 -1.65365,-0.09394 z m 47.29614,-0.06566 c -0.0927,-0.149982 0.0135,-0.194339 0.24897,-0.103984 0.45837,0.175892 0.54223,0.365537 0.16165,0.365537 -0.13693,0 -0.32171,-0.117699 -0.41062,-0.261553 z m 14.74865,0.06535 c 0.98226,-0.05091 2.58961,-0.05091 3.57187,0 0.98227,0.05091 0.1786,0.09256 -1.78593,0.09256 -1.96453,0 -2.76821,-0.04165 -1.78594,-0.09256 z m -35.56992,-3.159539 c 0.19099,-0.07643 0.4192,-0.06703 0.50712,0.02089 0.0879,0.08792 -0.0683,0.150453 -0.34727,0.138965 -0.30822,-0.0127 -0.37092,-0.07539 -0.15985,-0.159853 z m 11.09596,0.0055 c 0.1819,-0.0734 0.47956,-0.0734 0.66146,0 0.1819,0.0734 0.0331,0.133452 -0.33073,0.133452 -0.3638,0 -0.51263,-0.06005 -0.33073,-0.133452 z m -9.525,-0.264583 c 0.1819,-0.0734 0.47956,-0.0734 0.66146,0 0.1819,0.0734 0.0331,0.133452 -0.33073,0.133452 -0.3638,0 -0.51263,-0.06005 -0.33073,-0.133452 z m 7.81025,-0.0081 c 0.25743,-0.06708 0.61461,-0.06267 0.79375,0.0098 0.17913,0.07248 -0.0315,0.127362 -0.46806,0.12197 -0.43656,-0.0054 -0.58313,-0.06469 -0.32569,-0.131773 z m -4.37066,-0.274959 c 0.61846,-0.0557 1.63049,-0.0557 2.24895,0 0.61847,0.0557 0.11245,0.10128 -1.12448,0.10128 -1.23692,0 -1.74294,-0.04558 -1.12447,-0.10128 z m -7.12722,-1.839095 c 0.191,-0.07643 0.4192,-0.06703 0.50712,0.02089 0.0879,0.08792 -0.0683,0.150453 -0.34727,0.138965 -0.30822,-0.0127 -0.37091,-0.07539 -0.15985,-0.159853 z m 1.32292,-0.264583 c 0.191,-0.07643 0.4192,-0.06703 0.50712,0.02089 0.0879,0.08792 -0.0684,0.150453 -0.34727,0.138964 -0.30822,-0.0127 -0.37092,-0.07539 -0.15985,-0.159852 z m 12.68346,0.0055 c 0.1819,-0.0734 0.47956,-0.0734 0.66146,0 0.1819,0.0734 0.0331,0.133452 -0.33073,0.133452 -0.3638,0 -0.51263,-0.06005 -0.33073,-0.133452 z m -11.23975,-0.272709 c 0.25743,-0.06708 0.61461,-0.06267 0.79375,0.0098 0.17913,0.07248 -0.0315,0.127362 -0.46806,0.12197 -0.43656,-0.0054 -0.58312,-0.06469 -0.32569,-0.131774 z m 9.38767,0.0081 c 0.1819,-0.0734 0.47956,-0.0734 0.66146,0 0.1819,0.0734 0.0331,0.133452 -0.33073,0.133452 -0.3638,0 -0.51263,-0.06005 -0.33073,-0.133452 z m -5.67888,-0.285167 c 0.84206,-0.05267 2.15174,-0.05218 2.91041,0.0011 0.75868,0.05326 0.0697,0.09635 -1.53101,0.09575 -1.60073,-5.97e-4 -2.22146,-0.04417 -1.3794,-0.09684 z"
         id="path13" /><path
         style="fill:#33a19f"
         d="m 131.40092,166.33673 c 0.32742,-0.0631 0.8632,-0.0631 1.19062,0 0.32743,0.0631 0.0595,0.11466 -0.59531,0.11466 -0.65484,0 -0.92273,-0.0516 -0.59531,-0.11466 z m -3.42305,-0.2586 c 0.191,-0.0764 0.4192,-0.067 0.50712,0.0209 0.0879,0.0879 -0.0684,0.15045 -0.34727,0.13897 -0.30822,-0.0127 -0.37091,-0.0754 -0.15985,-0.15986 z m 7.40834,0 c 0.19099,-0.0764 0.41919,-0.067 0.50711,0.0209 0.0879,0.0879 -0.0683,0.15045 -0.34726,0.13897 -0.30823,-0.0127 -0.37092,-0.0754 -0.15985,-0.15986 z m -5.55625,-2.38125 c 0.19099,-0.0764 0.41919,-0.067 0.50711,0.0209 0.0879,0.0879 -0.0684,0.15045 -0.34726,0.13897 -0.30823,-0.0127 -0.37092,-0.0754 -0.15985,-0.15986 z m 5.02708,0 c 0.19099,-0.0764 0.4192,-0.067 0.50712,0.0209 0.0879,0.0879 -0.0684,0.15045 -0.34727,0.13897 -0.30822,-0.0127 -0.37092,-0.0754 -0.15985,-0.15986 z m 23.39909,-1.60419 c 1.56434,-0.0468 4.12419,-0.0468 5.68854,0 1.56435,0.0468 0.28442,0.085 -2.84427,0.085 -3.1287,0 -4.40862,-0.0383 -2.84427,-0.085 z m -51.99063,-0.24238 c 0.1819,-0.0734 0.47956,-0.0734 0.66146,0 0.1819,0.0734 0.0331,0.13345 -0.33073,0.13345 -0.3638,0 -0.51263,-0.06 -0.33073,-0.13345 z m 60.47313,-1.54456 c 0.001,-0.87313 0.0509,-1.19842 0.10977,-0.72287 0.0589,0.47555 0.0577,1.18993 -0.003,1.5875 -0.0604,0.39758 -0.10855,0.008 -0.10707,-0.86463 z m -40.24165,0.80042 c -3.02414,-0.58261 -4.74087,-1.14983 -7.69469,-2.54238 -3.84617,-1.81323 -6.93827,-3.94043 -9.56235,-6.57838 -2.64204,-2.65601 -4.27243,-5.01623 -6.27599,-9.08537 -1.25042,-2.53956 -2.71772,-7.01685 -2.71772,-8.2928 0,-0.28893 0.70146,-0.36295 3.43959,-0.36295 h 3.43958 v 2.11667 2.11666 h -1.79917 c -1.04657,0 -1.93197,0.13282 -2.11666,0.3175 -0.44052,0.44052 -0.39665,1.27317 0.0957,1.81727 0.37429,0.41359 0.92414,0.44297 5.83323,0.31167 l 5.41997,-0.14496 -0.0785,1.95812 -0.0785,1.95811 -1.45521,0.038 c -0.80036,0.0209 -1.6613,0.0507 -1.91319,0.0661 -0.59542,0.0366 -0.86498,1.13855 -0.46247,1.89064 l 0.31516,0.58889 6.05733,-0.19196 6.05734,-0.19197 v 1.72656 c 0,1.91013 -0.1943,2.11407 -1.92428,2.01974 -1.61985,-0.0883 -2.02685,0.009 -2.31855,0.55397 -0.22911,0.42808 -0.19671,0.69341 0.14913,1.22122 l 0.44183,0.67431 5.99312,-0.0967 5.99312,-0.0967 0.0785,1.6418 0.0785,1.64181 -1.90283,0.078 c -2.20828,0.0905 -2.68448,0.46764 -2.12923,1.68627 l 0.32957,0.72333 5.47695,-0.17847 c 3.01232,-0.0982 5.73603,-0.24739 6.05269,-0.33164 0.46376,-0.1234 0.71192,0.0625 1.27587,0.95588 0.38507,0.60999 0.64923,1.15997 0.58703,1.22217 -0.0622,0.0622 -0.93401,0.29273 -1.93733,0.51226 -2.62601,0.57459 -10.29696,0.72946 -12.74744,0.25736 z m -15.33077,-2.25563 c 0,-0.65484 0.0516,-0.92273 0.11466,-0.59531 0.0631,0.32742 0.0631,0.8632 0,1.19062 -0.0631,0.32742 -0.11466,0.0595 -0.11466,-0.59531 z m 53.45846,-0.79375 c 0,-0.94588 0.048,-1.33284 0.10671,-0.8599 0.0587,0.47295 0.0587,1.24685 0,1.7198 -0.0587,0.47294 -0.10671,0.086 -0.10671,-0.8599 z m -6.69927,-2.21656 c 0,-0.0549 0.20836,-0.2633 0.46302,-0.46302 0.41964,-0.32911 0.429,-0.31975 0.0999,0.0999 -0.34564,0.44073 -0.56291,0.58089 -0.56291,0.36313 z m 8.81323,-3.47198 c 0.001,-0.87313 0.0509,-1.19842 0.10977,-0.72287 0.0589,0.47555 0.0577,1.18993 -0.003,1.5875 -0.0604,0.39758 -0.10855,0.008 -0.10707,-0.86463 z m -6.43198,1.09073 c 0,-0.0549 0.20836,-0.2633 0.46302,-0.46302 0.41964,-0.32911 0.429,-0.31975 0.0999,0.0999 -0.34564,0.44073 -0.56291,0.58089 -0.56291,0.36313 z m -53.86785,-1.02459 -0.50403,-0.59531 0.59532,0.50403 c 0.55944,0.47366 0.71576,0.6866 0.50402,0.6866 -0.0502,0 -0.31809,-0.26789 -0.59531,-0.59532 z m 56.44753,-3.81324 c 0.18191,-0.0734 0.47956,-0.0734 0.66146,0 0.1819,0.0734 0.0331,0.13345 -0.33073,0.13345 -0.3638,0 -0.51263,-0.0601 -0.33073,-0.13345 z M 94.975455,133.2962 c 0.0127,-0.30822 0.07539,-0.37092 0.159852,-0.15985 0.07643,0.19099 0.06703,0.4192 -0.02089,0.50712 -0.08792,0.0879 -0.150453,-0.0684 -0.138964,-0.34727 z m 74.378605,-0.7717 c 0.005,-0.43656 0.0647,-0.58312 0.13177,-0.32569 0.0671,0.25743 0.0627,0.61461 -0.01,0.79375 -0.0725,0.17913 -0.12736,-0.0315 -0.12197,-0.46806 z m -2.41194,-1.08038 c 0.0127,-0.30823 0.0754,-0.37092 0.15985,-0.15985 0.0764,0.19099 0.067,0.41919 -0.0209,0.50711 -0.0879,0.0879 -0.15045,-0.0684 -0.13896,-0.34726 z m -69.564527,-0.37483 c 0,-0.3638 0.06005,-0.51263 0.133452,-0.33073 0.0734,0.1819 0.0734,0.47956 0,0.66146 -0.0734,0.1819 -0.133452,0.0331 -0.133452,-0.33073 z m -2.615547,-1.05833 c 0,-0.65485 0.0516,-0.92274 0.114662,-0.59531 0.06306,0.32742 0.06306,0.8632 0,1.19062 -0.06306,0.32742 -0.114662,0.0595 -0.114662,-0.59531 z m -0.01068,-3.175 c 0,-0.50932 0.05445,-0.71768 0.121,-0.46302 0.06655,0.25466 0.06655,0.67138 0,0.92604 -0.06655,0.25466 -0.121,0.0463 -0.121,-0.46302 z m 72.211644,-0.52917 c 0,-0.3638 0.06,-0.51263 0.13345,-0.33073 0.0734,0.1819 0.0734,0.47956 0,0.66146 -0.0734,0.1819 -0.13345,0.0331 -0.13345,-0.33073 z M 97.3972,125.51304 c 0,-0.50932 0.05445,-0.71768 0.121,-0.46302 0.06655,0.25466 0.06655,0.67138 0,0.92604 -0.06655,0.25466 -0.121,0.0463 -0.121,-0.46302 z m 4.38692,-14.73282 c 0.191,-0.0764 0.4192,-0.067 0.50712,0.0209 0.0879,0.0879 -0.0683,0.15045 -0.34726,0.13896 -0.30823,-0.0127 -0.37092,-0.0754 -0.15986,-0.15985 z m 64.95721,-4.05259 c 0,-0.94589 0.048,-1.33284 0.10671,-0.8599 0.0587,0.47294 0.0587,1.24685 0,1.71979 -0.0587,0.47294 -0.10671,0.086 -0.10671,-0.85989 z m -64.64301,-0.45268 c 0,-0.15195 0.20836,-0.43969 0.46302,-0.63941 0.42829,-0.33589 0.43391,-0.32344 0.0749,0.16604 -0.21349,0.29105 -0.42185,0.57878 -0.46303,0.63941 -0.0412,0.0606 -0.0749,-0.0141 -0.0749,-0.16604 z m 3.96875,-0.70555 c 0,-0.0549 0.20836,-0.2633 0.46302,-0.46302 0.41964,-0.32911 0.429,-0.31975 0.0999,0.0999 -0.34564,0.44073 -0.56291,0.58089 -0.56291,0.36313 z m -2.11667,-1.5875 c 0,-0.0549 0.20836,-0.2633 0.46302,-0.46302 0.41964,-0.32911 0.429,-0.31975 0.0999,0.0999 -0.34564,0.44073 -0.56291,0.58089 -0.56291,0.36313 z m -6.000731,-3.86886 c 0,-0.945883 0.04802,-1.332836 0.106712,-0.859893 0.05869,0.472943 0.05869,1.246853 0,1.719793 -0.05869,0.47294 -0.106712,0.086 -0.106712,-0.8599 z M 166.7491,99.583876 c 0,-1.236927 0.0456,-1.742942 0.10128,-1.124479 0.0557,0.618464 0.0557,1.630493 0,2.248963 -0.0557,0.61846 -0.10128,0.11244 -0.10128,-1.124484 z m -64.30706,0.06739 c 1.28045,-0.04861 3.30451,-0.04836 4.49791,5.53e-4 1.1934,0.04891 0.14576,0.08868 -2.32809,0.08837 -2.47386,-3.04e-4 -3.45028,-0.04032 -2.16982,-0.08893 z m 53.10211,-1.110112 c 0,-0.427974 0.0942,-0.836341 0.20928,-0.907482 0.11511,-0.07114 0.16162,0.279019 0.10335,0.778135 -0.12982,1.111964 -0.31263,1.187602 -0.31263,0.129347 z m -25.97878,-4.958855 c 0.191,-0.07643 0.4192,-0.06703 0.50712,0.02089 0.0879,0.08792 -0.0683,0.150452 -0.34727,0.138964 -0.30822,-0.0127 -0.37091,-0.07539 -0.15985,-0.159852 z m 5.02709,0 c 0.19099,-0.07643 0.41919,-0.06703 0.50711,0.02089 0.0879,0.08792 -0.0684,0.150452 -0.34726,0.138964 -0.30823,-0.0127 -0.37092,-0.07539 -0.15985,-0.159852 z m -6.63112,-2.375738 c 0.1819,-0.0734 0.47955,-0.0734 0.66145,0 0.18191,0.0734 0.0331,0.133452 -0.33073,0.133452 -0.3638,0 -0.51263,-0.06005 -0.33072,-0.133452 z m 7.42487,-0.0055 c 0.19099,-0.07643 0.41919,-0.06703 0.50711,0.02089 0.0879,0.08792 -0.0683,0.150453 -0.34726,0.138964 -0.30823,-0.0127 -0.37092,-0.07539 -0.15985,-0.159852 z"
         id="path12" /><path
         style="fill:#d5262f"
         d="m 137.20029,111.1594 c -0.81617,-0.61847 -1.48753,-1.2108 -1.49192,-1.31631 -0.004,-0.1055 0.33111,-0.124 0.74554,-0.0411 0.69596,0.1392 4.18632,-0.21248 5.95598,-0.60011 0.72599,-0.15902 0.74333,-0.14031 0.43173,0.46599 -0.17854,0.34741 -0.75143,1.07814 -1.27308,1.62384 -1.34016,1.40196 -2.38533,1.3703 -4.36825,-0.13229 z"
         id="path11" /><path
         style="fill:#5a5e5f"
         d="m 147.83506,152.82836 c -0.32178,-0.41046 -0.31352,-0.42323 0.0766,-0.11834 0.35737,0.27931 0.46235,0.27931 0.57442,0 0.0941,-0.23458 0.14369,-0.24294 0.15802,-0.0267 0.0359,0.54194 -0.43208,0.62582 -0.80903,0.145 z m -1.23103,-0.16884 c 0.18764,-0.20361 0.38285,-0.33059 0.4338,-0.28219 0.15694,0.14908 -0.24081,0.65238 -0.51556,0.65238 -0.14267,0 -0.10588,-0.16659 0.0818,-0.37019 z m 6.42658,-1.11673 c -1.78442,-1.25253 -3.79933,-2.27143 -4.11097,-2.07883 -0.14006,0.0866 -0.25466,-0.0282 -0.25466,-0.2551 0,-0.55295 0.49728,-0.51722 1.4387,0.10336 0.42749,0.2818 0.87397,0.45258 0.99219,0.37952 0.11822,-0.0731 0.21494,-0.007 0.21494,0.14735 0,0.15411 0.1723,0.2802 0.38288,0.2802 0.21058,0 0.92495,0.28823 1.5875,0.64051 0.66254,0.35227 1.20645,0.56063 1.20868,0.46302 0.002,-0.0976 0.0919,-0.0395 0.19921,0.12923 0.13924,0.21884 0.37626,0.16009 0.82718,-0.20505 0.34761,-0.28147 0.58538,-0.55231 0.52839,-0.60185 -0.66628,-0.57915 -2.39909,-1.4339 -2.78414,-1.37333 -0.27197,0.0428 -0.33216,0.024 -0.13376,-0.0417 0.32453,-0.10751 -3.43844,-2.45039 -3.93564,-2.45039 -0.38937,0 -1.84905,-1.86999 -1.84905,-2.36882 0,-0.27408 -0.0632,-0.71642 -0.14047,-0.98298 -0.10698,-0.36909 -0.0799,-0.35848 0.11342,0.0445 0.13964,0.29104 0.32412,0.85636 0.40997,1.25627 0.17244,0.80331 0.4932,1.03426 5.25305,3.78232 1.71733,0.99149 3.18923,1.91081 3.27088,2.04294 0.14074,0.22772 -1.43869,2.06287 -1.74885,2.03201 -0.0806,-0.008 -0.74185,-0.43244 -1.46945,-0.94317 z m -8.46667,0.42858 c -0.43138,-0.18537 -0.44649,-0.23082 -0.0818,-0.24598 0.24607,-0.0102 0.52099,0.10046 0.61093,0.24598 0.18803,0.30424 0.17883,0.30424 -0.52917,0 z m 2.64583,0 c -0.0899,-0.14552 -0.0374,-0.26458 0.11668,-0.26458 0.15411,0 0.2802,0.11906 0.2802,0.26458 0,0.14552 -0.0525,0.26459 -0.11668,0.26459 -0.0642,0 -0.19026,-0.11907 -0.2802,-0.26459 z m 1.53089,-0.92604 c 0.002,-0.7276 0.0534,-0.99386 0.11418,-0.59167 0.0608,0.40218 0.0592,0.99749 -0.004,1.32291 -0.0628,0.32543 -0.11256,-0.004 -0.11057,-0.73124 z m -5.63978,-0.41154 c -0.16008,-0.29911 -0.24471,-0.68287 -0.18807,-0.85279 0.0566,-0.16993 0.23677,0.0748 0.40028,0.54383 0.33594,0.96369 0.22479,1.12551 -0.21221,0.30896 z m -0.50043,-1.72717 c 0.0127,-0.30823 0.0754,-0.37092 0.15985,-0.15986 0.0764,0.191 0.067,0.4192 -0.0209,0.50712 -0.0879,0.0879 -0.15046,-0.0684 -0.13897,-0.34726 z m -0.37229,-1.40422 c -0.0978,-0.48886 -0.16472,-1.14185 -0.14877,-1.45108 0.0159,-0.30923 0.13442,-0.0265 0.26328,0.62839 0.12886,0.65484 0.19581,1.30782 0.14878,1.45107 -0.047,0.14325 -0.16551,-0.13952 -0.26329,-0.62838 z m -0.44235,-2.37264 c 0,-0.17338 -0.3022,-0.43013 -0.67157,-0.57056 -0.36936,-0.14044 -1.79818,-0.91838 -3.17515,-1.72877 -1.37696,-0.81039 -2.62257,-1.39989 -2.76801,-1.31 -0.14544,0.0899 -0.26443,0.0336 -0.26443,-0.12508 0,-0.42998 0.8171,-0.66222 1.04313,-0.29648 0.10779,0.17441 0.30414,0.284 0.43632,0.24353 0.13219,-0.0405 0.57116,0.23794 0.9755,0.61869 0.40434,0.38074 1.56073,1.12609 2.56977,1.65632 1.82539,0.95922 2.31607,1.36595 2.01323,1.66879 -0.0873,0.0873 -0.15879,0.0169 -0.15879,-0.15644 z m 7.079,-2.81568 c 0.0695,-0.3638 0.17209,-0.66146 0.22789,-0.66146 0.0558,0 0.10145,0.29766 0.10145,0.66146 0,0.3638 -0.10255,0.66146 -0.2279,0.66146 -0.12534,0 -0.17099,-0.29766 -0.10144,-0.66146 z m -15.10778,-0.35156 c -0.24084,-0.26612 -0.43312,-0.65307 -0.42729,-0.8599 0.006,-0.20682 0.19314,-0.0392 0.41626,0.37244 0.25015,0.46153 0.55038,0.69294 0.78316,0.60361 0.20762,-0.0797 0.37749,-0.0295 0.37749,0.11143 0,0.42407 -0.68208,0.28905 -1.14962,-0.22758 z m 13.53542,0.30311 c 0.191,-0.0764 0.4192,-0.067 0.50712,0.0209 0.0879,0.0879 -0.0683,0.15045 -0.34726,0.13897 -0.30823,-0.0127 -0.37092,-0.0754 -0.15986,-0.15986 z m -7.45345,-0.64568 c -0.56142,-0.29616 -0.94135,-0.40996 -0.84428,-0.25289 0.0971,0.15706 -0.001,0.28556 -0.21817,0.28556 -0.21706,0 -0.47024,-0.23812 -0.56261,-0.52916 -0.15253,-0.48058 -0.44652,-0.64666 -0.99219,-0.5605 -0.10914,0.0172 -0.19844,-0.24557 -0.19844,-0.58401 0,-0.72249 1.1292,-1.88493 1.63474,-1.68286 0.24938,0.0997 0.22862,0.14575 -0.0724,0.16065 -0.57589,0.0285 -1.45634,1.03397 -1.14601,1.30873 0.13481,0.11936 1.04877,0.65815 2.03104,1.19732 l 1.78594,0.98032 V 141.289 c 0,-0.35976 -0.31118,-1.0502 -0.6915,-1.5343 l -0.69149,-0.8802 0.82378,0.86407 c 0.54494,0.57158 0.82379,1.13134 0.82379,1.65365 0,0.92855 -0.28143,0.96665 -1.68223,0.22773 z m 8.84687,-0.91542 c 0.0127,-0.30822 0.0754,-0.37091 0.15985,-0.15985 0.0764,0.191 0.067,0.4192 -0.0209,0.50712 -0.0879,0.0879 -0.15045,-0.0683 -0.13896,-0.34727 z m -16.14828,-0.88363 c -0.69066,-0.36778 -1.02466,-0.41742 -1.36758,-0.20326 -0.52536,0.32809 -1.29045,-0.14908 -1.29045,-0.80485 0,-0.27093 0.16342,-0.19891 0.5238,0.23084 0.41215,0.4915 0.57367,0.54908 0.75786,0.2702 0.19008,-0.28782 0.43967,-0.24952 1.32829,0.20382 0.60182,0.30703 1.09422,0.61534 1.09422,0.68514 0,0.17332 -0.0111,0.16926 -1.04614,-0.38189 z m 15.8837,-0.1747 c 0.0127,-0.30822 0.0754,-0.37092 0.15985,-0.15985 0.0764,0.19099 0.067,0.4192 -0.0209,0.50712 -0.0879,0.0879 -0.15045,-0.0684 -0.13896,-0.34727 z m -14.9037,-1.40552 c -0.74566,-0.72661 -0.9077,-1.20802 -0.4929,-1.46438 0.12909,-0.0798 0.21839,0.0546 0.19844,0.29866 -0.0213,0.26093 0.3905,0.68642 0.99972,1.03288 0.94268,0.53609 1.09024,0.55362 1.63815,0.19461 0.33119,-0.217 0.65485,-0.59378 0.71925,-0.83729 0.10896,-0.41196 0.11923,-0.4118 0.14779,0.002 0.0368,0.53312 -1.30701,1.55101 -1.99453,1.51083 -0.26858,-0.0157 -0.81574,-0.3476 -1.21592,-0.73757 z m -5.09323,-0.84987 c -2.66274,-2.03167 -4.64667,-3.19908 -5.66986,-3.33632 -0.89576,-0.12015 -1.07702,-0.0684 -1.07702,0.30761 0,0.8336 -1.45343,1.99886 -2.49319,1.99886 -1.05947,0 -1.04239,0.0224 -0.69028,-0.90377 0.16835,-0.44279 0.39215,-0.62142 0.65309,-0.52129 0.21834,0.0838 0.37098,0.27499 0.3392,0.42489 -0.1117,0.52694 0.5766,0.49808 1.12171,-0.047 0.45004,-0.45004 0.48946,-0.61779 0.21497,-0.91481 -0.18487,-0.20004 -0.43813,-0.30179 -0.56281,-0.22612 -0.12468,0.0757 -0.0822,0.22689 0.0944,0.33603 0.47603,0.29421 -0.14447,0.60295 -0.79612,0.39613 -0.70382,-0.22338 -0.66386,-0.49794 0.13466,-0.92529 0.99766,-0.53394 0.80232,-0.76454 -0.63819,-0.75338 -1.61607,0.0125 -2.40452,-0.22561 -2.40452,-0.72621 0,-1.00882 2.11362,-0.97193 3.76505,0.0657 0.99301,0.62394 1.56138,0.76174 1.8698,0.45333 0.0917,-0.0917 -0.48474,-0.89541 -1.28104,-1.78594 -0.83646,-0.93543 -1.6683,-2.20444 -1.96995,-3.00522 -0.28716,-0.76234 -0.9425,-2.22085 -1.45631,-3.24114 -0.97915,-1.94433 -0.92794,-2.33513 0.15081,-1.15096 0.35279,0.38727 0.4926,0.61837 0.3107,0.51356 -0.50311,-0.28991 -0.40389,0.5101 0.11569,0.93274 0.39092,0.31799 0.42484,0.30557 0.27288,-0.0999 -0.35682,-0.9521 0.0853,-0.40452 1.16239,1.43976 0.6112,1.04652 1.56468,2.39465 2.11883,2.99583 1.23807,1.34315 5.86522,4.68805 8.10484,5.85888 1.40418,0.73407 1.58208,0.9035 1.17654,1.12054 -0.36393,0.19477 -0.55267,0.13579 -0.79205,-0.24752 -0.18231,-0.29193 -0.4819,-0.43889 -0.71352,-0.35002 -0.21958,0.0843 -0.39925,0.0144 -0.39925,-0.1553 0,-0.16967 -0.13745,-0.22355 -0.30546,-0.11971 -0.18089,0.11179 -0.23396,0.0731 -0.13012,-0.0949 0.10037,-0.16241 -0.62672,-0.83035 -1.70057,-1.56224 -1.03175,-0.70319 -2.13868,-1.45712 -2.45983,-1.6754 -2.28699,-1.55439 -3.99405,-3.46006 -5.23897,-5.84848 -0.80443,-1.54333 -0.89115,-0.94571 -0.14916,1.028 0.6054,1.61042 0.89227,2.02962 2.90188,4.24055 0.78853,0.86751 0.96716,1.22291 0.74762,1.48743 -0.22431,0.27028 -0.11727,0.38181 0.48131,0.50152 1.01177,0.20236 7.24511,4.41374 6.51476,4.40152 -0.14552,-0.002 -0.74083,-0.36781 -1.32291,-0.81194 z m -9.22262,-4.86631 c -0.42955,-0.42955 -2.02217,-0.5511 -2.02217,-0.15434 0,0.33341 0.50009,0.5056 1.54025,0.53033 0.78115,0.0186 0.8347,-0.0232 0.48192,-0.37599 z m 16.46491,3.9026 c -0.32911,-0.41964 -0.31975,-0.429 0.0999,-0.0999 0.44073,0.34564 0.58089,0.56291 0.36313,0.56291 -0.0549,0 -0.2633,-0.20835 -0.46302,-0.46302 z m -2.08292,0.097 c 0,-0.0558 0.23829,-0.16375 0.52953,-0.23991 0.29125,-0.0762 0.46281,-0.0305 0.38126,0.10143 -0.14241,0.23043 -0.91079,0.34725 -0.91079,0.13848 z m -0.99657,-1.1996 0.86387,-0.77186 -0.61441,-0.88178 -0.61441,-0.88179 0.68076,0.74236 c 0.37442,0.4083 0.68076,0.84996 0.68076,0.98148 0,0.28339 -1.3589,1.58345 -1.65512,1.58345 -0.11292,0 0.18343,-0.34733 0.65855,-0.77186 z m -0.88926,-3.13074 c -0.32911,-0.41964 -0.31975,-0.429 0.0999,-0.0999 0.25467,0.19972 0.46302,0.40807 0.46302,0.46302 0,0.21776 -0.21727,0.0776 -0.56291,-0.36313 z m -1.28133,-1.98437 c -0.43814,-0.76399 -0.79774,-1.49821 -0.79911,-1.6316 -0.003,-0.32171 0.0329,-0.26806 1.01164,1.4993 0.46337,0.83675 0.78435,1.52136 0.71329,1.52136 -0.0711,0 -0.48768,-0.62508 -0.92582,-1.38906 z m 14.97381,0.71737 c -0.25532,-0.66534 -0.18,-0.83702 0.1319,-0.30065 0.15443,0.26557 0.22505,0.5386 0.15693,0.60672 -0.0681,0.0681 -0.1981,-0.0696 -0.28883,-0.30607 z m -1.1019,-2.25633 c -0.0959,-0.1552 -0.11766,-0.33893 -0.0483,-0.40829 0.0693,-0.0693 0.1966,0.0576 0.28277,0.28219 0.17891,0.46622 0.0264,0.54823 -0.23447,0.1261 z m -30.26551,-0.62427 c -0.734,-0.7813 -0.55993,-1.13428 0.67345,-1.36566 1.10618,-0.20752 2.03701,0.20798 2.43811,1.08832 0.33037,0.72507 0.01,0.91921 -1.51798,0.91921 -0.70646,0 -1.16353,-0.1841 -1.59358,-0.64187 z m 2.17567,-0.41362 c -0.0761,-0.29093 -0.45023,-0.45055 -1.15334,-0.49204 -0.57241,-0.0338 -1.04073,0.0387 -1.04073,0.16098 0,0.44699 0.52691,0.72552 1.40629,0.74339 0.70632,0.0144 0.87612,-0.0745 0.78778,-0.41233 z m 5.63944,0.37239 c -0.45194,-1.17773 0.0612,-3.50686 0.68731,-3.11989 0.16494,0.10195 0.21804,0.0606 0.12193,-0.0949 -0.0936,-0.15152 0.005,-0.42098 0.21931,-0.5988 0.32182,-0.26709 0.43636,-0.20028 0.65855,0.38412 0.40033,1.05296 0.33163,1.68007 -0.30892,2.81978 -0.60943,1.08433 -1.11091,1.30618 -1.37818,0.60969 z m 7.42225,-0.22831 c -0.0855,-0.22278 -0.21721,-1.03159 -0.2927,-1.79734 -0.13328,-1.3518 -0.12672,-1.34228 0.22566,0.3275 0.35344,1.67482 0.38147,2.28922 0.067,1.46984 z m 13.9733,-0.8568 c -0.25583,-0.39044 -1.43038,-1.74126 -2.61012,-3.00183 l -2.14499,-2.29195 2.43241,2.46205 c 1.33783,1.35413 2.5624,2.70495 2.72129,3.00183 0.41675,0.77871 0.14792,0.66398 -0.39859,-0.1701 z m -28.98741,-3.8626 c -0.56419,-0.43317 -1.0957,-1.46591 -0.9095,-1.76719 0.20793,-0.33643 1.56577,0.16763 2.12946,0.79049 0.85967,0.94993 -0.17545,1.77865 -1.21996,0.9767 z m 1.34585,-0.0935 c 0,-0.18443 -1.27799,-1.4194 -1.46884,-1.4194 -0.0653,0 -0.11866,0.25087 -0.11866,0.55748 0,0.38483 0.12192,0.51068 0.3937,0.40639 0.21653,-0.0831 0.38103,-0.0661 0.36554,0.0378 -0.0634,0.42517 0.0549,0.58579 0.43138,0.58579 0.21828,0 0.39688,-0.0756 0.39688,-0.1681 z m 3.30172,-0.42996 c -0.24763,-1.32 0.7264,-3.37069 1.601,-3.37069 0.39798,0 0.65811,1.20539 0.46968,2.17634 -0.13561,0.69878 -1.25304,2.057 -1.69233,2.057 -0.11908,0 -0.28934,-0.3882 -0.37835,-0.86265 z m 1.71694,-1.33133 c 0.005,-0.26081 -0.14041,-0.63559 -0.32231,-0.83285 -0.52934,-0.57405 -1.00101,0.50044 -0.63977,1.45745 0.25138,0.66598 0.31126,0.69453 0.61606,0.29364 0.18568,-0.24423 0.3414,-0.65744 0.34602,-0.91824 z m 8.23139,0.45214 c 0.0127,-0.30823 0.0754,-0.37092 0.15985,-0.15986 0.0764,0.191 0.067,0.4192 -0.0209,0.50712 -0.0879,0.0879 -0.15045,-0.0684 -0.13896,-0.34726 z m -12.69729,-0.98753 c -1.05581,-2.18103 -0.50489,-3.72629 0.7567,-2.12244 0.68347,0.8689 0.91615,1.73587 0.69855,2.60285 -0.24918,0.99281 -0.83582,0.79914 -1.45525,-0.48041 z m 0.89279,-0.41523 c 0.19238,-0.60611 -0.3127,-1.79728 -0.84939,-2.00322 -0.28899,-0.1109 -0.34093,-0.0287 -0.19981,0.31617 0.17247,0.42149 0.26596,0.89844 0.36363,1.85508 0.0516,0.5053 0.50732,0.3936 0.68557,-0.16803 z m 20.85304,0.6972 c -0.39666,-0.51288 -0.64618,-0.99219 -0.51652,-0.99219 0.0646,0 0.31251,0.29766 0.55089,0.66146 0.44604,0.68075 0.4212,0.91978 -0.0344,0.33073 z m -8.7822,-0.46302 c -0.008,-0.21828 0.10087,-0.57547 0.24194,-0.79375 0.31256,-0.48365 0.31256,-0.0659 0,0.66146 -0.14994,0.34891 -0.23235,0.39398 -0.24194,0.13229 z m 7.99053,-1.98438 c 0.002,-0.7276 0.0534,-0.99385 0.11418,-0.59167 0.0608,0.40218 0.0592,0.99749 -0.004,1.32292 -0.0628,0.32542 -0.11256,-0.004 -0.11057,-0.73125 z m -6.40443,-1.19062 c 0.38571,-0.8099 0.50792,-0.96 0.50792,-0.62383 0,0.14196 -0.18516,0.48922 -0.41147,0.7717 -0.38798,0.48426 -0.39349,0.47582 -0.0965,-0.14787 z m 6.60144,-0.39688 c 0,-0.14552 0.11542,-0.44317 0.25648,-0.66145 0.14107,-0.21829 0.25648,-0.27782 0.25648,-0.1323 0,0.14552 -0.11541,0.44318 -0.25648,0.66146 -0.14106,0.21828 -0.25648,0.27781 -0.25648,0.13229 z m -6.47338,-1.37765 c -0.14359,-0.37708 -0.1132,-0.40747 0.14811,-0.14811 0.18082,0.17948 0.26211,0.39297 0.18065,0.47443 -0.0815,0.0815 -0.2294,-0.0654 -0.32876,-0.32632 z m -1.47222,-1.40047 c -0.23847,-0.15411 -0.2711,-0.2581 -0.0818,-0.26053 0.17331,-0.002 0.3887,0.11501 0.47863,0.26053 0.20302,0.32849 0.11143,0.32849 -0.39687,0 z m 10.07081,-0.6818 c 0.50017,-0.59327 0.96297,-1.03578 1.02846,-0.98337 0.0655,0.0524 -0.34374,0.53782 -0.90939,1.07868 l -1.02846,0.98336 z m -11.65831,0.0203 c -0.3638,-0.20797 -0.5424,-0.37812 -0.39688,-0.37812 0.14552,0 0.56224,0.17015 0.92604,0.37812 0.36381,0.20797 0.5424,0.37812 0.39688,0.37812 -0.14552,0 -0.56224,-0.17015 -0.92604,-0.37812 z m -2.38125,-0.92604 c -0.21828,-0.14107 -0.27781,-0.25648 -0.13229,-0.25648 0.14552,0 0.44317,0.11541 0.66145,0.25648 0.21829,0.14106 0.27782,0.25648 0.1323,0.25648 -0.14552,0 -0.44318,-0.11542 -0.66146,-0.25648 z m 6.43885,-0.41466 c -0.0875,-0.22806 -0.0309,-0.54287 0.1258,-0.69957 0.20349,-0.2035 0.24252,-0.1228 0.13656,0.28237 -0.10953,0.41885 -0.0284,0.56728 0.31025,0.56728 0.3386,0 0.41977,-0.14843 0.31024,-0.56728 -0.10595,-0.40517 -0.0669,-0.48587 0.13657,-0.28237 0.37502,0.37502 0.0786,1.11423 -0.44681,1.11423 -0.22742,0 -0.48509,-0.1866 -0.57261,-0.41466 z m -10.27531,-0.90826 c -0.0899,-0.14552 -0.0899,-0.38364 0,-0.52916 0.24633,-0.39857 5.11812,-0.28493 6.35,0.14812 0.58208,0.20462 0.76068,0.30074 0.39687,0.2136 -1.30212,-0.31189 -6.61458,-0.42842 -6.61458,-0.1451 0,0.15056 0.20836,0.32819 0.46302,0.39474 0.41744,0.10909 0.41898,0.12402 0.0156,0.15169 -0.24608,0.0169 -0.52099,-0.0884 -0.61093,-0.23389 z m 7.94521,0.0398 c 0.29528,-0.0946 0.96136,-0.49948 1.48018,-0.89966 0.57143,-0.44077 1.24638,-0.71693 1.71208,-0.70052 l 0.76878,0.0271 -0.79375,0.19155 c -1.00242,0.24192 -1.79922,0.66759 -2.23697,1.19505 -0.18775,0.22622 -0.59468,0.39945 -0.90428,0.38494 -0.54978,-0.0258 -0.55039,-0.0304 -0.026,-0.19844 z m 4.82402,-1.54981 c 0.32912,-0.0633 0.80537,-0.0609 1.05833,0.005 0.25297,0.0662 -0.0163,0.118 -0.59839,0.11506 -0.58209,-0.003 -0.78906,-0.0571 -0.45994,-0.1204 z"
         id="path10" /><path
         style="fill:#146e6f"
         d="m 127.89519,166.09639 c -5.16269,-0.77221 -9.75929,-2.27396 -13.74124,-4.48941 -2.76423,-1.53794 -2.79522,-1.566 -2.79522,-2.53105 0,-1.70503 -0.12563,-1.81289 -2.11156,-1.81289 h -1.79036 l -2.41467,-2.52135 -2.41466,-2.52135 v -1.588 c 0,-1.04713 -0.11264,-1.61792 -0.33073,-1.67587 -1.7866,-0.47473 -1.92996,-0.59187 -2.793624,-2.28273 -3.416718,-6.68913 -4.617669,-11.5322 -4.591066,-18.51437 0.02119,-5.56175 1.154141,-10.54319 3.430105,-15.08174 l 0.995111,-1.98438 1.380524,-0.08 c 0.75928,-0.044 1.38052,-0.003 1.38052,0.0915 0,0.0943 -0.21492,0.48745 -0.4776,0.87372 -1.55504,2.28665 -3.543461,8.13037 -4.048969,11.89937 -0.369442,2.75451 -0.1484,9.16905 0.40421,11.73 0.731262,3.38887 2.455659,7.82592 4.169549,10.72867 5.33845,9.04151 13.46397,14.77282 24.16218,17.04271 2.16692,0.45977 9.86726,0.46365 11.90625,0.006 7.37149,-1.65451 13.46588,-4.90629 18.40684,-9.82132 4.03851,-4.01732 6.35315,-7.52413 8.42174,-12.75941 1.83974,-4.6561 2.5502,-11.37636 1.78041,-16.84102 -0.97004,-6.88618 -4.71462,-14.57081 -9.53503,-19.56778 -0.8863,-0.91876 -1.65115,-1.78197 -1.69966,-1.91823 -0.0489,-0.13748 0.67306,-0.24774 1.62225,-0.24774 1.61728,0 1.74656,0.0468 2.3737,0.8599 0.36479,0.47294 0.98512,1.21708 1.37851,1.65364 1.07365,1.19148 1.46061,2.31079 1.46061,4.22484 v 1.72829 h 1.16801 c 1.11737,0 1.19878,0.0545 1.87801,1.25677 1.17871,2.08642 2.39291,5.33252 3.19436,8.53997 0.70336,2.81492 0.75809,3.40092 0.75295,8.06263 -0.006,5.57976 -0.32457,7.79838 -1.73066,12.0587 -0.88276,2.6747 -3.29184,7.63997 -3.77719,7.78502 -0.16217,0.0485 -0.62227,0.15987 -1.02246,0.24755 -0.66923,0.14665 -0.7276,0.26024 -0.7276,1.41602 0,1.07898 -0.15162,1.44005 -1.07275,2.55475 -0.59001,0.71399 -1.85417,2.04574 -2.80924,2.95943 -1.66511,1.59297 -1.79778,1.66449 -3.22674,1.73969 l -1.49023,0.0784 -0.08,1.09598 c -0.0444,0.60858 -0.27974,1.27562 -0.52917,1.49993 -0.72677,0.65357 -7.17748,3.7785 -9.06422,4.391 -3.35322,1.08858 -6.82274,1.63071 -11.09644,1.73387 -2.25557,0.0545 -4.45823,0.0456 -4.89479,-0.0197 z m -29.843864,-4.23728 c -0.102489,-0.10249 -0.186343,-2.55149 -0.186343,-5.44222 0,-5.69373 0.01678,-5.75622 1.449262,-5.39669 l 0.654329,0.16422 0.07269,4.29608 0.0727,4.29608 4.31032,0.0728 c 4.63094,0.0782 4.79176,0.13144 4.45443,1.47547 l -0.15586,0.62099 -5.24258,0.0498 c -2.88342,0.0274 -5.326151,-0.034 -5.42864,-0.13651 z m 57.492824,-0.90795 v -1.07438 l 4.37421,0.0516 c 2.40582,0.0284 4.45964,-0.0354 4.56406,-0.1416 0.10442,-0.10624 0.18985,-2.11652 0.18985,-4.46728 v -4.27413 l 0.96519,-0.0805 0.96519,-0.0805 0.16712,2.99092 c 0.0919,1.64501 0.13384,4.15059 0.0932,5.56796 l -0.074,2.57702 -5.6224,0.003 -5.62239,0.003 z m -53.44409,-52.30531 c 0.002,-2.27742 0.0744,-2.43707 2.23153,-4.91468 l 1.30723,-1.50146 h 1.66933 c 0.91813,0 1.66933,0.0943 1.66933,0.20949 0,0.11523 -0.54528,0.7403 -1.21173,1.38907 -1.28609,1.25195 -5.13827,6.22018 -5.13827,6.62692 0,0.13265 -0.11906,0.24119 -0.26458,0.24119 -0.15378,0 -0.26385,-0.85874 -0.26284,-2.05053 z m -4.125791,-0.42756 c -0.08341,-0.21737 -0.0951,-2.69552 -0.02596,-5.507 l 0.125697,-5.111789 h 5.385594 5.38559 l 0.0817,0.98572 0.0817,0.985719 -4.44735,0.07261 -4.44736,0.07261 -0.132287,4.36562 -0.132292,4.36563 -0.861715,0.083 c -0.578449,0.0557 -0.911569,-0.0469 -1.013374,-0.31217 z m 66.565711,-4.26879 v -4.365624 h -4.3816 -4.38159 l 0.0821,-0.992187 0.0821,-0.992188 5.31705,-0.07149 5.31705,-0.07149 0.16629,3.102789 c 0.0915,1.70653 0.092,4.14972 0.001,5.42931 l -0.16514,2.32652 h -1.01872 -1.01871 z m -53.18074,-4.830405 c 5.1e-4,-1.51685 0.003,-1.521128 1.25677,-2.369513 2.99236,-2.024469 8.44201,-4.2308 12.27103,-4.96801 1.21792,-0.23449 3.65331,-0.497067 5.41198,-0.583506 7.04078,-0.346052 13.96903,1.326804 20.08575,4.849789 2.99793,1.726687 3.07737,1.815031 2.98686,3.321713 -0.042,0.699892 -0.11452,1.272562 -0.16106,1.272592 -0.0465,3e-5 -0.598,-0.35316 -1.22546,-0.784871 -1.54533,-1.063209 -6.35659,-3.593664 -7.82086,-4.113331 -5.82067,-2.06575 -11.28544,-2.661116 -16.84655,-1.83537 -5.24601,0.778956 -9.92392,2.598346 -14.18974,5.51884 l -1.76923,1.211262 z"
         id="path9" /><path
         style="fill:#0f1010"
         d="m 147.92267,152.71073 c -0.17381,-0.17381 -0.31602,-0.4708 -0.31602,-0.65998 0,-0.53663 -0.47453,-0.40377 -0.66146,0.18521 -0.17815,0.56128 -0.66146,0.73206 -0.66146,0.23372 0,-0.16249 -0.23043,-0.23518 -0.51208,-0.16153 -0.29606,0.0774 -0.57159,-0.0212 -0.65315,-0.23372 -0.0776,-0.2022 -0.38717,-0.36764 -0.68795,-0.36764 -0.71043,0 -1.42493,-1.63754 -1.97137,-4.51811 -0.22364,-1.17892 -0.4711,-2.24783 -0.54991,-2.37535 -0.0788,-0.12752 -0.98405,-0.67366 -2.01164,-1.21364 -1.02758,-0.53999 -2.2372,-1.3478 -2.68803,-1.79516 -0.45083,-0.44735 -0.73053,-0.6659 -0.62154,-0.48567 0.1348,0.22293 0.0669,0.27732 -0.21246,0.17013 -0.22584,-0.0867 -0.41062,-0.26389 -0.41062,-0.39384 0,-0.52332 -0.8235,-0.19248 -1.05833,0.42518 -0.13832,0.3638 -0.36931,0.66146 -0.51331,0.66146 -0.34892,0 -0.80961,-0.89037 -0.80961,-1.56473 0,-0.73016 -2.06614,-1.84 -2.42616,-1.30323 -0.18642,0.27794 -0.33569,0.21859 -0.69172,-0.27503 -1.10918,-1.53786 -5.83146,-4.95719 -7.23334,-5.23757 -0.59858,-0.11971 -0.70562,-0.23124 -0.48131,-0.50152 0.21992,-0.26499 0.0166,-0.64816 -0.85565,-1.6127 -0.62926,-0.69582 -1.38718,-1.53795 -1.68426,-1.87141 -0.29708,-0.33346 -0.83172,-1.44713 -1.18808,-2.47481 -0.35637,-1.02769 -0.79791,-1.993 -0.98121,-2.14512 -0.1833,-0.15212 -0.33327,-0.46442 -0.33327,-0.69398 0,-0.58373 0.31365,-0.19038 1.33385,1.67281 1.60872,2.93798 3.06141,4.59613 5.44725,6.21771 0.32115,0.21828 1.42808,0.97221 2.45983,1.6754 1.07385,0.73189 1.80094,1.39983 1.70057,1.56224 -0.10384,0.16801 -0.0508,0.20671 0.13012,0.0949 0.16801,-0.10384 0.30546,-0.05 0.30546,0.11971 0,0.16968 0.17967,0.23957 0.39925,0.1553 0.23025,-0.0883 0.52973,0.0557 0.70748,0.34034 0.30051,0.4812 0.33233,0.48098 1.27238,-0.009 1.04152,-0.54287 2.11881,-1.4511 2.11881,-1.78631 0,-0.11441 -0.53736,-0.90005 -1.19415,-1.74585 -2.88471,-3.71494 -4.09602,-8.10162 -3.21876,-11.65652 0.2445,-0.99075 0.80164,-2.35786 1.2381,-3.03802 0.99799,-1.55523 1.00815,-2.39164 0.0407,-3.3528 -0.71884,-0.71419 -3.90055,-2.09444 -7.25081,-3.14545 -0.83675,-0.2625 -1.52136,-0.57458 -1.52136,-0.69353 0,-0.38672 4.73212,-0.22981 6.50578,0.21572 1.66776,0.41893 1.73738,0.41593 2.30334,-0.0992 1.11833,-1.01796 1.98103,-1.25896 4.17536,-1.1664 0.6801,0.0287 1.37686,0.37451 2.47923,1.23052 1.00514,0.78051 1.79574,1.19063 2.29521,1.19063 0.41905,0 0.76191,0.0749 0.76191,0.16637 0,0.0915 -0.42828,0.64043 -0.95175,1.21984 -1.24812,1.38152 -2.21743,3.50322 -2.22066,4.86072 -0.003,1.35758 0.69432,2.43406 3.40995,5.26244 2.73992,2.85366 3.48093,3.86396 4.65748,6.35 1.78702,3.77599 4.27509,11.95246 3.78594,12.44162 -0.0802,0.0802 -0.45945,0.003 -0.84267,-0.17157 -0.38323,-0.17461 -0.76473,-0.24951 -0.84779,-0.16645 -0.38974,0.38974 0.267,2.69191 1.00898,3.53698 0.43262,0.49273 0.88198,0.89588 0.99856,0.89588 0.20287,0 6.56722,3.57081 6.82655,3.83014 0.069,0.069 -0.15903,0.35568 -0.50664,0.63715 -0.45092,0.36514 -0.68794,0.42389 -0.82718,0.20505 -0.10734,-0.16869 -0.19699,-0.22685 -0.19921,-0.12923 -0.002,0.0976 -0.54614,-0.11075 -1.20868,-0.46302 -0.66255,-0.35228 -1.37692,-0.64051 -1.5875,-0.64051 -0.21058,0 -0.38288,-0.12609 -0.38288,-0.2802 0,-0.15411 -0.0967,-0.22042 -0.21494,-0.14735 -0.11822,0.0731 -0.5647,-0.0977 -0.99219,-0.37952 -1.28128,-0.84462 -1.43827,-0.70641 -1.44275,1.27009 -0.005,1.9909 -0.22889,2.63779 -0.73826,2.12842 z m 5.43315,-3.54504 c -0.0879,-0.0879 -0.31612,-0.0973 -0.50712,-0.0209 -0.21106,0.0845 -0.14837,0.14716 0.15986,0.15985 0.27891,0.0115 0.43518,-0.051 0.34726,-0.13896 z m -11.83459,-7.75735 c 0,-0.9307 -0.93261,-2.10803 -2.21835,-2.80045 l -0.93764,-0.50495 -0.67096,0.63034 c -0.60866,0.57181 -0.95311,1.90556 -0.47253,1.82968 0.54567,-0.0862 0.83966,0.0799 0.99219,0.5605 0.0924,0.29104 0.34555,0.52916 0.56261,0.52916 0.21706,0 0.31524,-0.1285 0.21817,-0.28556 -0.0971,-0.15707 0.28286,-0.0433 0.84428,0.25289 1.39496,0.73584 1.68223,0.6997 1.68223,-0.21161 z m -5.53095,-2.94873 c 0.97189,-0.69205 0.96736,-1.09049 -0.0219,-1.92289 -0.77615,-0.65308 -0.80993,-0.65734 -1.88,-0.23701 -1.40864,0.55333 -1.54896,0.99368 -0.60784,1.90753 0.93443,0.90734 1.5088,0.9651 2.50973,0.25237 z m -2.98535,-26.5103 c 0.10531,-0.54678 -0.65849,-0.91522 -1.06162,-0.5121 -0.40312,0.40312 -0.0347,1.16692 0.5121,1.06162 0.25343,-0.0488 0.50072,-0.29609 0.54952,-0.54952 z m -13.57641,23.6179 c -0.0899,-0.14552 -0.0672,-0.26641 0.0505,-0.26864 0.11773,-0.002 0.0355,-0.12909 -0.18282,-0.28191 -0.31218,-0.21857 -0.27196,-0.24281 0.18845,-0.11358 0.32192,0.0904 0.82526,0.0359 1.11852,-0.12109 0.44008,-0.23552 0.5057,-0.21369 0.37574,0.12499 -0.14032,0.36567 -0.89777,0.92481 -1.25282,0.92481 -0.0737,0 -0.20766,-0.11906 -0.2976,-0.26458 z m -1.91823,-2.82106 c -0.61989,-0.25014 -0.33287,-0.61853 0.48192,-0.61853 0.44696,0 0.99125,0.1786 1.20953,0.39688 0.35278,0.35278 0.29923,0.39455 -0.48192,0.37599 -0.48334,-0.0115 -1.02762,-0.0809 -1.20953,-0.15434 z m -3.25277,-4.97092 c -0.49366,-0.49054 -0.23948,-0.69533 0.78778,-0.63472 0.70311,0.0415 1.07726,0.20111 1.15334,0.49204 0.0883,0.33781 -0.0815,0.42668 -0.78778,0.41233 -0.49521,-0.0101 -1.01421,-0.13141 -1.15334,-0.26965 z m 0.50946,-4.84188 c -0.0172,-0.10914 -0.0187,-0.28345 -0.003,-0.38735 0.0155,-0.1039 -0.14901,-0.12093 -0.36554,-0.0378 -0.27178,0.10429 -0.3937,-0.0216 -0.3937,-0.40639 0,-0.30661 0.0534,-0.55748 0.11866,-0.55748 0.19085,0 1.46884,1.23497 1.46884,1.4194 0,0.23862 -0.78719,0.20968 -0.82509,-0.0303 z m 4.88167,-1.10635 c -0.36124,-0.95701 0.11043,-2.0315 0.63977,-1.45745 0.41989,0.45535 0.41007,1.18054 -0.0237,1.75109 -0.3048,0.40089 -0.36468,0.37234 -0.61606,-0.29364 z m -3.2966,-1.40719 c -0.0977,-0.95664 -0.19116,-1.43359 -0.36363,-1.85508 -0.14112,-0.34488 -0.0892,-0.42707 0.19981,-0.31617 0.53669,0.20594 1.04177,1.39711 0.84939,2.00322 -0.17825,0.56163 -0.63398,0.67333 -0.68557,0.16803 z"
         id="path8" /></g></g></svg>
