<?xml version="1.0" encoding="UTF-8" standalone="no"?>
<!-- Created with Inkscape (http://www.inkscape.org/) -->

<svg
   version="1.1"
   id="svg1"
   width="1792"
   height="2368"
   viewBox="0 0 1792 2368"
   sodipodi:docname="silueta_traro.svg"
   inkscape:version="1.4.2 (ebf0e940d0, 2025-05-08)"
   xmlns:inkscape="http://www.inkscape.org/namespaces/inkscape"
   xmlns:sodipodi="http://sodipodi.sourceforge.net/DTD/sodipodi-0.dtd"
   xmlns="http://www.w3.org/2000/svg"
   xmlns:svg="http://www.w3.org/2000/svg">
  <defs
     id="defs1" />
  <sodipodi:namedview
     id="namedview1"
     pagecolor="#ffffff"
     bordercolor="#000000"
     borderopacity="0.25"
     inkscape:showpageshadow="2"
     inkscape:pageopacity="0.0"
     inkscape:pagecheckerboard="0"
     inkscape:deskcolor="#d1d1d1"
     inkscape:zoom="0.31756757"
     inkscape:cx="895.87234"
     inkscape:cy="1184"
     inkscape:window-width="1829"
     inkscape:window-height="961"
     inkscape:window-x="0"
     inkscape:window-y="0"
     inkscape:window-maximized="1"
     inkscape:current-layer="g1" />
  <g
     inkscape:groupmode="layer"
     inkscape:label="Image"
     id="g1">
    <path
       style="fill:#000000"
       d="m 464.96335,2289.8716 c -1.33813,-1.3382 -0.36688,-7.1752 2.33224,-14.0164 5.14671,-13.045 20.22547,-30.4291 33.38514,-38.4895 4.2576,-2.6077 8.0015,-5.5327 8.32,-6.5 0.3184,-0.9672 1.1664,-3.1086 1.8843,-4.7586 2.5391,-5.8355 2.3113,-6.8013 -1.8416,-7.8071 -2.1022,-0.5091 -6.3507,-2.4483 -9.4412,-4.3093 -3.0904,-1.861 -6.0275,-3.3836 -6.5267,-3.3836 -2.3537,0 -8.00404,3.5831 -11.16133,7.0779 -4.35721,4.8229 -10.28852,16.4434 -11.15326,21.8512 -0.79324,4.9606 -3.8179,5.6854 -5.51281,1.3209 -1.35487,-3.4888 -1.65955,-19.2182 -0.49681,-25.648 l 0.88575,-4.8981 -10.88575,0.5225 c -8.86172,0.4253 -12.0943,1.0335 -17.38574,3.2707 -11.12149,4.7022 -27.11738,6.7088 -35.32078,4.4308 -4.00601,-1.1124 -11.67922,-7.2811 -11.67922,-9.3892 0,-0.6758 -0.89632,-2.0399 -1.99182,-3.0313 -2.14672,-1.9427 -0.46939,-2.0799 -30.60944,2.5039 -8.96948,1.3641 -20.52587,10.7962 -23.83085,19.4501 -1.25566,3.2879 -2.25543,4.5482 -3.42102,4.3125 -2.25198,-0.4554 -2.09172,-10.589 0.28224,-17.847 1.99247,-6.0916 8.89401,-17.129 13.18599,-21.0879 5.51679,-5.0886 17.6456,-12.7609 25.039,-15.8388 7.46267,-3.1067 21.0711,-6.5745 31.3459,-7.9879 3.025,-0.4161 7.075,-1.6904 9,-2.8318 2.17104,-1.2874 6.91732,-2.5078 12.5,-3.2141 8.34747,-1.0563 9.3504,-0.9876 13.8329,0.9474 5.16637,2.2302 15.37186,2.8498 18.58801,1.1286 2.72707,-1.4595 14.58756,-3.173 24.07909,-3.4787 9.44514,-0.3043 24.30995,-1.4482 27.69535,-2.1313 1.2074,-0.2437 4.2199,-2.1953 6.6944,-4.337 10.8438,-9.3852 20.129,-11.5657 45.1102,-10.5932 15.5755,0.6064 17.5447,0.4866 23.5,-1.4288 3.575,-1.1498 9.2,-2.3358 12.5,-2.6355 11.4851,-1.0429 12.5667,-1.4201 17.6142,-6.1415 4.6442,-4.344 4.8858,-4.8291 4.8858,-9.8075 0,-6.5607 2.0187,-12.3744 6.3702,-18.3459 4.43,-6.0792 7.8349,-13.0327 10.5554,-21.5566 1.2137,-3.8026 3.2405,-8.9776 4.5042,-11.5 1.2636,-2.5225 2.6152,-6.3864 3.0034,-8.5864 0.8217,-4.6572 7.7811,-30.4862 13.0678,-48.5 2.0177,-6.875 4.7076,-17.45 5.9775,-23.5 1.27,-6.05 3.5122,-15.95 4.9828,-22 1.4705,-6.05 3.7602,-15.95 5.0881,-22 1.3279,-6.05 3.2639,-14.6 4.3022,-19 1.0384,-4.4 2.4263,-11.6 3.0844,-16 0.658,-4.4 1.6655,-10.025 2.2389,-12.5 0.5733,-2.475 1.3979,-6.975 1.8324,-10 0.4345,-3.025 1.7004,-10.225 2.813,-16 1.1127,-5.775 3.2442,-17.7 4.7367,-26.5 1.4926,-8.8 3.0385,-17.8 3.4355,-20 0.397,-2.2 1.465,-8.5 2.3735,-14 0.9084,-5.5 2.1061,-12.25 2.6616,-15 0.5554,-2.75 1.4593,-8.6 2.0085,-13 0.5492,-4.4 1.6517,-13.175 2.45,-19.5 2.2773,-18.0421 2.0144,-23.5184 -1.5807,-32.9333 -1.7021,-4.4572 -4.5146,-9.8717 -6.25,-12.032 -7.1219,-8.8657 -10.3638,-14.4488 -13.7731,-23.7193 -1.1763,-3.1984 -3.0447,-7.8404 -4.152,-10.3154 -3.3662,-7.5241 -6.7868,-17.1745 -8.3297,-23.5 -0.805,-3.3 -2.5485,-9.6 -3.8745,-14 -1.3261,-4.4 -3.1583,-10.925 -4.0718,-14.5 -1.6276,-6.3703 -4.4143,-16.0479 -6.6228,-23 -0.6116,-1.925 -3.1371,-7.55 -5.6123,-12.5 -2.4753,-4.95 -5.6081,-11.25 -6.9619,-14 -1.3538,-2.75 -3.0291,-5.675 -3.7229,-6.5 -1.3826,-1.644 -8.3678,-16.804 -15.0042,-32.5637 -2.3308,-5.5351 -5.4961,-12.5101 -7.0341,-15.5 -9.8005,-19.0534 -15.8336,-31.7289 -19.3798,-40.7169 -2.231,-5.6543 -5.6448,-12.9909 -7.5863,-16.3035 -1.9415,-3.3127 -3.53,-6.174 -3.53,-6.3586 0,-0.1845 -1.7254,-3.2882 -3.8343,-6.8971 -2.7644,-4.7305 -11.3896,-14.3193 -30.908,-34.3609 -14.8904,-15.2896 -30.7528,-32.2993 -35.2498,-37.7993 -4.4969,-5.5 -11.8508,-13.8426 -16.342,-18.539 -26.44966,-27.6586 -38.20312,-40.405 -44.22484,-47.961 -3.72572,-4.675 -8.60785,-10.75 -10.84919,-13.5 -4.74781,-5.8253 -20.12382,-23.0853 -23.162,-26 -1.1466,-1.1 -4.82741,-5.375 -8.17956,-9.5 -3.35216,-4.125 -9.30914,-11.1 -13.23774,-15.5 -3.9286,-4.4 -7.85154,-9.35 -8.71764,-11 -0.86611,-1.65 -5.3722,-7.5 -10.01356,-13 -8.84556,-10.482 -17.10686,-23.0018 -22.63132,-34.2974 -1.80297,-3.6864 -7.6133,-12.7776 -12.91186,-20.2026 -5.29855,-7.425 -11.75953,-17.1 -14.35773,-21.5 -2.5982,-4.4 -7.49557,-12.275 -10.88304,-17.5 -3.38746,-5.225 -8.08801,-12.875 -10.44565,-17 -2.35765,-4.125 -5.29312,-9.075 -6.52327,-11 -13.15512,-20.5857 -28.84495,-50.8309 -35.35051,-68.145 -2.13993,-5.6952 -7.98899,-20.705 -12.99792,-33.355 -14.50617,-36.63515 -20.90848,-56.31165 -23.59001,-72.49995 -0.8658,-5.2268 -3.54391,-32.57865 -4.74879,-48.49997 -1.44911,-19.14843 -1.84781,-81.88598 -0.74038,-116.5 0.5426,-16.95946 0.55055,-43.48247 0.0196,-65.5 -0.70497,-29.23536 -0.60766,-39.6232 0.46371,-49.5 0.74576,-6.875 2.05813,-22.51933 2.91639,-34.76517 0.85826,-12.24584 1.99674,-23.41263 2.52996,-24.8151 0.53321,-1.40246 0.96948,-6.03064 0.96948,-10.28483 0,-4.2542 0.40876,-8.1624 0.90835,-8.6849 1.50545,-1.57449 1.81034,-18.70747 0.34165,-19.19864 -0.78028,-0.26094 -1.25,0.53055 -1.25,2.10629 0,1.38837 -0.4934,2.82925 -1.09644,3.20195 -1.26288,0.7805 -0.46765,-11.73132 1.27941,-20.12949 0.86894,-4.17705 0.77171,-5.61707 -0.5521,-8.17704 -1.95529,-3.78112 -1.04208,-9.96045 2.83242,-19.16585 1.39519,-3.31483 2.53671,-6.53555 2.53671,-7.15715 0,-0.62161 1.73201,-4.79767 3.8489,-9.28014 5.81724,-12.31782 5.85831,-12.88418 1.12729,-15.54316 -4.76902,-2.68034 -5.00925,-4.58305 -1.54485,-12.23593 1.33723,-2.95397 2.72678,-7.17084 3.08789,-9.37084 0.3611,-2.2 1.27325,-5.3785 2.02699,-7.06332 0.75374,-1.68483 1.65072,-5.05983 1.99328,-7.5 0.34257,-2.44018 1.10291,-5.70314 1.68965,-7.25103 0.88065,-2.32328 0.69052,-3.48385 -1.08966,-6.65126 l -2.15646,-3.8369 2.64549,-10.34875 c 1.45502,-5.69181 2.71129,-13.49874 2.79171,-17.34874 0.12384,-5.92819 -0.20337,-7.43282 -2.137,-9.82673 -1.25578,-1.5547 -2.28323,-4.11564 -2.28323,-5.69098 0,-1.57534 -0.45,-3.14238 -1,-3.48229 -0.55,-0.33992 -1,-2.37565 -1,-4.52384 0,-2.78727 -0.53377,-4.19146 -1.86389,-4.90332 -1.51714,-0.81195 -1.8146,-1.98125 -1.5989,-6.28519 0.14575,-2.90821 0.56705,-6.0345 0.93622,-6.94731 0.46346,-1.14596 0.0448,-1.85847 -1.35254,-2.30197 -1.38796,-0.44053 -2.29216,-1.96118 -2.87812,-4.84035 -0.86095,-4.23032 -1.73921,-4.74232 -5.49277,-3.20212 -1.53402,0.62945 -1.75,0.078 -1.75,-4.46837 v -5.18645 l -3,0.65892 c -2.77958,0.61049 -3.00113,0.45101 -3.01531,-2.17055 -0.0211,-3.89901 -0.99601,-5.09268 -4.48319,-5.48922 -2.43942,-0.2774 -3.08584,-0.8943 -3.50009,-3.34023 -0.37521,-2.21548 -1.73518,-3.78453 -5.20045,-6 -2.5808,-1.65 -4.7168,-3.57663 -4.74666,-4.28139 -0.0533,-1.25795 -1.57411,-2.17834 -4.2478,-2.57075 -0.74232,-0.10895 -2.97736,-1.49685 -4.96676,-3.08423 -3.77403,-3.01137 -13.82601,-7.15119 -19.83974,-8.17082 -1.925,-0.32638 -5.75,-1.44806 -8.5,-2.49262 -6.3111,-2.39719 -10.67125,-2.38219 -29,0.0998 -9.74424,1.31952 -20.25245,1.99315 -30.88469,1.97989 -14.527493,-0.0181 -20.347223,-0.48405 -31.683863,-2.53659 -5.32308,-0.96376 -6.89209,2.08213 -8.21147,15.94073 -1.4082,14.79166 -3.26132,16.24853 -8.51416,6.69361 -4.95121,-9.00625 -7.61873,-24.95617 -6.78635,-40.57764 0.8213,-15.41361 1.47231,-21.51452 2.56096,-24 0.4818,-1.1 1.41184,-4.475 2.06673,-7.5 0.6549,-3.025 1.7635,-6.85 2.46356,-8.5 7.42035,-17.48952 14.21825,-27.24297 28.58532,-41.01351 10.34908,-9.91938 18.108803,-15.71784 30.753523,-22.98063 4.59226,-2.63767 10.89244,-7.15001 14.0004,-10.02744 4.68437,-4.3369 27.86363,-19.47842 29.81837,-19.47842 1.1071,0 13.85888,-9.31999 17.58167,-12.85004 2.0625,-1.95572 3.75,-4.07382 3.75,-4.70689 0,-1.13805 1.32879,-2.62049 8.46436,-9.44307 2.01331,-1.925 4.50927,-4.8656 5.54657,-6.53466 1.7827,-2.86843 17.58056,-14.46534 19.70538,-14.46534 0.54535,0 5.37368,-2.04779 10.72962,-4.55063 5.35594,-2.50285 13.63417,-5.461625 18.39607,-6.575065 4.7619,-1.11344 12.258,-3.09101 16.658,-4.39459 25.49476,-7.55333 34.56306,-9.26654 64,-12.0911 20.24877,-1.94293 42.9354,-2.85503 45.23421,-1.81861 0.97118,0.43786 7.39079,1.58024 14.26579,2.53863 6.875,0.95838 19.925,3.31052 29,5.22698 9.075,1.91646 18.075,3.80151 20,4.189 14.47116,2.91298 36.05281,10.856395 53.49995,19.691365 6.6,3.34214 14.25,7.18499 17,8.53967 5.2789,2.60042 18.6163,10.67283 26.9915,16.33649 2.7452,1.85648 9.7211,7.88271 15.5019,13.39163 10.6598,10.15855 12.2435,11.44155 38.0066,30.79136 16.4338,12.34277 20.0631,16.00433 33.9236,34.22487 5.4391,7.15 12.907,15.66128 16.5953,18.91395 6.4695,5.70531 12.4811,12.85663 12.4811,14.84737 0,0.55698 -1.472,0.68511 -3.5,0.30465 -1.925,-0.36113 -3.4783,-0.29871 -3.4519,0.13871 0.1066,1.76538 3.7865,7.56614 9.8084,15.46143 6.7127,8.80103 13.0299,20.28082 11.824,21.48678 -0.3944,0.39444 -2.5006,-1.02437 -4.6805,-3.15289 -4.2374,-4.13781 -6.0587,-4.11907 -4.1624,0.0428 0.6394,1.40321 1.1624,2.98011 1.1624,3.50423 0,1.26602 -3.7124,1.2272 -4.5,-0.0471 -1.3633,-2.20595 -3.5,-0.96471 -3.5,2.03324 0,3.09243 2.688,9.12992 8.4442,18.96676 9.94,16.98651 16.5206,29.92819 15.9604,31.38823 -0.9022,2.35105 -1.6202,2.01559 -4.3907,-2.05152 -3.4323,-5.03869 -14.3639,-16.33671 -15.8069,-16.33671 -0.6508,0 -1.4773,1.83855 -1.8366,4.08568 -0.3594,2.24713 -1.22,4.30313 -1.9126,4.56889 -1.9727,0.75701 -0.7194,15.5593 2.0613,24.34543 1.3055,4.125 4.1441,12.9 6.3079,19.5 6.1898,18.87989 7.2925,23.02515 6.6031,24.82176 -0.7755,2.02091 -2.7719,2.17619 -4.3004,0.33448 -0.7611,-0.91707 -2.3083,-1.1481 -4.8724,-0.72759 l -3.7573,0.61617 0.2249,5.47759 c 0.6462,15.74532 2.2998,32.15075 3.7777,37.47759 0.9156,3.3 1.6523,6.82345 1.6372,7.8299 -0.038,2.52616 -2.0094,4.6701 -4.2944,4.6701 -2.4777,0 -3.8024,3.66308 -2.7065,7.48417 0.4736,1.65144 0.8611,6.21996 0.8611,10.15226 0,14.29985 4.449,28.41604 11.898,37.75107 1.7061,2.13813 3.104,4.61313 3.1063,5.5 0.01,3.00974 5.813,10.38501 14.1768,18.01171 4.5845,4.18043 12.6067,11.7588 17.8272,16.84081 5.2205,5.08201 9.877,9.24451 10.3478,9.25 1.6684,0.0194 12.6072,9.01513 23.6439,19.4438 7.0288,6.64154 15.4606,12.94279 18.6907,13.968 1.1102,0.35235 3.3214,1.96858 4.9139,3.59162 1.5925,1.62305 3.3609,2.9635 3.9298,2.97878 0.569,0.0153 1.8004,1.26528 2.7365,2.77778 2.7241,4.40124 5.8763,7.48868 11.7437,11.50251 3.017,2.06389 6.83545,5.00486 8.48545,6.5355 1.65,1.53064 6.375,5.44392 10.5,8.69618 4.125,3.25226 9.3,7.58981 11.5,9.63901 3.8263,3.56398 15.6612,12.30065 22.0007,16.24115 1.6496,1.02539 5.4743,4.46397 8.4993,7.64129 3.7887,3.97945 7.8337,6.91518 13,9.43509 4.125,2.01197 9.975,5.42763 13,7.59035 5.3935,3.85602 11.9625,7.9016 26.0589,16.04851 3.8823,2.24378 9.4007,5.98716 12.2632,8.31864 2.8624,2.33147 8.3484,5.96589 12.1912,8.07648 7.1684,3.93721 9.7823,5.74202 26.9151,18.58363 16.2215,12.1586 20.2527,15.32026 26.3543,20.66955 5.5782,4.89035 16.7943,16.0962 19.444,19.42626 0.7003,0.88016 8.0233,7.0113 16.27334,13.62473 19.7694,15.84773 41.8807,38.70402 61.2533,63.31727 2.3393,2.97211 7.837,8.96347 12.217,13.31412 4.38,4.35065 10.3411,11.24686 13.2467,15.3249 2.9057,4.07804 10.8333,14.46841 17.617,23.08972 6.7836,8.62131 15.3336,20.31063 19,25.97626 3.6663,5.6657 10.2775,15.3406 14.6916,21.5 9.1303,12.7405 16.4952,23.5296 28.8057,42.1988 4.7148,7.15 10.3671,15.47495 12.5608,18.49995 2.1936,3.025 5.2034,7.525 6.6882,10 1.4849,2.475 5.7348,8.775 9.4443,14 3.7095,5.225 8.1002,12.2 9.7573,15.5 1.657,3.3 5.8305,10.275 9.2744,15.5 3.4439,5.225 7.6016,11.975 9.2392,15 1.6376,3.025 4.1519,7.075 5.5873,9 4.5756,6.136 11.1172,15.8885 11.1172,16.5738 0,0.3642 6.1705,13.0491 13.7121,28.1888 l 13.712,27.5266 9.8002,9.9382 c 5.3901,5.4661 12.9076,14.0635 16.7055,19.1054 3.7979,5.042 8.7571,11.1725 11.0204,13.6234 2.2634,2.4509 4.386,5.6009 4.7169,7 0.3308,1.3991 1.1468,3.2188 1.8132,4.0438 0.6664,0.825 2.244,3.6849 3.5059,6.3553 3.5406,7.4931 22.1223,36.6341 28.2834,44.3559 3.0312,3.7991 7.08,9.3557 8.9974,12.3481 1.9174,2.9924 5.2546,7.5771 7.416,10.1881 2.1614,2.6111 9.5295,13.32 16.3735,23.7976 6.8439,10.4776 17.4243,26.5943 23.512,35.8149 19.2219,29.1143 31.3737,56.0016 31.456,69.6002 0.033,5.3917 1.597,11.8948 4.0053,16.6497 1.0836,2.1396 2.8392,5.6043 3.9013,7.6993 1.0621,2.095 3.1183,8.0575 4.5693,13.25 1.5556,5.5666 5.0256,13.9551 8.4558,20.4409 3.1996,6.05 7.5007,16.175 9.5579,22.5 3.1327,9.6315 3.8047,13.2342 4.1358,22.1727 l 0.3953,10.6726 8.6883,17.8274 c 9.9775,20.4724 17.5239,33.3059 34.886,59.3273 15.6982,23.5276 18.7997,27.8591 30.4316,42.5 5.2435,6.6 10.3812,13.35 11.4171,15 1.0359,1.65 5.1778,6.6 9.2042,11 8.1394,8.8946 19.1026,24.1225 25.4825,35.3953 4.8638,8.594 13.7996,18.5254 19.8888,22.1047 6.0524,3.5577 19.7469,17.3388 25.5344,25.6959 2.7071,3.909 10.4344,13.4237 17.1719,21.1438 6.7375,7.7201 12.25,14.299 12.25,14.6199 0,1.1964 5.5439,9.2237 10.0421,14.5404 2.5593,3.025 5.4083,6.9625 6.3313,8.75 0.9229,1.7875 2.0194,3.25 2.4367,3.25 0.4173,0 1.513,1.2769 2.4349,2.8376 0.9219,1.5607 4.7315,6.7279 8.4656,11.4826 3.7342,4.7548 9.2644,12.0967 12.2894,16.3154 3.025,4.2187 7.8619,10.5829 10.7485,14.1427 3.2121,3.9611 5.8351,8.4476 6.7604,11.5635 0.8316,2.8002 2.5844,6.7119 3.8952,8.6926 7.1692,10.8335 11.5959,23.8807 11.5959,34.1779 0,7.468 -2.9535,20.8214 -5.1194,23.1464 -1.8659,2.0027 -1.8671,2.0026 -4.1676,-0.1586 l -2.3012,-2.1619 -1.7936,2.0948 c -1.5363,1.7943 -2.6056,2.0276 -7.4558,1.6267 -6.9174,-0.5718 -16.7077,-4.2141 -19.8952,-7.4017 -1.2969,-1.2969 -2.5115,-2.358 -2.6991,-2.358 -1.5296,0 -3.2382,26.6141 -2.0986,32.689 0.3457,1.8426 4.4956,8.3197 9.8147,15.3187 16.0754,21.152 18.3412,24.6687 23.9787,37.2163 8.4631,18.8367 8.959,20.6658 7.2047,26.5734 -1.3318,4.4848 -1.8775,5.0875 -6.0477,6.6801 -3.9521,1.5093 -5.4336,1.5922 -10.7518,0.6012 -3.3924,-0.6321 -7.7431,-1.7417 -9.6681,-2.4658 -1.925,-0.724 -5.8727,-2.0803 -8.7728,-3.0139 -2.9,-0.9336 -9.2,-4.0696 -14,-6.969 -4.7999,-2.8994 -12.1704,-7.1097 -16.3788,-9.3563 l -7.6516,-4.0847 -0.4794,3.6555 c -0.5002,3.8137 1.2831,11.3589 3.9894,16.8799 2.2241,4.5371 0.6226,6.2728 -5.2771,5.7198 -4.9173,-0.461 -11.6001,-3.5582 -21.4297,-9.9318 -3.575,-2.3181 -9.65,-5.2292 -13.5,-6.4692 -6.8552,-2.2079 -28.9664,-14.444 -37.1138,-20.5384 -5.2059,-3.8942 -9.5186,-8.0945 -62.0885,-60.4704 -23.7613,-23.6736 -44.4442,-44.7285 -45.962,-46.7886 -1.5178,-2.0602 -5.9947,-7.1208 -9.9486,-11.2458 -11.1206,-11.6017 -22.4681,-24.2389 -24.2444,-27 -1.4609,-2.2709 -12.5111,-16.0713 -18.8168,-23.5 -2.6642,-3.1386 -16.3097,-18.0111 -22.3259,-24.3332 -3.634,-3.8188 -17.8419,-19.5744 -21.7192,-24.085 -3.0032,-3.4938 -34.1835,-37.0318 -41.7268,-44.882 -7.1906,-7.4831 -23.4203,-17.2992 -28.351,-17.1473 -1.3137,0.04 -1.1315,0.4404 0.797,1.75 4.1741,2.8343 11.7427,11.1354 13.4683,14.7718 1.9912,4.1962 3.141,12.9311 1.8104,13.7535 -1.7513,1.0824 -19.6797,-6.7682 -29.2426,-12.805 -1.9637,-1.2397 -8.0627,-4.5434 -13.5533,-7.3416 -9.7352,-4.9615 -11.3645,-6.0338 -19.8761,-13.0816 -2.2586,-1.8702 -8.7182,-5.5605 -14.3546,-8.2006 -11.3716,-5.3264 -15.9717,-8.2777 -27.3954,-17.5761 -4.2724,-3.4776 -8.047,-6.3229 -8.3879,-6.3229 -2.4883,0 -16.1756,-9.6423 -23.3829,-16.4727 -4.8068,-4.5554 -9.8301,-8.6102 -11.1628,-9.0105 -1.3327,-0.4003 -4.8236,-2.3564 -7.7577,-4.3468 -5.1397,-3.4868 -5.3757,-3.5468 -6.4612,-1.6445 -0.6196,1.086 -1.2228,2.5783 -1.3403,3.3162 -0.4604,2.8898 -1.7148,2.4867 -5.3529,-1.72 -3.8145,-4.4107 -6.2874,-4.8948 -5.2775,-1.0331 0.5269,2.0148 0.3678,1.9964 -4.6314,-0.5369 -5.5813,-2.8282 -7.0934,-2.6673 -7.1174,0.7573 -0.028,3.9734 -1.492,5.2365 -4.488,3.8715 -3.0218,-1.3769 -4.6706,-0.7974 -3.846,1.3516 1.165,3.0358 -3.7639,1.4062 -8.4145,-2.7821 -12.2519,-11.0339 -16.4223,-15.0359 -26.562,-25.4888 -5.9962,-6.1814 -12.4796,-12.2139 -14.4077,-13.4055 l -3.5056,-2.1666 -3.2418,3.8613 c -3.2091,3.8223 -3.268,3.8442 -5.8356,2.1618 -1.4265,-0.9347 -3.5139,-2.6872 -4.6386,-3.8944 l -2.0449,-2.1949 v 2.1886 c 0,3.4776 -1.4778,2.593 -5.5527,-3.3235 -2.7129,-3.9391 -4.2747,-5.3601 -5.4731,-4.9798 -1.1718,0.3719 -5.2665,-3.0179 -13.5948,-11.2547 l -11.9179,-11.787 -8.4807,0.2439 c -4.6644,0.1341 -8.6717,0.2542 -8.9051,0.2668 -0.2333,0.013 0.5688,1.0799 1.7826,2.372 1.8327,1.9508 2.0361,2.7986 1.1991,5 -0.6504,1.7107 -1.7555,2.6508 -3.1159,2.6508 -1.1595,0 -1.9437,0.3375 -1.7427,0.75 0.201,0.4125 1.0009,2.0209 1.7776,3.5741 1.1149,2.2296 1.1608,3.2267 0.2179,4.7365 -0.6568,1.0517 -1.1943,2.7577 -1.1943,3.791 0,1.0333 -0.9,3.0229 -2,4.4213 -2.8929,3.6778 -2.6708,10.2756 0.5033,14.9467 1.3768,2.0261 2.6143,4.6918 2.75,5.9237 0.2088,1.8957 -0.4064,2.3732 -4.0033,3.1072 -4.5349,0.9254 -5.1471,1.7601 -2.75,3.7495 2.722,2.259 1.6681,3.2039 -2.75,2.4657 l -4.25004,-0.71 2,2.3374 c 1.10004,1.2856 3.23554,3.7031 4.74544,5.3722 4.0657,4.4942 3.6769,6.5347 -1.2454,6.5347 -5.10804,0 -5.17424,1.6107 -0.25,6.0893 l 3.75,3.4107 -2.7005,0.3117 c -1.4853,0.1714 -3.6613,-0.2026 -4.83564,-0.831 -4.2201,-2.2585 -3.3439,0.2593 1.79674,5.1631 5.8953,5.6237 6.5983,7.4141 2.5081,6.3875 -5.22784,-1.3121 -4.73334,-2.0292 -5.09764,7.393 l -0.1711,4.4244 -2.3144,-2.1744 c -4.3656,-4.1012 -5.3029,-1.4719 -1.0557,2.9613 1.6369,1.7085 2.3948,3.3579 2.0071,4.3681 -0.3425,0.8927 -1.0741,1.3442 -1.6256,1.0033 -0.5516,-0.3409 -1.5319,0.5414 -2.1785,1.9606 -0.6467,1.4192 -2.2236,2.8434 -3.5043,3.1648 -1.7198,0.4316 -2.3286,1.2913 -2.3286,3.288 0,1.8264 -0.945,3.4022 -2.9129,4.8572 -1.6022,1.1845 -3.2129,3.5191 -3.5795,5.188 -0.8579,3.9059 -3.3456,3.9237 -4.8137,0.034 -1.643,-4.3528 -3.3571,-3.6799 -3.9465,1.5494 -0.6465,5.7352 -1.4501,6.5296 -3.7437,3.7006 -2.4162,-2.9802 -3.2536,-2.8416 -4.868,0.8057 -1.1748,2.6541 -1.7246,2.9739 -4.1841,2.4337 -2.6212,-0.5757 -2.9217,-0.3211 -4.045,3.4282 -1.4005,4.6744 -3.3817,6.7589 -6.8826,7.2413 -2.0684,0.285 -2.5998,1.07 -3.2283,4.7694 -1.3149,7.7407 -2.4166,7.743 -8.0925,0.017 l -1.7968,-2.4457 0.4839,3.75 c 0.3541,2.7438 0.1165,3.75 -0.8857,3.75 -0.7534,0 -1.6417,-0.7875 -1.974,-1.75 -0.3324,-0.9625 -2.1515,-3.4995 -4.0424,-5.6377 l -3.4382,-3.8877 -3.6385,2.8877 c -6.261,4.9692 -6.1555,4.9293 -8.1817,3.0957 -2.5965,-2.3498 -4.0975,-2.1458 -6.4779,0.8803 l -2.0359,2.5883 -2.4189,-2.8383 c -1.6694,-1.9588 -2.5855,-2.4366 -2.9568,-1.5418 -0.2958,0.7131 -1.8522,2.7355 -3.4586,4.4943 -2.778,3.0414 -6.0979,10.3647 -7.4433,16.4185 -0.3411,1.5349 -2.5648,10.6657 -4.9416,20.2907 -2.3767,9.625 -5.0728,21.775 -5.9912,27 -0.9184,5.225 -2.5116,13.325 -3.5405,18 -11.3368,51.5119 -16.4117,76.864 -19.0166,95 -1.3201,9.1901 -5.7269,35.0128 -7.5943,44.5 -13.5424,68.8019 -17.9818,113.3978 -15.9773,160.5 0.5904,13.8748 1.703,23.6802 3.0731,27.0858 0.3509,0.8721 2.2056,2.3333 4.1216,3.247 3.2996,1.5734 7.1283,2.4771 25.9284,6.12 4.4,0.8526 10.925,2.2359 14.5,3.074 3.575,0.8382 8.75,1.911 11.5,2.384 13.2475,2.2785 22.4894,4.3244 27.5,6.0877 3.025,1.0645 8.9627,2.3923 13.1948,2.9507 14.5995,1.9264 25.7339,7.2139 35.8302,17.0151 9.6231,9.3419 12.4691,16.1626 12.414,29.7516 -0.021,5.0687 -0.2412,9.4197 -0.4902,9.6687 -0.2491,0.2491 -1.5821,0.7363 -2.9624,1.0827 -2.2127,0.5554 -2.8629,0.023 -5.4979,-4.5036 -3.724,-6.3969 -11.6185,-13.2467 -19.0597,-16.5376 -4.5491,-2.0118 -6.9797,-2.4535 -12.2123,-2.2189 l -6.5329,0.2928 -1.7545,5.1725 c -3.4879,10.2825 -9.5294,15.079 -21.7942,17.3031 -10.9609,1.9876 -15.78,0.543 -33.0887,-9.919 -8.2208,-4.9689 -8.6098,-5.0921 -14.1123,-4.4696 -6.9803,0.7897 -18.1696,-1.0102 -25.961,-4.1762 -7.4104,-3.011 -15.9397,-4.0813 -19.796,-2.484 -3.0957,1.2823 -6.2528,5.1667 -11.6554,14.3405 -4.6707,7.9312 -11.5419,15.7538 -18.323,20.8601 -3.1342,2.36 -8.84855,7.5108 -12.69855,11.4461 -9.1951,9.3989 -11.9489,10.7518 -22,10.8082 -8.2665,0.046 -9.4586,0.588 -9.4846,4.3093 -0.024,3.4377 -2.105,3.9062 -4.5784,1.0306 -3.8262,-4.4482 -7.6921,-20.1724 -7.848,-31.9214 -0.049,-3.685 -0.539,-7.1074 -1.089,-7.6053 -0.5993,-0.5427 -6.0079,-0.3741 -13.5,0.421 -15.1034,1.6027 -19.3101,2.4585 -28.8392,5.8669 -13.4242,4.8016 -22.1783,6.5522 -35.6608,7.1311 -8.6091,0.3696 -15.0265,1.1989 -19,2.4553 -14.4616,4.5727 -33.0532,6.2032 -43.5,3.815 -10.2846,-2.3511 -10.3102,-2.3475 -21.1748,2.9307 -12.5949,6.1187 -21.7614,7.8727 -32.325,6.1851 -3.7489,-0.5988 -8.0961,-2.0002 -9.6605,-3.1141 -3.6859,-2.6246 -7.405,-7.6585 -8.2274,-11.1359 -0.7595,-3.2114 -2.4629,-3.4315 -10.3362,-1.3355 -16.7561,4.4609 -30.02296,13.1925 -35.59227,23.4252 -2.57534,4.7317 -4.79793,6.7128 -6.08601,5.4248 z m 281.94968,-151.3412 c 0.366,-0.5923 1.0245,-3.9718 1.4633,-7.5102 0.4388,-3.5383 1.7999,-8.3413 3.0245,-10.6732 3.4164,-6.5053 9.6003,-26.2863 11.5059,-36.805 0.9401,-5.1892 2.0748,-9.8971 2.5216,-10.4621 0.4468,-0.5649 1.5005,-5.9649 2.3417,-12 2.7461,-19.7018 4.7766,-31.6581 9.166,-53.9728 5.19443,-26.4072 8.71683,-48.19 9.94483,-61.5 0.3299,-3.575 1.225,-10.1 1.9892,-14.5 0.7642,-4.4 2.545,-18.35 3.9573,-31 1.4123,-12.65 3.2084,-26.6 3.9913,-31 0.783,-4.4 1.931,-12.95 2.5512,-19 0.6202,-6.05 1.5228,-13.925 2.0057,-17.5 0.483,-3.575 1.1481,-10.325 1.4779,-15 1.0112,-14.3346 1.5609,-20.177 2.681,-28.5 0.5922,-4.4 1.2817,-13.7078 1.5321,-20.6841 0.4699,-13.0882 -0.06,-15.7298 -4.2736,-21.311 -1.5826,-2.0961 -1.6302,-2.0701 -4.3092,2.3588 -1.5073,2.4919 -4.5089,-0.4057 -7.0201,-6.7769 -2.9387,-7.4558 -4.7945,-9.342 -6.4341,-6.5395 -1.3272,2.2684 -7.22383,23.0754 -8.20513,28.9527 -0.3673,2.2 -1.3312,6.475 -2.1419,9.5 -2.236,8.3425 -4.9178,18.4661 -7.69,29.0295 -1.3755,5.2412 -3.1446,11.5412 -3.9312,14 -0.7867,2.4588 -1.978,7.1705 -2.6474,10.4705 -1.6371,8.0714 -9.7745,42.2427 -10.9541,46 -0.518,1.65 -1.4642,5.7 -2.1026,9 -0.6384,3.3 -1.7954,8.25 -2.5712,11 -1.5062,5.3396 -4.0672,17.7988 -10.7913,52.5 -1.4388,7.425 -3.096,15.975 -3.6827,19 -0.5867,3.025 -1.4896,6.882 -2.0066,8.571 -0.5169,1.6891 -0.9399,4.0978 -0.9399,5.3526 0,1.2549 -1.3048,8.873 -2.8996,16.929 -1.5949,8.0561 -3.1614,16.8974 -3.4812,19.6474 -0.3198,2.75 -1.2742,8.6 -2.121,13 -3.6458,18.9452 -5.0082,34.3791 -4.9873,56.5 0.016,17.08 1.7415,25.0525 7.1781,33.1678 4.0854,6.0984 12.7804,14.7247 19.2277,19.0756 2.9383,1.983 5.6534,2.2613 6.6308,0.6799 z m 720.11487,-621.1733 c -0.2774,-0.6875 -0.5044,-0.125 -0.5044,1.25 0,1.375 0.227,1.9375 0.5044,1.25 0.2774,-0.6875 0.2774,-1.8125 0,-2.5 z M 228.36558,588.16619 c 0,-0.79254 0.40803,-1.69316 0.90674,-2.00138 0.49871,-0.30822 0.67122,0.34023 0.38337,1.44099 -0.61061,2.33498 -1.29011,2.63014 -1.29011,0.56039 z"
       id="path1" />
  </g>
</svg>
