<?xml version="1.0" encoding="UTF-8" standalone="no"?>
<!-- Created with Inkscape (http://www.inkscape.org/) -->

<svg
   version="1.1"
   id="svg1"
   width="2368"
   height="1792"
   viewBox="0 0 2368 1792"
   sodipodi:docname="silueta_pudu.svg"
   inkscape:version="1.4.2 (ebf0e940d0, 2025-05-08)"
   xmlns:inkscape="http://www.inkscape.org/namespaces/inkscape"
   xmlns:sodipodi="http://sodipodi.sourceforge.net/DTD/sodipodi-0.dtd"
   xmlns="http://www.w3.org/2000/svg"
   xmlns:svg="http://www.w3.org/2000/svg">
  <defs
     id="defs1" />
  <sodipodi:namedview
     id="namedview1"
     pagecolor="#ffffff"
     bordercolor="#000000"
     borderopacity="0.25"
     inkscape:showpageshadow="2"
     inkscape:pageopacity="0.0"
     inkscape:pagecheckerboard="0"
     inkscape:deskcolor="#d1d1d1"
     inkscape:zoom="0.34079392"
     inkscape:cx="1184"
     inkscape:cy="894.96902"
     inkscape:window-width="1829"
     inkscape:window-height="961"
     inkscape:window-x="0"
     inkscape:window-y="0"
     inkscape:window-maximized="1"
     inkscape:current-layer="g1" />
  <g
     inkscape:groupmode="layer"
     inkscape:label="Image"
     id="g1">
    <path
       style="fill:#000000"
       d="m 210.1615,1759.6093 c -22.52648,-3.7015 -33.74647,-7.9387 -42.8602,-16.1862 -6.32641,-5.725 -10.47817,-11.7045 -12.16956,-17.5268 -0.53274,-1.8339 -2.0448,-9.2371 -3.36013,-16.4517 -3.05432,-16.7529 -2.25711,-15.187 -19.54067,-38.3826 -3.48344,-4.675 -7.72379,-11.425 -9.423,-15 l -3.08946,-6.5 -0.72168,-49.5 c -0.39692,-27.225 -1.24836,-68.625 -1.89208,-92 -0.64372,-23.375 -1.51084,-66.575 -1.92693,-96 -0.62303,-44.0589 -1.13117,-56.9068 -2.87948,-72.8052 -1.16762,-10.6178 -2.53466,-21.1928 -3.03786,-23.5 -1.55141,-7.1131 -3.182,-33.0701 -3.17575,-50.5541 0.006,-17.3443 0.93393,-24.9717 3.68427,-30.2903 2.59037,-5.0092 13.66297,-15.2907 34.5392,-32.0715 30.09993,-24.195 43.22035,-39.0965 55.71554,-63.2789 2.27351,-4.4 5.91589,-10.1557 8.09419,-12.7904 6.3544,-7.6859 8.00467,-10.9915 10.68045,-21.3938 3.45301,-13.424 3.02476,-20.1525 -1.96081,-30.8078 -2.05668,-4.3956 -6.18445,-11.1842 -9.17282,-15.0858 -2.98837,-3.9016 -6.63828,-9.7552 -8.11091,-13.008 -1.47263,-3.2528 -5.53302,-10.488 -9.0231,-16.0782 -3.49007,-5.5902 -7.64095,-13.0152 -9.22418,-16.5 -1.58323,-3.4848 -5.06927,-9.0835 -7.74675,-12.4415 -5.04368,-6.32562 -14.0231,-18.24252 -23.13078,-30.69762 -6.70703,-9.1722 -9.99236,-11.9536 -18.14514,-15.3618 -7.5637,-3.162 -17.9275,-9.1217 -24.83444,-14.2811 -6.50275,-4.8574 -14.085743,-19.8818 -17.732823,-35.1346 -1.42041,-5.9404 -3.66338,-13.2446 -4.98437,-16.2316 -1.320988,-2.987 -2.728646,-7.1762 -3.128127,-9.3094 -0.39948,-2.1331 -1.319616,-5.2999 -2.044745,-7.0372 -2.826032,-6.7711 -3.547054,-13.9167 -4.373273,-43.3412 -0.471031,-16.775 -1.600704,-37.925 -2.510385,-47 -2.32134,-23.1577 -1.556613,-37.1015 3.077805,-56.1196 4.750936,-19.4963 13.863325,-38.6209 23.766705,-49.8804 18.433293,-20.9574 20.885723,-24.1474 25.095603,-32.6437 3.68592,-7.4388 5.88377,-10.3128 13.73204,-17.9563 16.14762,-15.7265 34.68534,-31.0827 61.32205,-50.7978 10.73746,-7.9474 28.46037,-22.1208 52.02172,-41.6031 13.33944,-11.02999 18.46459,-14.53761 31.47271,-21.53969 6.85999,-3.69264 16.08499,-8.96684 20.5,-11.72045 4.41501,-2.75361 15.00229,-8.70829 23.52729,-13.23261 8.525,-4.52433 23.15,-12.95354 32.5,-18.73159 20.62301,-12.74446 30.42705,-18.22275 51.45923,-28.75433 18.65372,-9.34059 26.84433,-12.71123 40.04077,-16.47776 5.225,-1.49132 14.96764,-4.93318 21.65032,-7.64857 21.54615,-8.7549 22.61359,-9.022 49.34968,-12.34862 24.22195,-3.01379 38.44016,-5.20364 46,-7.0848 8.78934,-2.1871 42.37276,-6.66884 56,-7.47325 6.875,-0.40583 16.325,-1.2335 21,-1.83927 20.29051,-2.62915 28.88223,-3.29962 53.45453,-4.17139 73.8399,-2.61967 178.63935,-0.057 205.04547,5.01398 17.69119,3.39738 21.59866,3.91482 45.5,6.02519 27.53085,2.43084 61.34438,6.62866 63.78918,7.91917 2.4181,1.27641 18.6852,3.86348 32.0005,5.08925 6.2094,0.57161 18.8094,2.40671 28,4.07799 9.1907,1.67129 32.4698,5.00797 51.7315,7.41486 19.2616,2.40689 39.0616,5.2589 44,6.33779 9.0224,1.97115 30.7021,5.11626 65.9788,9.57163 10.45,1.31982 28,3.98224 39,5.9165 35.5184,6.24561 85.7195,13.64544 110,16.21442 22.6725,2.39883 72.617,2.46777 84.3605,0.11644 4.5982,-0.92068 12.2617,-1.67397 17.0298,-1.67397 22.4218,0 48.3649,-5.37832 85.0764,-17.63738 34.3768,-11.47944 36.2788,-12.51062 56.0219,-30.37253 5.7813,-5.23044 13.6614,-12.02645 17.5114,-15.10222 13.0144,-10.39726 25.9351,-22.50597 41.5,-38.89198 8.525,-8.97474 21.6408,-22.4328 29.1462,-29.9068 7.5054,-7.474 15.3341,-16.25847 17.3971,-19.52104 5.104,-8.07182 10.1409,-13.3578 22.141,-23.23592 16.3799,-13.48349 17.6685,-17.5306 9.2165,-28.94545 -9.3574,-12.63757 -13.2758,-23.0272 -18.9214,-50.16961 -1.5692,-7.54439 -3.6224,-17.09207 -4.5627,-21.21707 -1.3551,-5.94481 -1.7228,-12.68397 -1.7736,-32.5 -0.059,-22.88351 0.1237,-25.67237 2.1546,-32.94198 4.6583,-16.674846 13.571,-30.137636 22.9612,-34.683346 3.8674,-1.87216 6.784,-2.34888 16.2279,-2.65241 22.3678,-0.71891 39.2625,5.90023 64.5132,25.275516 20.6721,15.86206 33.8584,27.72599 43.0094,38.69606 4.2696,5.11839 8.6105,9.71641 9.6466,10.21782 1.3463,0.65161 3.2972,0.24957 6.8393,-1.40946 6.6182,-3.09978 9.4138,-6.12822 8.4625,-9.16712 -0.4021,-1.2843 -6.9397,-11.82428 -14.528,-23.42219 -20.7723,-31.748056 -37.5591,-62.228826 -39.7905,-72.249686 -0.8308,-3.73114 -0.6985,-4.60398 0.9475,-6.25 4.6943,-4.69426 8.5644,-2.03466 27.0467,18.5868 15.3244,17.09811 24.8383,25.86152 26.3908,24.30907 1.0547,-1.05471 -4.3915,-14.31058 -12.1773,-29.6394 -9.1271,-17.96961 -9.342,-19.51717 -2.8783,-20.72977 5.8672,-1.10071 10.007,1.86609 21.0144,15.0601 5.5061,6.6 20.8352,23.025 34.0646,36.5 15.8718,16.16651 26.9513,28.411636 32.5731,35.999996 9.5845,12.93715 17.0265,20.21183 25.5668,24.9919 13.5343,7.57521 30.7979,20.76976 46.4096,35.47077 5.2784,4.97053 14.6471,13.71366 20.8193,19.42918 6.8913,6.3814 14.4384,14.67875 19.556,21.5 4.5836,6.10948 11.2497,14.32705 14.8136,18.26127 12.8522,14.18786 16.6268,19.42893 24.3576,33.82106 5.0921,9.47976 10.8904,18.4459 16.4797,25.48291 4.7429,5.97138 10.1025,13.44219 11.9103,16.60181 1.8078,3.15962 6.4772,10.80781 10.3766,16.99599 3.8993,6.18817 9.9407,15.9365 13.4252,21.66295 3.4846,5.72646 9.4278,14.65759 13.2071,19.84695 3.7793,5.18937 11.6932,16.41021 17.5864,24.93521 12.4013,17.93968 21.5915,29.90782 43.7695,57 17.6175,21.52128 28.2661,36.89949 31.6576,45.71855 1.6158,4.20165 2.2535,8.1041 2.3336,14.28145 0.098,7.5474 -0.2682,9.39656 -3.2666,16.49998 -6.4075,15.1795 -8.0953,18.1224 -13.5426,23.6133 -5.7898,5.8362 -8.4524,7.3998 -18.0805,10.6181 -3.3,1.1031 -12.975,4.9657 -21.5,8.5838 -28.8569,12.2468 -40.8703,14.1817 -77.6372,12.5043 -30.8395,-1.407 -37.57,-0.7488 -56.9528,5.5699 -15.4588,5.0395 -24.8293,6.9017 -43.5807,8.6606 -11.4334,1.0725 -14.6484,0.9689 -32.926,-1.0607 -25.6111,-2.844 -32.702,-2.479 -47.4033,2.44 -6.05,2.0243 -13.8416,5.2692 -17.3148,7.2108 -7.2183,4.0354 -10.3526,7.8845 -23.2876,28.5985 -13.6405,21.844 -19.0889,29.6198 -30.3129,43.2614 -5.8829,7.15 -16.4042,21.55 -23.3807,32 -6.9765,10.45 -15.4089,22.6 -18.7385,27 -8.9389,11.8123 -17.4104,23.9649 -23.0041,33 -9.6034,15.5116 -23.6644,33.007 -39.3813,49 -8.648,8.8 -18.3656,19.3061 -21.5946,23.347 -3.2291,4.0408 -10.842,11.6908 -16.9176,17 -16.4069,14.3372 -71.0931,70.0473 -80.7407,82.2524 -2.3107,2.9233 -12.5546,13.8921 -22.7642,24.3753 -26.6404,27.3542 -36.3968,41.22192 -42.2294,60.02532 -5.3301,17.1833 -10.3095,25.4634 -24.5651,40.8485 -5.1734,5.5833 -12.1416,13.7515 -15.4849,18.1515 -3.3432,4.4 -7.6319,9.8 -9.5304,12 -1.8985,2.2 -6.6086,9.4 -10.4669,16 l -7.0149,12 0.5132,11.6013 c 0.476,10.7618 0.9268,12.8435 6.23,28.7684 4.8347,14.5183 8.9285,23.6492 26.5325,59.1779 14.2866,28.8333 23.6258,49.15 29.7744,64.7713 10.9048,27.705 12.5318,32.7909 20.6647,64.5966 6.8826,26.9158 16.6159,56.9655 24.0775,74.3338 2.5402,5.9129 6.3092,15.2507 8.3756,20.7507 2.0663,5.5 4.9266,12.925 6.3562,16.5 22.8957,57.2567 27.0115,69.0314 29.7117,85 0.6045,3.575 2.6424,13.925 4.5287,23 3.4174,16.4411 6.4128,36.7239 8.4719,57.3667 1.3842,13.8761 4.908,33.9318 9.4234,53.6333 5.2664,22.9781 5.3682,24.2915 2.1324,27.5273 -2.2881,2.2881 -3.2082,2.5773 -6.369,2.0019 -4.6067,-0.8387 -12.553,-5.2416 -21.8091,-12.0839 -3.913,-2.8926 -12.238,-8.6204 -18.5,-12.7285 -14.4905,-9.5064 -24.0335,-19.453 -30.4297,-31.7168 -1.0039,-1.925 -4.854,-12.05 -8.5556,-22.5 -3.7016,-10.45 -8.3285,-23.05 -10.282,-28 -1.9535,-4.95 -3.5734,-10.8 -3.5998,-13 -0.065,-5.4414 -1.9145,-12.8551 -8.4164,-33.7419 -3.0377,-9.758 -6.4669,-22.7436 -7.6207,-28.8569 -2.344,-12.4206 -11.7754,-46.3298 -17.7732,-63.9012 -9.5073,-27.8527 -28.7843,-66.3964 -41.3586,-82.695 -2.313,-2.9981 -7.9784,-8.119 -12.7554,-11.5294 -9.6549,-6.8928 -18.4136,-14.0771 -38.0941,-31.2464 -7.425,-6.4776 -18.675,-15.7284 -25,-20.5573 -11.0102,-8.4058 -31.1336,-25.1912 -52.4855,-43.779 -5.492,-4.7811 -12.242,-10.4451 -15,-12.5867 -2.758,-2.1416 -10.2268,-8.8916 -16.5973,-15 -19.7445,-18.9321 -50.8925,-46.6138 -57.4837,-51.0867 -5.3342,-3.62 -8.6486,-3.2841 -13.7195,1.39 -11.5702,10.6651 -30.1717,57.2646 -34.7645,87.0905 -1.6188,10.5123 -2.9571,16.5852 -6.9416,31.5 -2.204,8.25 -7.1098,26.925 -10.9018,41.5 -3.7919,14.575 -11.1817,39.325 -16.4217,55 -5.24,15.675 -10.2085,31.4402 -11.0413,35.0338 -8.411,36.2971 -13.8005,161.548 -8.2615,191.9955 3.209,17.6393 13.4783,43.3462 23.1795,58.0245 3.7564,5.6835 5.4736,7.2105 12.9328,11.5 18.8485,10.839 32.5061,20.9145 32.5061,23.9803 0,1.653 -5.4007,5.9074 -9.4567,7.4495 -1.6214,0.6164 -10.1762,2.0119 -19.0107,3.1011 -15.2549,1.8807 -17.1797,1.9069 -38.2696,0.5214 -21.9908,-1.4447 -22.268,-1.4913 -28.485,-4.7825 -12.8785,-6.8179 -27.6478,-24.5228 -30.7179,-36.8236 -4.4699,-17.9095 -7.8415,-24 -13.2859,-24 -1.9267,0 -4.1323,-1.2164 -6.7998,-3.75 l -3.9482,-3.75 -1.1333,-14 c -0.6632,-8.1926 -0.9129,-23.5408 -0.6019,-37 0.5342,-23.1192 1.7364,-33.1125 9.2029,-76.5 4.3745,-25.4196 6.8206,-66.5626 6.2724,-105.5 -0.3745,-26.604 -0.5989,-29.661 -2.7158,-37 -1.2692,-4.4 -2.8583,-10.925 -3.5314,-14.5 -1.3822,-7.3406 -5.7407,-21.3607 -14.6112,-47 -1.6174,-4.675 -3.2011,-10.975 -3.5193,-14 -0.3182,-3.025 -1.6373,-10.225 -2.9314,-16 -1.2941,-5.775 -3.0274,-15.9 -3.8518,-22.5 -0.8244,-6.6 -2.1983,-14.925 -3.0532,-18.5 -3.1575,-13.2049 -3.5525,-16.571 -3.5654,-30.3865 -0.01,-7.7624 -0.4499,-23.8853 -0.9837,-35.8285 -1.6677,-37.3112 -5.3731,-47.7579 -19.5241,-55.044 -5.3702,-2.7651 -20.3876,-4.6298 -55.0237,-6.8325 -27.9991,-1.7805 -35.3267,-1.9563 -41.9409,-1.006 -4.4079,0.6333 -26.01438,1.8159 -48.01438,2.6281 -22,0.8121 -44.12053,1.9753 -49.15672,2.5847 -6.11344,0.7399 -17.74588,0.862 -35,0.3675 -48.49839,-1.39 -64.86245,-1.1708 -74.34328,0.9955 -10.31925,2.358 -32.23474,2.7376 -38.5,0.667 -2.2,-0.7271 -9.19796,-3.7641 -15.55103,-6.749 -8.4467,-3.9686 -13.9451,-5.845 -20.45923,-6.982 -4.89951,-0.8552 -9.31273,-1.8049 -9.80716,-2.1105 -0.49444,-0.3056 -5.01278,-1.3697 -10.04078,-2.3648 -5.02799,-0.9951 -15.04986,-3.5993 -22.27082,-5.7871 -7.22096,-2.1877 -15.77096,-4.2798 -19,-4.649 -3.22904,-0.3692 -9.33915,-1.5774 -13.57803,-2.685 l -7.70706,-2.0138 -5.39993,3.0895 c -7.42674,4.2492 -22.05409,15.3361 -33.14457,25.1222 -10.13516,8.9431 -17.96277,17.8469 -27.37471,31.1381 -3.37046,4.7597 -10.31809,13.3097 -15.43918,19 -14.19934,15.7777 -19.46763,22.2369 -29.22064,35.8262 -5.87513,8.1861 -14.81477,18.524 -25.98192,30.0457 -29.67075,30.6129 -43.94414,48.2999 -52.42871,64.9673 -10.3182,20.2695 -13.45695,31.6728 -13.4891,49.0069 -0.0183,9.8902 0.42855,13.1413 3.19249,23.2249 6.53048,23.8251 25.34043,62.1156 55.64561,113.2751 12.43063,20.9847 20.83984,36.3085 35.39558,64.5 11.28528,21.8573 14.59759,27.3376 23.18737,38.3642 5.51174,7.0753 11.19674,14.9503 12.63335,17.5 4.99891,8.8721 9.44048,15.2444 17.91016,25.6956 4.68716,5.7838 10.91004,14.2114 13.82863,18.7281 5.77513,8.9373 10.03852,13.1424 22.31478,22.0099 4.41461,3.1888 11.26833,8.8138 15.2305,12.5 5.9504,5.536 7.37248,7.4715 8.17259,11.1231 1.96739,8.9789 -0.4877,9.3858 -45.47679,7.5366 -19.72223,-0.8107 -37.04723,-1.7318 -38.5,-2.047 -9.46207,-2.0529 -14.9048,-5.9785 -31.6414,-22.8215 -7.7,-7.7489 -15.93326,-15.214 -18.29613,-16.589 -10.07031,-5.8601 -22.10546,-14.1877 -27.46881,-19.0067 -9.97858,-8.9659 -28.19007,-39.2338 -40.30831,-66.9933 -2.04085,-4.675 -10.23196,-19.3 -18.20247,-32.5 -7.97051,-13.2 -19.54505,-32.7974 -25.72119,-43.5499 -6.17614,-10.7524 -15.19223,-25.8274 -20.03575,-33.5 -15.29164,-24.2233 -37.30639,-61.1737 -49.719,-83.4501 -17.50056,-31.4076 -18.55626,-33.1677 -36.28733,-60.5 -8.91994,-13.75 -17.62113,-28.0962 -19.33597,-31.8805 l -3.11791,-6.8804 -4.59764,0.5182 c -5.77644,0.6511 -14.58846,6.5238 -28.70585,19.1308 -16.43231,14.6742 -22.0848,20.9278 -26.07767,28.8511 -6.09382,12.0924 -11.07438,36.1031 -14.1594,68.2608 -1.61193,16.8025 -1.78294,80.3992 -0.3052,113.5 0.55247,12.375 1.20944,27.225 1.45994,33 0.2505,5.775 -0.16877,21.525 -0.93172,35 -1.58178,27.937 -1.1273,34.9829 3.33743,51.7407 3.67801,13.8049 5.02538,17.2579 13.3753,34.2778 7.63841,15.5696 12.15566,20.5646 25.25494,27.9262 13.54193,7.6103 20.96001,12.8822 24.911,17.7039 l 3.82101,4.6631 -3.26665,2.7271 c -9.3865,7.8362 -45.09469,12.9687 -66.15274,9.5085 z"
       id="path1" />
  </g>
</svg>
