<?xml version="1.0" encoding="UTF-8" standalone="no"?>
<!-- Created with Inkscape (http://www.inkscape.org/) -->

<svg
   version="1.1"
   id="svg1"
   width="1184"
   height="864"
   viewBox="0 0 1184 864"
   sodipodi:docname="silueta_chucao.svg"
   inkscape:version="1.4.2 (ebf0e940d0, 2025-05-08)"
   xmlns:inkscape="http://www.inkscape.org/namespaces/inkscape"
   xmlns:sodipodi="http://sodipodi.sourceforge.net/DTD/sodipodi-0.dtd"
   xmlns="http://www.w3.org/2000/svg"
   xmlns:svg="http://www.w3.org/2000/svg">
  <defs
     id="defs1" />
  <sodipodi:namedview
     id="namedview1"
     pagecolor="#ffffff"
     bordercolor="#000000"
     borderopacity="0.25"
     inkscape:showpageshadow="2"
     inkscape:pageopacity="0.0"
     inkscape:pagecheckerboard="0"
     inkscape:deskcolor="#d1d1d1"
     inkscape:zoom="0.75844595"
     inkscape:cx="592"
     inkscape:cy="431.80401"
     inkscape:window-width="1920"
     inkscape:window-height="1008"
     inkscape:window-x="0"
     inkscape:window-y="0"
     inkscape:window-maximized="1"
     inkscape:current-layer="g1" />
  <g
     inkscape:groupmode="layer"
     inkscape:label="Image"
     id="g1">
    <path
       style="fill:#000000"
       d="m 488,808.03854 c 0,-0.5288 1.69442,-1.41771 3.76538,-1.97536 2.07095,-0.55765 5.82988,-2.32319 8.35317,-3.92341 C 505.53702,798.70348 510,790.8312 510,784.70982 v -3.8975 l -5.04981,0.69453 c -3.21722,0.44248 -6.10661,0.25679 -7.96188,-0.51169 C 493.45601,779.53203 490,772.94325 490,767.67217 c 0,-3.1787 -0.84127,-4.54553 -6.00671,-9.75931 -3.30368,-3.33461 -10.56832,-12.13864 -16.14363,-19.56451 -7.20764,-9.60003 -10.37996,-13.11824 -10.97798,-12.17497 -1.33777,2.1101 -0.98322,9.24787 1.23318,24.82662 3.40409,23.92674 3.39591,23.36149 0.45488,31.42528 -3.24697,8.90266 -7.15641,12.95996 -17.98183,18.66195 -6.43756,3.39081 -8.89739,4.16398 -13.12672,4.12598 -5.97301,-0.0537 -11.66414,-2.58001 -16.33564,-7.25151 -5.2352,-5.23519 -3.86785,-6.43134 3.17429,-2.77686 7.93487,4.11777 20.67975,1.63525 27.34259,-5.32594 2.61906,-2.73633 2.71541,-3.08128 1.11183,-3.98034 -8.08967,-4.53553 -8.93743,-9.17686 -3.19824,-17.5099 l 3.67123,-5.33047 -1.73667,-19.76909 c -0.95517,-10.87301 -2.01656,-20.06254 -2.35863,-20.42118 -1.04803,-1.09881 -36.39236,4.77211 -39.95478,6.63674 -4.04,2.11461 -9.57949,1.48881 -15.13774,-1.71011 -3.74553,-2.15565 -3.80896,-2.15796 -9.76587,-0.35435 -5.77671,1.74905 -7.51393,1.75181 -17.35251,0.0276 -3.03399,-0.53172 -4.50234,-0.0447 -9.49606,3.14976 -7.50599,4.80152 -14.98709,5.83037 -18.30064,2.51682 -1.16289,-1.16289 -2.12124,-3.12685 -2.12966,-4.36435 -0.0291,-4.27371 -1.34196,-5.09292 -6.96627,-4.34683 -9.80118,1.30017 -15.99735,4.37549 -22.84672,11.33942 -3.48057,3.53878 -6.57211,6.19033 -6.8701,5.89235 -0.98435,-0.98435 0.57532,-5.10623 3.73997,-9.88398 5.07329,-7.65927 13.50097,-13.47436 23.61368,-16.29343 0.63539,-0.17712 2.6256,-3.08069 4.42269,-6.45238 C 328.32837,697.27813 338.28144,691 350.62248,691 c 2.89272,0 5.53452,-0.44502 5.87068,-0.98893 1.17077,-1.89435 -2.57471,-7.80174 -5.81332,-9.16881 -5.04485,-2.12951 -17.28328,-1.61295 -23.05696,0.97319 -5.73974,2.57093 -5.62288,2.55276 -5.62288,0.87439 0,-1.79141 5.70036,-7.48214 9.43921,-9.42325 6.51406,-3.38193 26.95121,-2.15225 35.42152,2.13128 1.4516,0.73409 4.43927,1.88959 6.63927,2.56779 2.2,0.67819 5.8,2.05206 8,3.05303 3.39662,1.54542 8.00639,1.92525 30.55969,2.51804 30.11624,0.79158 28.56433,1.09163 40.4661,-7.8238 6.23146,-4.66789 9.86696,-5.98342 26.97421,-9.76082 18.03251,-3.9817 92.87234,-29.50996 105.70403,-36.0562 5.75301,-2.93496 4.7272,-4.78739 -4.20403,-7.59176 -21.20205,-6.65737 -61.89087,-25.26752 -82.26595,-37.62658 -3.97873,-2.41341 -9.03405,-5.30718 -11.23405,-6.4306 -2.2,-1.12343 -8.41677,-5.24436 -13.81504,-9.15764 -5.39827,-3.91327 -11.48923,-7.96915 -13.53546,-9.01306 -7.64644,-3.90092 -34.51006,-27.22983 -54.33367,-47.18444 -15.9206,-16.02581 -17.34153,-17.79207 -31.04763,-38.59313 -18.05369,-27.39916 -27.28242,-44.12138 -34.30646,-62.16246 -3.06507,-7.87256 -2.88162,-7.72146 -12.91312,-10.63618 -7.46158,-2.16802 -12.87716,-5.52143 -18.2135,-11.2781 l -4.16488,-4.49294 -8.11251,1.262 c -14.9249,2.32175 -31.46684,-1.0127 -39.17781,-7.89731 -3.37299,-3.0115 -4.34781,-4.80876 -6.01715,-11.09371 -1.09564,-4.125 -2.39328,-7.9078 -2.88364,-8.40621 -0.53058,-0.53931 -3.43979,0.25187 -7.18534,1.95411 -5.27009,2.39509 -7.94639,2.92636 -16.45411,3.26631 -19.34846,0.77313 -35.39072,-3.12932 -36.19062,-8.80374 -0.19302,-1.36924 0.67782,-5.76983 1.93519,-9.7791 2.08586,-6.65102 2.14738,-7.42831 0.70233,-8.87336 -1.44506,-1.44506 -2.09636,-1.40648 -7.43519,0.44045 -9.26081,3.20371 -17.99796,4.52827 -29.85139,4.52549 -17.03874,-0.004 -33.09826,-3.34111 -32.32696,-6.71744 0.17983,-0.78718 4.10839,-4.50817 8.73014,-8.26887 9.335,-7.59586 10.7201,-9.27101 9.75193,-11.79403 -0.55939,-1.45776 -1.56249,-1.63975 -6.40915,-1.16285 C 106.84195,317.07723 68,315.10224 68,311.01235 68,309.41528 74.204232,305.36147 84.553131,300.1966 102.67644,291.15174 101.6898,289.75717 76.872092,289.33978 60.3278,289.06153 30.045257,286.73092 25.75,285.40531 c -2.277665,-0.70293 -2.225817,-2.08029 0.125682,-3.33878 1.031624,-0.55211 11.261975,-3.28329 22.734111,-6.06929 11.472137,-2.78601 21.278328,-5.48536 21.791536,-5.99857 C 71.732651,268.66735 70.222225,268.37556 55.5,267.11999 48.35,266.51021 37.775,264.89186 32,263.52364 26.225,262.15543 18.575,260.98303 15,260.91831 7.57287,260.78386 3.8157924,259.94738 3.2688241,258.30647 2.9902641,257.47079 7.490715,257.31232 20.194685,257.71048 36.632167,258.22564 59.41808,256.86403 82,254.01718 c 23.81276,-3.00202 32.85926,-4.43449 45,-7.12554 27.58944,-6.11531 63.5074,-12.95066 78,-14.84376 11.13109,-1.45399 26.63224,-3.84562 36,-5.55433 9.73693,-1.77606 21.48073,-3.22493 36.99081,-4.56369 6.86995,-0.59298 12.67241,-1.25975 12.89437,-1.48171 0.22196,-0.22196 -0.36426,-2.41408 -1.30271,-4.87138 -1.60807,-4.21068 -1.94733,-4.48535 -5.89437,-4.7723 -3.76062,-0.27339 -4.28576,-0.6362 -5.1449,-3.55447 -0.52623,-1.7875 -1.53873,-3.25 -2.25,-3.25 -0.71126,0 -1.2932,-0.9 -1.2932,-2 0,-1.1 -0.52769,-2 -1.17264,-2 -0.64495,0 -9.53245,1.99665 -19.75,4.43701 -10.21755,2.44035 -24.12129,5.42393 -30.8972,6.63016 -17.23867,3.06879 -18.15607,1.39589 -4.18016,-7.62256 15.72608,-10.1478 39.85528,-20.15176 54,-22.38837 4.125,-0.65226 10.37214,-1.89786 13.88254,-2.76801 9.79882,-2.42889 15.81705,-8.7241 18.70277,-19.5635 2.74809,-10.32245 1.60244,-17.02979 -4.52919,-26.51661 -7.35161,-11.37436 -17.42784,-17.5013 -50.55612,-30.74107 -9.35,-3.73674 -20.6,-7.778923 -25,-8.982628 -9.1536,-2.504142 -10.00106,-3.983893 -4,-6.984422 5.67734,-2.838672 22.7555,-2.616383 39,0.507623 14.91936,2.869167 38.47261,4.216953 40.11024,2.295226 C 301.22088,87.586282 302.57547,87 303.62046,87 c 1.04499,0 3.09327,-1.106486 4.55174,-2.458858 1.45848,-1.352372 3.92888,-2.771571 5.48979,-3.153777 1.5609,-0.382205 6.21301,-2.631736 10.33801,-4.998958 17.96278,-10.308335 38.04729,-15.02435 60,-14.088519 13.77692,0.587301 21.93767,2.084762 36.09012,6.622376 21.97115,7.04448 41.78255,16.428491 54.90988,26.009014 14.05243,10.255682 35.04975,30.475932 50.8346,48.953322 5.86597,6.86656 13.37879,15.64134 16.69516,19.49949 14.71907,17.12368 49.90928,47.45591 53.43231,46.05603 5.01645,-1.99328 16.13603,-3.40764 26.90959,-3.42276 23.45947,-0.0329 41.67592,3.96084 88.35066,19.36996 20.12871,6.64526 31.79736,11.08876 39,14.85148 5.65272,2.95303 15.00268,7.22106 20.77768,9.48452 20.13815,7.89295 28.55549,11.03884 36.64762,13.69668 4.48119,1.47183 15.95619,6.52216 25.5,11.22296 23.81093,11.72806 77.74479,36.57175 98.35238,45.30431 28.6671,12.14781 57.22936,27.54511 84.5,45.55215 36.9796,24.41796 54.3956,39.50502 50.3143,43.58626 -0.5125,0.51247 -4.391,-0.19255 -9.2234,-1.67659 -8.4067,-2.58173 -11.0418,-2.32939 -9.7882,0.93734 0.3125,0.81447 6.4061,6.24332 13.5413,12.06412 20.0271,16.33789 22.0561,19.81953 12.891,22.11984 -4.0859,1.02549 -4.1511,1.99935 -0.4133,6.17911 4.2037,4.70074 5.6783,7.45414 5.6783,10.60231 0,3.2268 -1.4509,4.29289 -9.6348,7.07938 l -6.8652,2.33749 0.2946,4.58339 c 0.441,6.86111 -1.835,7.98243 -17.7116,8.72628 -9.0858,0.42569 -13.6947,1.09951 -16.583,2.42442 -2.7354,1.25479 -7.3093,1.99039 -14.4677,2.32681 -9.8089,0.46099 -10.6432,0.66746 -13.2567,3.28097 -4.03956,4.03956 -11.06114,5.30404 -26.21211,4.72037 l -12.62042,-0.48617 -4.84706,6.16776 c -2.66588,3.39227 -7.42203,7.87694 -10.56922,9.96593 -3.14719,2.08898 -6.89597,5.11555 -8.33063,6.7257 -6.28637,7.05538 -15.28402,8.90863 -23.63044,4.86718 -5.04631,-2.4435 -39.83261,-37.3995 -55.26172,-55.53132 -14.77279,-17.36052 -14.32104,-16.99237 -19.50369,-15.89452 -3.24095,0.68653 -4.74189,1.70832 -6.45524,4.39452 -4.41277,6.91837 -6.52086,8.97239 -10.40201,10.13521 -2.16868,0.64975 -3.94306,1.50593 -3.94306,1.90262 0,1.00234 7.24748,6.77661 15,11.95093 3.575,2.38608 8.09894,5.72724 10.05321,7.42479 1.95426,1.69755 9.53239,7.13645 16.84029,12.08645 7.3079,4.95 16.28395,11.22311 19.94679,13.94024 3.66284,2.71713 13.18471,7.94523 21.15971,11.618 7.975,3.67276 22.15,10.46667 31.5,15.09758 9.35,4.63091 25.775,12.40837 36.5,17.28325 58.2887,26.49422 119.3859,58.68771 154,81.14608 8.0089,5.19635 18.7756,14.91838 17.7223,16.00284 -0.4277,0.4404 -3.3798,0.26326 -6.5602,-0.39363 -11.0583,-2.28405 -16.2513,-1.0031 -11.5962,2.86036 2.3113,1.91821 4.7316,7.05044 3.7692,7.99244 -0.4593,0.44955 -3.9555,-0.51851 -7.7692,-2.15123 -10.8978,-4.66548 -11.7729,-2.81199 -3.4197,7.24285 2.1196,2.55133 3.8538,5.64508 3.8538,6.875 0,1.95691 -0.3789,2.16043 -3.0339,1.62944 -8.0907,-1.61813 -37.7422,-15.74664 -59.4661,-28.33472 -6.6,-3.82441 -16.5,-9.56527 -22,-12.75745 -27.0552,-15.70277 -67.09044,-36.11136 -98,-49.95703 -11.32619,-5.07347 -10.2631,-4.94489 -35.33517,-4.27369 -15.59753,0.41756 -26.90337,0.24044 -33.16483,-0.51957 -15.53043,-1.88507 -25.27965,-1.57015 -37,1.19519 -9.2763,2.18867 -12.45209,2.45253 -27.25,2.26406 -14.20091,-0.18088 -16.75,0.0114 -16.75,1.26332 0,0.81217 0.45,1.47667 1,1.47667 0.55,0 1,0.45 1,1 0,0.55 -1.575,1 -3.5,1 -2.83333,0 -3.5,0.38095 -3.5,2 0,1.61905 -0.66667,2 -3.5,2 -3.74864,0 -4.41336,0.99709 -2,3 2.4838,2.06137 1.7454,3.29908 -1.57233,2.63553 -1.68978,-0.33795 -5.83046,-1.72852 -9.20151,-3.09015 -3.37105,-1.36163 -6.34677,-2.25811 -6.6127,-1.99218 -0.26593,0.26593 1.25801,2.26699 3.38654,4.4468 2.12853,2.17981 3.67429,4.13375 3.43502,4.34209 -0.23926,0.20834 -3.81002,0.63875 -7.93502,0.95647 -5.24578,0.40404 -8.70225,0.14995 -11.5,-0.84539 -2.2,-0.78268 -5.25333,-1.42983 -6.78518,-1.43811 -3.49225,-0.0189 -7.98645,2.8347 -7.29643,4.63286 0.29539,0.76978 -0.13422,1.35208 -0.99752,1.35208 -0.834,0 -2.6135,1.18382 -3.95443,2.63071 -2.22485,2.40066 -2.88256,2.57175 -7.52088,1.95646 -4.59993,-0.61021 -5.57507,-0.36627 -10.26419,2.56763 -4.6313,2.89772 -6.19514,3.30045 -14.73048,3.79354 -6.66847,0.38524 -10.35327,1.07958 -12.21482,2.30166 -1.46614,0.9625 -3.41579,1.75 -4.33256,1.75 -1.83868,0 -1.90873,-1.24466 1.04284,18.52978 2.36911,15.87219 1.88703,17.00624 -10.94635,25.75066 -5.5,3.7476 -13.6,8.60848 -18,10.80195 -7.26092,3.61969 -9.06243,4.07584 -19.5,4.9375 -16.67611,1.37667 -46.30127,6.5288 -86.5,15.04327 -13.2,2.79589 -28.61438,6.05732 -34.25417,7.24763 -5.63979,1.1903 -10.10475,2.61244 -9.92213,3.1603 0.50073,1.50219 13.5997,5.42109 18.31199,5.47851 2.27463,0.0277 5.42463,0.72263 7,1.54424 1.57537,0.82161 3.71946,1.49661 4.76464,1.5 7.53484,0.0244 23.76161,13.61886 26.8641,22.50616 2.15276,6.16674 2.22946,14.47389 0.19683,21.3185 -2.35509,7.93045 -4.12209,6.76933 -4.66962,-3.0685 -0.7652,-13.74898 -5.834,-22.13944 -16.22626,-26.85959 -6.35396,-2.88596 -8.90264,-2.5034 -10.87482,1.63231 -3.3543,7.03403 -10.83067,7.07666 -19.29299,0.11001 -6.62649,-5.45529 -26.95248,-17.02584 -28.37015,-16.14968 -0.56508,0.34924 -1.02742,2.36802 -1.02742,4.48617 0,5.22333 4.45543,10.8655 22.92464,29.03078 13.54723,13.32429 14.93553,15.02704 17.12195,21 5.79768,15.8383 0.65224,30.27058 -12.8795,36.1253 C 500.56318,809.11726 488,809.78559 488,808.03854 Z M 330.96738,712.51151 c 4.95557,-1.74843 12.41147,-2.15167 19.85734,-1.07397 4.75245,0.68786 5.58538,0.52582 7.75,-1.50774 2.75809,-2.59109 3.05284,-5.51559 0.84961,-8.4298 -1.29247,-1.70955 -2.63117,-1.98923 -9.21819,-1.92581 -9.27924,0.0893 -12.92131,1.52638 -19.95614,7.874 -7.26938,6.55927 -7.09101,7.81828 0.71738,5.06332 z m 198.02035,-32.00937 c 11.03791,-1.92382 26.69369,-4.87374 34.7906,-6.55537 8.09692,-1.68163 22.58419,-4.64335 32.19394,-6.58159 9.60975,-1.93824 18.83475,-4.10625 20.5,-4.81779 5.9731,-2.55222 9.68368,-7.53129 11.05329,-14.83195 0.67864,-3.61746 0.61779,-3.71544 -2.3073,-3.71544 -3.07502,0 -12.89005,1.73472 -26.21826,4.63386 -18.38543,3.99916 -95,32.13835 -95,34.89182 0,1.02657 5.72439,0.33391 24.98773,-3.02354 z"
       id="path1" />
  </g>
</svg>
