<?xml version="1.0" encoding="UTF-8" standalone="no"?>
<!-- Created with Inkscape (http://www.inkscape.org/) -->

<svg
   version="1.1"
   id="svg1"
   width="1184"
   height="864"
   viewBox="0 0 1184 864"
   sodipodi:docname="silueta_martinpescador.png"
   inkscape:version="1.4.2 (ebf0e940d0, 2025-05-08)"
   xmlns:inkscape="http://www.inkscape.org/namespaces/inkscape"
   xmlns:sodipodi="http://sodipodi.sourceforge.net/DTD/sodipodi-0.dtd"
   xmlns="http://www.w3.org/2000/svg"
   xmlns:svg="http://www.w3.org/2000/svg">
  <defs
     id="defs1" />
  <sodipodi:namedview
     id="namedview1"
     pagecolor="#ffffff"
     bordercolor="#000000"
     borderopacity="0.25"
     inkscape:showpageshadow="2"
     inkscape:pageopacity="0.0"
     inkscape:pagecheckerboard="0"
     inkscape:deskcolor="#d1d1d1"
     inkscape:zoom="0.75844595"
     inkscape:cx="592"
     inkscape:cy="431.80401"
     inkscape:window-width="1920"
     inkscape:window-height="1008"
     inkscape:window-x="0"
     inkscape:window-y="0"
     inkscape:window-maximized="1"
     inkscape:current-layer="g1" />
  <g
     inkscape:groupmode="layer"
     inkscape:label="Image"
     id="g1">
    <path
       style="fill:#008080"
       d="m 18.033909,843.4514 c -1.13304,-1.3652 -0.76609,-2.0685 2.62756,-5.0355 2.16947,-1.8968 8.90685,-7.0096 14.97193,-11.3618 13.02174,-9.3442 16.34566,-12.5428 14.72183,-14.1666 -1.37822,-1.3783 -4.94203,-0.4592 -18.24926,4.7062 -21.84126,8.4781 -22.6185704,4.3478 -1.51879,-8.07 5.07615,-2.9875 9.67581,-6.0064 10.22148,-6.7086 1.23915,-1.5948 4.29731,-11.0751 4.29731,-13.3218 0,-1.2059 -0.48563,-1.4629 -1.75,-0.9263 -0.9625,0.4086 -5.38877,2.0283 -9.83617,3.5995 -7.7197,2.7272 -8.46079,2.8097 -16.35234,1.8202 -9.0057204,-1.1292 -12.7658404,-2.9223 -13.6683104,-6.5181 -1.56401,-6.2315 4.51602,-13.63673 16.3995404,-19.97396 3.13901,-1.67396 14.30897,-7.63523 24.82214,-13.24726 10.51317,-5.61202 23.69156,-12.23288 29.2853,-14.71302 5.59375,-2.48013 13.8562,-6.36249 18.36101,-8.62746 4.50481,-2.26498 14.951411,-6.94472 23.214691,-10.39944 23.03754,-9.63155 53.50634,-24.88793 62.20343,-31.14658 4.30138,-3.0954 12.7707,-8.86776 18.8207,-12.82749 15.55042,-10.17774 21.21592,-14.81085 36.18044,-29.58752 16.44954,-16.24304 20.98208,-21.81636 36.52142,-44.90766 6.84729,-10.175 14.77864,-21.56212 17.62521,-25.30471 2.84657,-3.7426 6.98983,-10.44048 9.20723,-14.88419 2.21741,-4.44372 4.95071,-9.25659 6.074,-10.69529 4.92522,-6.30812 28.24322,-32.52421 37.46007,-42.11581 5.54937,-5.775 14.0679,-15 18.93008,-20.5 14.56124,-16.47138 54.9906,-57.91793 70.50155,-72.27536 7.975,-7.38191 19.45,-17.1997 25.5,-21.81732 6.05,-4.61762 15.55544,-11.88579 21.12319,-16.1515 20.24305,-15.50909 39.90894,-28.59798 69.7859,-46.44689 10.4,-6.21311 20.77965,-13.11454 23.0659,-15.33652 8.82412,-8.57606 16.70205,-23.35068 9.36728,-17.56781 -4.4683,3.52288 -5.93893,2.59641 -3.69525,-2.32793 0.87247,-1.91486 0.86052,-2.86266 -0.0499,-3.95968 -1.54269,-1.85883 -0.0223,-5.38138 7.65456,-17.73502 1.23659,-1.98992 2.24835,-3.90242 2.24835,-4.25 0,-1.30844 -2.82465,-0.55774 -5.33685,1.41836 -1.93051,1.51853 -3.07143,1.80153 -4.39889,1.0911 -1.22539,-0.65581 -2.8522,-0.51358 -5.1431,0.44967 -1.84293,0.7749 -3.74912,1.4089 -4.23597,1.4089 -1.20121,0 -1.12826,-3.73174 0.0876,-4.48321 0.53505,-0.33068 1.48247,-2.49473 2.10538,-4.80901 0.72983,-2.71154 2.54538,-5.51241 5.10574,-7.87671 3.33529,-3.07987 3.80625,-3.98087 2.93337,-5.61186 -1.2976,-2.42459 -0.22923,-3.8603 5.96003,-8.00928 3.98836,-2.67361 7.81006,-6.73941 10.30368,-10.9618 1.37609,-2.3301 -3.82351,-3.32032 -9.09715,-1.73247 -6.63942,1.99907 -15.8797,2.94734 -16.64552,1.70821 -0.34165,-0.55281 0.52233,-1.75436 1.91996,-2.67012 1.83449,-1.20201 2.36706,-2.21349 1.91515,-3.63734 -0.85535,-2.69496 2.6443,-5.48527 9.44066,-7.52715 6.25006,-1.87775 11.24997,-6.03856 8.982,-7.47462 -0.76787,-0.48621 -3.13611,-0.89091 -5.26276,-0.89933 -3.37945,-0.0134 -3.8003,-0.26895 -3.3402,-2.0284 0.34887,-1.33408 -0.12202,-2.36013 -1.39608,-3.04199 -2.74095,-1.46691 -1.07814,-4.04045 4.53436,-7.01787 2.83164,-1.50219 4.89276,-3.41832 5.47569,-5.09052 0.51414,-1.47486 1.80865,-3.14924 2.87668,-3.72083 1.06803,-0.5716 2.54251,-2.48933 3.27662,-4.26162 1.13945,-2.75087 1.12294,-3.29942 -0.11285,-3.74906 -0.79617,-0.28969 -3.40811,-1.21932 -5.80431,-2.06586 -2.3962,-0.84654 -4.4212,-1.94474 -4.5,-2.44046 -0.0788,-0.49571 3.06523,-1.65525 6.98675,-2.57676 6.924,-1.62705 17.36997,-7.74855 17.36997,-10.17906 0,-0.61274 -2.08484,-0.72631 -5.5,-0.29961 -3.33605,0.41681 -5.5,0.30815 -5.5,-0.27617 0,-1.151 5.84932,-3.77414 11.74332,-5.26632 3.21037,-0.81276 4.64335,-1.84784 5.88663,-4.25207 l 1.6433,-3.1778 -4.36374,-3.75834 c -2.71829,-2.34115 -3.9953,-4.09218 -3.38663,-4.6437 1.21634,-1.10212 10.80198,-2.90856 19.7166,-3.71565 10.81582,-0.97921 10.21941,-3.09862 -1.2158,-4.32047 -8.01201,-0.85608 -9.4398,-1.73547 -6.27368,-3.86403 1.2375,-0.83197 2.25,-2.08876 2.25,-2.79287 0,-1.41663 5.05157,-3.47585 8.52678,-3.47585 2.59117,0 5.23576,-2.67235 3.88084,-3.92158 -0.49919,-0.46025 -2.59512,-1.37607 -4.65762,-2.03517 -2.0625,-0.65909 -3.75,-1.59611 -3.75,-2.08226 0,-1.04256 5.48896,-2.57089 12.5,-3.48045 7.42045,-0.96267 8.5,-1.41976 8.5,-3.59895 0,-2.22002 -4.01088,-4.2747 -10.5,-5.37893 -2.2,-0.37436 -5.86284,-1.51957 -8.13965,-2.54491 -2.27681,-1.02534 -5.3112,-2.158294 -6.74309,-2.517674 -3.72797,-0.93567 -2.20318,-2.44008 2.47315,-2.44008 2.6085,0 4.17,-0.51501 4.54797,-1.5 0.42859,-1.11689 2.20843,-1.5 6.96862,-1.5 3.51615,0 6.39301,-0.41987 6.39301,-0.93305 0,-1.47832 -8.00684,-7.58316 -13.67923,-10.42978 -5.46577,-2.74294 -7.46733,-4.63717 -4.89989,-4.63717 0.84641,0 5.93547,1.73876 11.30902,3.8639 12.54228,4.96025 20.00479,7.3912 21.33167,6.94891 0.57897,-0.19299 -1.89722,-3.19912 -5.50263,-6.6803 -3.6054,-3.48117 -6.33887,-6.67957 -6.07437,-7.10755 0.55371,-0.89592 9.08533,1.28747 25.51543,6.52985 13.21291,4.21586 26,5.77034 26,3.16073 0,-1.86413 -4.85821,-5.7371 -15.1743,-12.09698 -8.84224,-5.45124 -10.64589,-7.19836 -9.06418,-8.78008 0.76901,-0.76901 2.45746,-0.7653 5.90762,0.013 2.65697,0.59936 8.20586,1.34644 12.33086,1.66017 8.48804,0.64557 14.71994,2.10072 30.50563,7.1231 9.4589,3.00941 11.4266,3.34148 14,2.36265 l 2.9944,-1.13891 -8.75,-8.02317 c -10.9578,-10.04759 -11.854,-13.80903 -2.0534,-8.61809 2.3082,1.22252 4.5567,1.8628 4.9967,1.42283 0.7767,-0.77672 -2.8363,-4.38263 -9.7938,-9.77462 -4.4436,-3.44372 -3.1395,-4.61068 2.6723,-2.39117 3.7173,1.41968 5.0464,1.53284 6.8247,0.58111 2.7012,-1.44564 9.7446,1.05438 18.1886,6.45594 2.9995,1.91878 5.6077,3.48869 5.7958,3.48869 0.1882,0 3.6167,1.8 7.6191,4 4.0023,2.2 7.6412,4 8.0864,4 0.4453,0 0.3456,-1.33072 -0.2213,-2.95716 -1.1662,-3.3453 -9.7761,-11.9595 -24.1151,-24.12707 -8.8281,-7.49116 -11.0454,-9.91577 -9.0682,-9.91577 2.0022,0 32.9988,19.68383 43.5569,27.65999 6.7437,5.09453 12.5988,9.28016 13.0113,9.3014 1.5107,0.0778 0.684,-2.25105 -1.8814,-5.29986 -1.4472,-1.71995 -4.0799,-6.28491 -5.8504,-10.14435 -1.8052,-3.93503 -7.0183,-11.79447 -11.8687,-17.89369 -7.7736,-9.77507 -9.6213,-12.62349 -8.1884,-12.62349 1.0725,0 12.0333,9.28754 29.3223,24.846 6.2058,5.5847 11.9081,10.154 12.6717,10.154 0.7636,0 4.4082,2.025 8.099,4.5 10.8584,7.28133 10.7151,6.45866 -1.7873,-10.26212 -3.809,-5.09417 -6.7547,-9.77418 -6.5461,-10.40003 0.7294,-2.18834 32.0176,26.45856 45.771,41.90704 10.4547,11.7434 12.7041,13.39161 14.6479,10.73334 1.6633,-2.27482 2.8146,-1.36619 9.0792,7.16576 2.5668,3.495804 5.0812,6.356014 5.5875,6.356014 0.5064,0 0.7196,-1.36981 0.4739,-3.04403 -0.5411,-3.686864 0.835,-4.833804 2.7669,-2.306114 2.9333,3.837944 9.4774,15.300904 14.4957,25.391724 3.5764,7.19131 6.9766,12.33276 10.8843,16.45842 11.5997,12.24642 28.0729,35.06754 28.0729,38.89077 0,1.08858 1.575,5.02272 3.5,8.74252 1.925,3.7198 3.5,8.17958 3.5,9.91062 0,3.74295 3.1041,8.44145 6.8601,10.38378 4.2908,2.21886 56.99031,19.62292 87.63991,28.9432 54.2057,16.48345 70.1984,21.55234 82.0421,26.00318 14.2413,5.35188 45.3705,18.0087 49.2281,20.01567 3.8858,2.02164 7.8048,6.44558 6.6666,7.5254 -2.317,2.198 -31.4561,4.0878 -62.9368,4.08173 -47.2663,-0.009 -83.4521,-2.54961 -143.20421,-10.05396 l -9.2042,-1.15597 -13.7958,4.51276 c -7.5877,2.48202 -18.9708,5.48147 -25.2958,6.66545 -6.325,1.18398 -14.425,3.00404 -18,4.04458 -3.575,1.04054 -8.576,2.15737 -11.1133,2.48185 -6.0549,0.77431 -16.9313,6.16439 -24.2335,12.00952 -7.973,6.382 -10.7764,12.52573 -11.4316,25.05262 -0.3893,7.44255 -0.083,10.55514 1.5815,16.08715 6.8842,22.87599 9.7328,43.50425 8.0913,58.59382 -3.1899,29.3238 -18.1907,67.60936 -39.873,101.76531 -3.666,5.775 -11.3152,18.375 -16.9983,28 -9.8629,16.70396 -10.9059,18.06148 -22.928,29.84351 -17.6095,17.25769 -21.2863,20.07689 -59.5951,45.69488 -18.7,12.5051 -36.80553,24.95787 -40.23447,27.67281 -7.87783,6.23743 -19.42676,18.63315 -24.02709,25.7888 -1.94476,3.025 -4.79756,7.39524 -6.33956,9.71165 l -2.80364,4.21166 8.42377,5.08819 c 8.99839,5.43529 18.86642,9.24377 26.98096,10.41309 10.93216,1.57534 33.88263,9.80103 41.22653,14.77601 6.6591,4.51112 12.0675,15.74076 9.4527,19.62713 -0.676,1.00468 -2.2332,-0.0121 -6.4002,-4.17917 -6.1345,-6.13442 -11.0366,-7.91905 -15.3749,-5.59726 -2.0847,1.11573 -2.9749,1.03697 -6.1702,-0.54592 -2.3263,-1.1524 -6.3729,-1.94155 -10.73393,-2.09327 -5.09674,-0.17732 -8.57084,-0.96953 -12.77736,-2.91366 -3.17755,-1.46856 -9.27176,-3.28016 -13.54269,-4.02576 -4.27092,-0.74561 -9.94349,-2.09516 -12.60571,-2.999 -3.31143,-1.12426 -6.61464,-1.47133 -10.45731,-1.09873 -3.08931,0.29954 -11.46693,0.95855 -18.61693,1.46445 -18.68087,1.3218 -22.55994,3.697 -14.11772,8.64447 8.28457,4.85508 26.95968,6.78695 39.63366,4.09996 11.98305,-2.54051 17.11967,-2.78511 24.66254,-1.17436 3.94816,0.84311 8.67316,2.4442 10.5,3.55798 1.82683,1.11379 3.99652,2.0271 4.82152,2.02959 2.91246,0.009 13.54303,5.74473 16.86923,9.10212 3.7701,3.80549 6.1308,8.56809 6.1308,12.36871 0,3.27062 -1.366,3.19523 -5.8561,-0.32319 -4.5463,-3.56236 -7.5264,-5.14469 -9.6895,-5.14469 -1.3555,0 -1.5584,0.63242 -1.0582,3.29858 0.3927,2.09301 0.1235,3.97602 -0.7365,5.15215 -1.31441,1.7975 -1.41297,1.79337 -3.25757,-0.13632 -1.04619,-1.09445 -2.38177,-2.81961 -2.96796,-3.83369 -0.96969,-1.67753 -1.47521,-1.72916 -5.60614,-0.57257 -4.14851,1.16151 -5.00585,1.0693 -9.9342,-1.06847 -4.96284,-2.15272 -6.71236,-2.33409 -21.89386,-2.26973 -9.075,0.0385 -20.1,0.16288 -24.5,0.27645 -4.4,0.11356 -13.69305,0.0737 -20.65122,-0.0887 l -12.65121,-0.29513 -7.08864,-4.98131 c -12.32479,-8.66084 -14.03165,-9.4457 -20.60893,-9.47653 -5.19341,-0.0244 -7.2771,0.61199 -15.5,4.73355 l -9.5,4.76172 h -13 c -11.5168,0 -13.39932,-0.2437 -16.5,-2.13598 -1.925,-1.17479 -4.625,-2.47394 -6,-2.887 -1.375,-0.41306 -4.3,-1.96227 -6.5,-3.4427 -5.50095,-3.7017 -11.81449,-6.03432 -16.33265,-6.03432 -2.0857,0 -7.786,1.35 -12.66735,3 -10.62712,3.59219 -16.93861,3.83193 -22.78984,0.86567 -2.31559,-1.17389 -4.47221,-2.54086 -4.79249,-3.03772 -0.93795,-1.45508 -16.74375,-1.1002 -25.23387,0.56656 -4.45991,0.87556 -10.06097,2.81879 -13.04389,4.52544 -5.38537,3.0812 -23.39829,10.82649 -27.38991,11.77727 -1.82164,0.4339 -2.25,0.11077 -2.25,-1.69727 0,-1.85966 -0.37636,-2.11443 -2.25,-1.52309 -1.2375,0.39056 -3.6,0.92317 -5.25,1.18356 -1.65,0.26039 -8.26082,1.32921 -14.69072,2.37515 -7.8891,1.28332 -12.60425,1.61342 -14.5,1.01515 -1.5451,-0.48762 -7.25037,-1.16136 -12.67838,-1.49721 -5.428,-0.33584 -10.68592,-1.04777 -11.68426,-1.58207 -0.99833,-0.53429 -3.50543,-0.97144 -5.57131,-0.97144 -5.0377,0 -55.34236,16.46766 -78.26144,25.61954 -19.52505,7.79661 -27.89883,9.93972 -34.79615,8.9054 -4.90129,-0.73499 -8.31774,-4.22349 -8.31774,-8.49313 0,-1.48416 -0.26264,-2.96112 -0.58364,-3.28212 -0.32101,-0.32101 -7.85851,3.11953 -16.75,7.64563 -33.24739,16.92417 -79.85489,38.65377 -126.166351,58.82207 -29.28341,12.7527 -35.72761,14.6231 -38.57206,11.1958 z"
       id="path1" />
  </g>
</svg>
